<?xml version="1.0" encoding="utf-8"?>
<!-- Generator: Adobe Illustrator 16.0.0, SVG Export Plug-In . SVG Version: 6.00 Build 0)  -->
<!DOCTYPE svg PUBLIC "-//W3C//DTD SVG 1.1//EN" "http://www.w3.org/Graphics/SVG/1.1/DTD/svg11.dtd">
<svg version="1.1" id="Layer_1" xmlns="http://www.w3.org/2000/svg" xmlns:xlink="http://www.w3.org/1999/xlink" x="0px" y="0px"
	 width="145.599px" height="45.108px" viewBox="0 0 145.599 45.108" enable-background="new 0 0 145.599 45.108"
	 xml:space="preserve">
<g opacity="0.6">
	<g>
		<path fill="#FFFFFF" d="M25.241,12.798l0.225-0.337l0.222-0.333l0.498-0.747c0.061-0.093,0.036-0.216-0.055-0.277
			c-0.093-0.062-0.216-0.037-0.277,0.056l-0.534,0.802l-0.225,0.336l-0.228,0.342c-0.722-0.28-1.526-0.437-2.377-0.437
			c-0.85,0-1.654,0.156-2.376,0.437l-0.227-0.342l-0.225-0.336l-0.534-0.802c-0.062-0.093-0.185-0.117-0.277-0.057
			c-0.092,0.062-0.117,0.186-0.056,0.277l0.498,0.747l0.222,0.333l0.226,0.338c-1.696,0.789-2.843,2.286-2.843,3.998h11.186
			C28.084,15.084,26.937,13.588,25.241,12.798z M20.094,15.198c-0.332,0-0.6-0.269-0.6-0.6c0-0.33,0.268-0.599,0.6-0.599
			c0.331,0,0.599,0.269,0.599,0.599C20.693,14.93,20.425,15.198,20.094,15.198z M24.888,15.198c-0.331,0-0.599-0.269-0.599-0.6
			c0-0.33,0.268-0.599,0.599-0.599c0.332,0,0.6,0.269,0.6,0.599C25.488,14.93,25.22,15.198,24.888,15.198z"/>
		<path fill="#FFFFFF" d="M16.984,17.596h-0.086v0.996v0.813v6.979c0,0.697,0.567,1.266,1.265,1.266h0.913
			c-0.031,0.105-0.048,0.217-0.048,0.332v0.066v0.399v2.065c0,0.661,0.537,1.198,1.199,1.198s1.199-0.537,1.199-1.198v-2.065v-0.399
			v-0.066c0-0.114-0.018-0.227-0.047-0.332h2.226c-0.031,0.105-0.047,0.217-0.047,0.332v0.066v0.399v2.065
			c0,0.661,0.537,1.198,1.198,1.198s1.199-0.537,1.199-1.198v-2.065v-0.399v-0.066c0-0.114-0.017-0.227-0.047-0.332h0.913
			c0.698,0,1.265-0.568,1.265-1.266v-6.979v-0.813v-0.996h-0.085H16.984z"/>
		<path fill="#FFFFFF" d="M14.9,17.596c-0.662,0-1.199,0.536-1.199,1.198v5.126c0,0.662,0.537,1.199,1.199,1.199
			c0.661,0,1.198-0.537,1.198-1.199v-5.126C16.099,18.132,15.562,17.596,14.9,17.596z"/>
		<path fill="#FFFFFF" d="M30.082,17.596c-0.663,0-1.198,0.536-1.198,1.198v5.126c0,0.662,0.536,1.199,1.198,1.199
			c0.662,0,1.198-0.537,1.198-1.199v-5.126C31.28,18.132,30.744,17.596,30.082,17.596z"/>
	</g>
</g>
<path opacity="0.6" fill="#FFFFFF" d="M114.948,17.541c-0.773,0-1.546,0-2.32,0.001C113.236,16.771,114.345,16.771,114.948,17.541z"
	/>
<path opacity="0.6" fill="#FFFFFF" d="M109.694,22.83c0.005,3.587-2.764,6.433-6.293,6.466c-3.565,0.034-6.454-2.875-6.445-6.49
	c0.008-3.491,2.951-6.512,6.394-6.397C107.364,16.542,109.937,19.846,109.694,22.83z M103.268,19.044
	c-2.039,0.025-3.63,1.681-3.618,3.763c0.013,2.026,1.816,3.842,3.797,3.821c1.997-0.021,3.79-1.894,3.747-3.913
	C107.151,20.669,105.384,19.018,103.268,19.044z"/>
<path opacity="0.6" fill="#FFFFFF" d="M42.387,19.449c-2.685,1.584-3.425,3.802-1.895,5.875c1.078,1.461,2.705,1.605,4.338,1.518
	c0.968-0.053,1.384,0.165,1.354,1.252c-0.025,0.948-0.27,1.225-1.235,1.228c-3.965,0.016-6.361-1.438-7.27-4.538
	c-1.127-3.846,1.782-7.777,5.772-7.793c2.049-0.008,4.1,0.059,6.146-0.025c1.061-0.043,1.299,0.329,1.279,1.324
	c-0.061,3.023-0.022,6.049-0.022,9.073c0,2.008,0,2.008-2.06,1.875c-0.106-0.095-0.213-0.19-0.319-0.285
	c-0.025-2.705-0.1-5.41-0.051-8.113c0.02-1.09-0.318-1.445-1.404-1.397c-1.442,0.064-2.893-0.037-4.339-0.066
	C42.504,19.087,42.43,19.205,42.387,19.449z"/>
<path opacity="0.6" fill="#FFFFFF" d="M121.712,16.991c2.267-0.119,4.492-0.109,6.246,1.691c1.845,1.895,2.324,4.105,1.468,6.57
	c-0.855,2.463-2.745,3.751-5.247,4.005c-1.736,0.177-3.506-0.007-5.258,0.054c-1.099,0.039-0.8-0.702-0.838-1.275
	c-0.043-0.661-0.083-1.249,0.926-1.195c1.458,0.076,2.923,0.053,4.383,0.011c1.846-0.053,3.13-0.973,3.688-2.554
	c0.539-1.524,0.127-2.9-1.164-4.054c-0.665-0.594-1.44-0.755-2.291-0.751c-1.559,0.009-3.12-0.042-4.676,0.018
	c-1.066,0.041-0.871-0.663-0.861-1.264c0.009-0.584-0.236-1.339,0.848-1.269C119.858,17.038,120.787,16.991,121.712,16.991z"/>
<path opacity="0.6" fill="#FFFFFF" d="M72.79,16.989c2.332-0.152,4.542-0.027,6.302,1.879c1.787,1.936,2.135,4.13,1.255,6.483
	c-0.894,2.393-2.751,3.743-5.309,3.924c-1.647,0.115-3.312-0.039-4.964,0.043c-1.074,0.054-0.991-0.555-1.022-1.276
	c-0.037-0.828,0.12-1.264,1.1-1.204c1.358,0.084,2.727,0.062,4.088,0.012c2.061-0.074,3.428-1.16,3.951-3.05
	c0.376-1.359-0.362-2.959-1.72-3.841c-0.562-0.365-1.157-0.467-1.8-0.464c-1.412,0.006-2.825-0.032-4.236,0.015
	c-0.887,0.029-1.423-0.024-1.415-1.204c0.009-1.146,0.38-1.444,1.433-1.332C71.225,17.056,72.011,16.989,72.79,16.989z"/>
<path opacity="0.6" fill="#FFFFFF" d="M83.933,25.446c0.002-0.586,0.004-1.171,0.007-1.756c0.095-0.089,0.19-0.178,0.285-0.267
	c1.849-0.021,3.697-0.015,5.544-0.071c1.039-0.031,1.885-0.435,2.216-1.536c0.243-0.809-0.084-1.407-0.676-1.931
	c-0.445-0.393-0.972-0.392-1.511-0.391c-1.558,0.003-3.119-0.063-4.672,0.024c-1.058,0.059-1.291-0.333-1.292-1.324
	c0-0.96,0.265-1.27,1.232-1.226c1.652,0.075,3.311,0.06,4.964,0.011c1.939-0.057,3.275,0.892,4.069,2.528
	c0.807,1.662,0.648,3.374-0.639,4.745c-0.663,0.707-0.774,1.159-0.147,1.893c0.3,0.352,0.493,0.858,0.567,1.321
	c0.098,0.612,0.815,1.53-0.29,1.772c-0.798,0.175-1.866,0.496-2.202-1.029c-0.371-1.681-1.581-2.379-3.365-2.404
	c-1.264-0.019-2.528-0.04-3.792-0.061C84.133,25.646,84.033,25.546,83.933,25.446z"/>
<path opacity="0.6" fill="#FFFFFF" d="M54.098,21.355c0.581-3.474,3.712-5.018,6.141-4.847c3.455,0.243,5.76,2.797,5.796,6.123
	c0.017,1.607,0.003,3.216,0.003,4.824c0,1.912,0,1.912-2.017,1.78c-0.125-0.103-0.25-0.206-0.375-0.31
	c-0.029-1.891-0.069-3.782-0.086-5.673c-0.022-2.457-1.529-4.191-3.677-4.204c-2.163-0.012-3.946,2.127-3.748,4.146
	c0.143,1.443-0.094,2.925,0.061,4.366c0.168,1.561-0.42,1.999-1.837,1.674c-0.117-0.099-0.233-0.197-0.349-0.296
	c-0.132-2.429-0.154-4.857,0.016-7.285C54.193,21.59,54.321,21.516,54.098,21.355z"/>
<path opacity="0.6" fill="#FFFFFF" d="M114.099,29.231c-0.391,0.003-0.783,0.005-1.175,0.008c-0.098-0.093-0.195-0.186-0.293-0.278
	c-0.001-3.807-0.001-7.612-0.002-11.419c0.773-0.001,1.547-0.001,2.32-0.001c-0.001,3.709-0.002,7.419-0.003,11.128
	C114.535,28.664,114.128,28.663,114.099,29.231z"/>
<path opacity="0.6" fill="#FFFFFF" d="M114.099,29.231c0.029-0.568,0.436-0.567,0.846-0.562
	C115.093,29.504,114.526,29.262,114.099,29.231z"/>
<path opacity="0.6" fill="#FFFFFF" d="M42.387,19.449c0.043-0.244,0.118-0.362,0.296-0.074
	C42.584,19.399,42.485,19.424,42.387,19.449z"/>
<path opacity="0.6" fill="#FFFFFF" d="M54.098,21.355c0.223,0.16,0.095,0.234-0.072,0.3C54.05,21.556,54.074,21.456,54.098,21.355z"
	/>
<path opacity="0.6" fill="#FFFFFF" d="M84.225,23.424c-0.095,0.089-0.19,0.178-0.285,0.267
	C83.918,23.476,84.022,23.396,84.225,23.424z"/>
<path opacity="0.6" fill="#FFFFFF" d="M83.933,25.446c0.1,0.1,0.2,0.199,0.299,0.3C84.01,25.77,83.91,25.669,83.933,25.446z"/>
<path opacity="0.6" fill="#FFFFFF" d="M48.476,28.952c0.106,0.095,0.213,0.19,0.319,0.285C48.584,29.26,48.457,29.188,48.476,28.952
	z"/>
<path opacity="0.6" fill="#FFFFFF" d="M54.01,28.94c0.116,0.099,0.232,0.197,0.349,0.296C54.142,29.256,53.994,29.194,54.01,28.94z"
	/>
<path opacity="0.6" fill="#FFFFFF" d="M63.646,28.927c0.125,0.104,0.25,0.207,0.375,0.31C63.796,29.254,63.624,29.208,63.646,28.927
	z"/>
<path opacity="0.6" fill="#FFFFFF" d="M112.631,28.961c0.098,0.093,0.196,0.186,0.293,0.278
	C112.711,29.268,112.607,29.182,112.631,28.961z"/>
</svg>
