<?xml version="1.0" encoding="utf-8"?>
<!-- Generator: Adobe Illustrator 16.0.0, SVG Export Plug-In . SVG Version: 6.00 Build 0)  -->
<!DOCTYPE svg PUBLIC "-//W3C//DTD SVG 1.1//EN" "http://www.w3.org/Graphics/SVG/1.1/DTD/svg11.dtd">
<svg version="1.1" id="Layer_1" xmlns="http://www.w3.org/2000/svg" xmlns:xlink="http://www.w3.org/1999/xlink" x="0px" y="0px"
	 width="83px" height="45.108px" viewBox="0 0 83 45.108" enable-background="new 0 0 83 45.108" xml:space="preserve">
<g opacity="0.6">
	<g>
		<path fill="#FFFFFF" d="M22.015,21.289c-0.029-2.828,2.306-4.184,2.41-4.252c-1.312-1.918-3.356-2.181-4.083-2.211
			c-1.738-0.177-3.393,1.023-4.274,1.023c-0.88,0-2.243-0.998-3.684-0.972c-1.896,0.028-3.643,1.103-4.619,2.8
			c-1.969,3.415-0.504,8.477,1.415,11.249c0.938,1.355,2.056,2.879,3.524,2.823c1.414-0.056,1.948-0.914,3.657-0.914
			c1.71,0,2.19,0.914,3.686,0.886c1.521-0.027,2.486-1.381,3.416-2.741c1.077-1.573,1.52-3.098,1.546-3.175
			C24.977,25.788,22.045,24.665,22.015,21.289z"/>
		<path fill="#FFFFFF" d="M19.204,12.99c0.778-0.944,1.306-2.257,1.162-3.564c-1.123,0.045-2.482,0.747-3.288,1.69
			c-0.723,0.837-1.354,2.171-1.186,3.454C17.146,14.668,18.423,13.934,19.204,12.99z"/>
	</g>
</g>
<path fill="#FFFFFF" d="M44.337,13.499c3.338-0.26,5.915,2.496,6.639,4.994c0.979,3.378,0.924,6.648-1.033,9.719
	c-2.15,3.374-6.215,3.825-8.879,2.398c-1.706-0.914-2.838-2.364-3.458-4.174c-1.028-3.003-1.001-5.992,0.391-8.889
	c0.971-2.021,2.532-3.38,4.739-3.941C43.266,13.472,43.803,13.528,44.337,13.499z M50.855,22.587c0-2.075-0.198-3.157-0.812-4.569
	c-1.293-2.971-4.157-4.457-7.246-3.692c-1.931,0.478-3.321,1.696-4.163,3.48c-1.376,2.915-1.39,5.906-0.206,8.869
	c0.848,2.122,2.364,3.596,4.719,3.915c2.79,0.378,4.977-0.669,6.453-3.069C50.547,25.984,50.941,24.281,50.855,22.587z"/>
<path fill="#FFFFFF" d="M58.472,13.498c0.707-0.073,1.547,0.141,2.345,0.555c0.196,0.102,0.347,0.179,0.224,0.47
	c-0.13,0.305-0.269,0.232-0.486,0.131c-1.359-0.626-2.74-0.832-4.173-0.224c-1.2,0.508-1.983,1.378-2.199,2.654
	c-0.236,1.398,0.298,2.515,1.448,3.355c1.035,0.755,2.248,1.158,3.362,1.752c1.212,0.646,2.377,1.391,2.813,2.782
	c1.144,3.641-1.553,6.306-4.459,6.364c-1.305,0.025-2.582-0.085-3.724-0.799c-0.22-0.137-0.648-0.184-0.422-0.633
	c0.251-0.497,0.525-0.086,0.725,0.024c1.483,0.811,3.032,1.07,4.658,0.556c1.675-0.53,2.564-1.76,2.776-3.451
	c0.204-1.628-0.476-2.876-1.863-3.75c-0.84-0.529-1.754-0.907-2.646-1.33c-0.582-0.276-1.147-0.577-1.671-0.957
	c-1.336-0.97-1.962-2.242-1.674-3.901c0.287-1.651,1.293-2.7,2.804-3.335C56.949,13.493,57.61,13.512,58.472,13.498z"/>
<path fill="#FFFFFF" d="M77.407,14.306c-0.317,0-0.524,0-0.73,0c-3.144-0.004-6.288-0.005-9.432-0.02
	c-0.203-0.001-0.566,0.194-0.543-0.286c0.02-0.424,0.349-0.24,0.532-0.241c3.38-0.026,6.76-0.044,10.14-0.038
	c0.322,0,0.792-0.228,0.962,0.213c0.168,0.438-0.183,0.73-0.486,1.03c-2.229,2.204-4.183,4.614-5.551,7.462
	c-1.235,2.573-1.854,5.29-1.963,8.131c-0.011,0.287,0.031,0.576-0.413,0.541c-0.464-0.036-0.264-0.381-0.258-0.582
	c0.133-4.978,1.937-9.32,5.066-13.141C75.559,16.364,76.449,15.401,77.407,14.306z"/>
<path fill="#FFFFFF" d="M34.539,24.958c0,1.853,0.005,3.707-0.007,5.559c-0.001,0.236,0.153,0.602-0.345,0.583
	c-0.446-0.016-0.307-0.34-0.308-0.563c-0.013-3.685-0.017-7.369-0.024-11.053c0-0.065-0.005-0.13,0.001-0.194
	c0.021-0.221-0.055-0.477,0.335-0.483c0.389-0.006,0.335,0.229,0.335,0.463c0,1.896,0,3.792,0,5.688
	C34.53,24.958,34.534,24.958,34.539,24.958z"/>
<path fill="#FFFFFF" d="M34.782,15.095c-0.031,0.395-0.269,0.614-0.648,0.632c-0.378,0.018-0.529-0.262-0.521-0.587
	c0.008-0.336,0.121-0.652,0.559-0.611C34.504,14.559,34.821,14.638,34.782,15.095z"/>
</svg>
