<?xml version="1.0" encoding="utf-8"?>
<!-- Generator: Adobe Illustrator 16.0.0, SVG Export Plug-In . SVG Version: 6.00 Build 0)  -->
<!DOCTYPE svg PUBLIC "-//W3C//DTD SVG 1.1//EN" "http://www.w3.org/Graphics/SVG/1.1/DTD/svg11.dtd">
<svg version="1.1" id="Layer_1" xmlns="http://www.w3.org/2000/svg" xmlns:xlink="http://www.w3.org/1999/xlink" x="0px" y="0px"
	 width="68.831px" height="61.039px" viewBox="0 0 68.831 61.039" enable-background="new 0 0 68.831 61.039" xml:space="preserve">
<defs>
	<filter id="Adobe_OpacityMaskFilter" filterUnits="userSpaceOnUse" x="13.076" y="8.068" width="46.598" height="46.598">
		
			<feColorMatrix  type="matrix" values="-1 0 0 0 1  0 -1 0 0 1  0 0 -1 0 1  0 0 0 1 0" color-interpolation-filters="sRGB" result="source"/>
		<feFlood  style="flood-color:white;flood-opacity:1" result="back"/>
		<feBlend  in="source" in2="back" mode="normal"/>
	</filter>
</defs>
<mask maskUnits="userSpaceOnUse" x="13.076" y="8.068" width="46.598" height="46.598" id="SVGID_1_">
	<g filter="url(#Adobe_OpacityMaskFilter)">
		<g>
			<defs>
				<path id="SVGID_2_" d="M37.815,39.728c0,2.551,0,5.101,0,7.651c0,0.047,0.002,0.093,0,0.14c-0.002,0.078-0.037,0.125-0.125,0.12
					c-0.03-0.003-0.062,0-0.091,0c-1.91,0-3.817,0-5.724,0c-0.036,0-0.071,0.003-0.106,0c-0.098-0.008-0.155-0.047-0.15-0.154
					c0.003-0.042,0-0.086,0-0.13c0-5.092,0-10.184,0-15.276c0-0.256,0-0.256-0.257-0.256c-0.856,0-1.716,0-2.574-0.001
					c-0.045,0-0.093,0.002-0.14-0.005c-0.072-0.011-0.126-0.044-0.117-0.131c0.001-0.031-0.002-0.061-0.002-0.094
					c0-1.644,0-3.291,0-4.936c0-0.299,0.002-0.299,0.299-0.299c0.86,0,1.724,0,2.585,0c0.201,0,0.206-0.004,0.206-0.203
					c0-0.762,0.007-1.527-0.001-2.291c-0.008-0.529,0.016-1.056,0.036-1.583c0.011-0.254,0-0.516,0.053-0.758
					c0.062-0.296,0.077-0.598,0.147-0.896c0.043-0.176,0.113-0.353,0.125-0.54c0.006-0.119,0.066-0.23,0.104-0.345
					c0.104-0.305,0.221-0.606,0.374-0.891c0.191-0.361,0.416-0.701,0.688-1.009c0.227-0.26,0.477-0.492,0.756-0.692
					c0.217-0.156,0.445-0.304,0.687-0.417c0.27-0.127,0.542-0.248,0.83-0.335c0.187-0.061,0.373-0.116,0.561-0.163
					c0.338-0.08,0.688-0.131,1.035-0.173c0.461-0.06,0.928-0.071,1.392-0.071c1.276,0,2.555,0,3.834,0
					c0.204,0,0.231,0.027,0.231,0.23c0,1.653,0,3.306,0,4.958c0,0.241-0.038,0.277-0.28,0.277c-0.828,0-1.655-0.003-2.481,0.004
					c-0.217,0.001-0.438-0.007-0.653,0.043c-0.3,0.07-0.6,0.15-0.82,0.386c-0.21,0.223-0.32,0.487-0.355,0.793
					c-0.131,1.156-0.035,2.315-0.064,3.472c-0.004,0.203-0.002,0.203,0.202,0.203c1.401,0,2.804,0,4.206,0
					c0.045,0,0.088,0,0.129,0.001c0.11,0.005,0.153,0.051,0.133,0.157c-0.057,0.308-0.067,0.619-0.099,0.929
					c-0.031,0.313-0.062,0.627-0.095,0.941c-0.027,0.311-0.064,0.62-0.092,0.931c-0.031,0.314-0.062,0.626-0.095,0.94
					c-0.032,0.31-0.071,0.619-0.095,0.929c-0.015,0.18-0.035,0.364-0.077,0.542c-0.013,0.059-0.038,0.093-0.1,0.094
					c-0.039,0-0.077,0.001-0.117,0.001c-1.234,0-2.468,0-3.704,0c-0.193,0-0.199,0.004-0.199,0.196
					C37.815,34.587,37.815,37.157,37.815,39.728z"/>
			</defs>
			<clipPath id="SVGID_3_">
				<use xlink:href="#SVGID_2_"  overflow="visible"/>
			</clipPath>
			<path clip-path="url(#SVGID_3_)" fill="#FEFEFE" d="M36.375,54.872c-7.799,0-15.598,0-23.397,0.002
				c-0.087,0-0.111-0.02-0.111-0.107c0.004-15.601,0.004-31.199,0-46.799c0-0.087,0.023-0.107,0.111-0.107
				c15.598,0.003,31.198,0.003,46.796,0c0.089,0,0.107,0.02,0.107,0.107c-0.002,15.6-0.002,31.198,0,46.799
				c0,0.088-0.019,0.107-0.107,0.107C51.974,54.872,44.176,54.872,36.375,54.872z"/>
		</g>
	</g>
</mask>
<path mask="url(#SVGID_1_)" fill="#932424" d="M59.674,31.376C59.67,44.24,49.244,54.657,36.375,54.666
	c-12.869,0.006-23.324-10.468-23.299-23.348c0.025-12.835,10.462-23.25,23.305-23.25C49.234,8.068,59.688,18.515,59.674,31.376z"/>
</svg>
