<?xml version="1.0" encoding="utf-8"?>
<!-- Generator: Adobe Illustrator 16.0.0, SVG Export Plug-In . SVG Version: 6.00 Build 0)  -->
<!DOCTYPE svg PUBLIC "-//W3C//DTD SVG 1.1//EN" "http://www.w3.org/Graphics/SVG/1.1/DTD/svg11.dtd">
<svg version="1.1" id="Layer_1" xmlns="http://www.w3.org/2000/svg" xmlns:xlink="http://www.w3.org/1999/xlink" x="0px" y="0px"
	 width="72px" height="72px" viewBox="0 0 72 72" enable-background="new 0 0 72 72" xml:space="preserve">
<defs>
	<filter id="Adobe_OpacityMaskFilter" filterUnits="userSpaceOnUse" x="11.91" y="12.046" width="49.228" height="49.228">
		
			<feColorMatrix  type="matrix" values="-1 0 0 0 1  0 -1 0 0 1  0 0 -1 0 1  0 0 0 1 0" color-interpolation-filters="sRGB" result="source"/>
		<feFlood  style="flood-color:white;flood-opacity:1" result="back"/>
		<feBlend  in="source" in2="back" mode="normal"/>
	</filter>
</defs>
<mask maskUnits="userSpaceOnUse" x="11.91" y="12.046" width="49.228" height="49.228" id="SVGID_1_">
	<g filter="url(#Adobe_OpacityMaskFilter)">
		<g>
			<defs>
				<path id="SVGID_2_" d="M38.047,45.491c0,2.694,0,5.389,0,8.083c0,0.05,0.002,0.099-0.001,0.148
					c-0.003,0.083-0.04,0.132-0.131,0.126c-0.032-0.001-0.065,0-0.099,0c-2.018,0-4.031,0-6.046,0c-0.04,0-0.075,0.003-0.112,0
					c-0.103-0.006-0.164-0.049-0.158-0.162c0.004-0.045,0-0.091,0-0.137c0-5.379,0-10.759,0-16.14c0-0.271,0-0.271-0.271-0.271
					c-0.906,0-1.813,0-2.72-0.001c-0.049,0-0.1,0.003-0.147-0.005c-0.077-0.012-0.134-0.047-0.124-0.139
					c0.002-0.033-0.002-0.065-0.002-0.1c0-1.736,0-3.477,0-5.215c0-0.315,0.002-0.315,0.315-0.315c0.909,0,1.821,0,2.731,0
					c0.211,0,0.217-0.005,0.217-0.214c0-0.806,0.008-1.613-0.002-2.421c-0.007-0.558,0.019-1.114,0.039-1.672
					c0.011-0.268,0-0.544,0.056-0.8c0.066-0.312,0.08-0.633,0.156-0.946c0.046-0.187,0.119-0.372,0.132-0.571
					c0.008-0.125,0.071-0.242,0.111-0.363c0.107-0.322,0.232-0.641,0.394-0.941c0.202-0.382,0.438-0.741,0.728-1.066
					c0.239-0.275,0.504-0.52,0.8-0.73c0.229-0.165,0.471-0.322,0.726-0.441c0.285-0.135,0.572-0.262,0.876-0.355
					c0.196-0.062,0.394-0.121,0.592-0.17c0.359-0.085,0.728-0.139,1.094-0.184c0.488-0.062,0.979-0.074,1.472-0.074
					c1.348,0,2.698,0,4.048,0c0.218,0,0.246,0.028,0.246,0.242c0,1.747,0,3.494,0,5.239c0,0.254-0.04,0.292-0.296,0.292
					c-0.875,0-1.749-0.004-2.622,0.004c-0.23,0.002-0.464-0.008-0.689,0.046c-0.317,0.074-0.634,0.158-0.868,0.407
					c-0.221,0.235-0.338,0.514-0.375,0.838c-0.137,1.221-0.038,2.445-0.066,3.668c-0.006,0.214-0.002,0.214,0.212,0.214
					c1.48,0,2.963,0,4.444,0c0.045,0,0.092-0.001,0.136,0.002c0.118,0.006,0.162,0.054,0.141,0.166
					c-0.06,0.325-0.072,0.653-0.104,0.981c-0.032,0.331-0.066,0.662-0.1,0.994c-0.031,0.328-0.068,0.654-0.098,0.983
					c-0.032,0.331-0.066,0.661-0.101,0.993c-0.034,0.327-0.073,0.653-0.099,0.98c-0.016,0.191-0.039,0.385-0.082,0.574
					c-0.015,0.062-0.041,0.098-0.106,0.099c-0.04,0-0.082,0.001-0.124,0.001c-1.303,0-2.606,0-3.911,0
					c-0.206,0-0.21,0.004-0.21,0.207C38.047,40.062,38.047,42.776,38.047,45.491z"/>
			</defs>
			<clipPath id="SVGID_3_">
				<use xlink:href="#SVGID_2_"  overflow="visible"/>
			</clipPath>
			<path clip-path="url(#SVGID_3_)" fill="#FEFEFE" d="M36.525,61.492c-8.24,0-16.479,0-24.719,0.002
				c-0.093,0-0.115-0.022-0.115-0.115c0.003-16.48,0.003-32.958,0-49.438c0-0.094,0.022-0.113,0.115-0.113
				c16.479,0.002,32.959,0.002,49.438,0c0.094,0,0.115,0.02,0.115,0.113c-0.003,16.48-0.003,32.958,0,49.438
				c0,0.093-0.021,0.115-0.115,0.115C53.004,61.492,44.766,61.492,36.525,61.492z"/>
		</g>
	</g>
</mask>
<path mask="url(#SVGID_1_)" fill="#FFFFFF" d="M61.138,36.669c-0.003,13.59-11.019,24.597-24.612,24.604
	C22.928,61.28,11.885,50.215,11.91,36.607c0.026-13.559,11.053-24.562,24.62-24.562C50.109,12.046,61.154,23.082,61.138,36.669z"/>
</svg>
