<?xml version="1.0" encoding="utf-8"?>
<!-- Generator: Adobe Illustrator 16.0.0, SVG Export Plug-In . SVG Version: 6.00 Build 0)  -->
<!DOCTYPE svg PUBLIC "-//W3C//DTD SVG 1.1//EN" "http://www.w3.org/Graphics/SVG/1.1/DTD/svg11.dtd">
<svg version="1.1"
	 id="svg2" xmlns:sodipodi="http://sodipodi.sourceforge.net/DTD/sodipodi-0.dtd" xmlns:dc="http://purl.org/dc/elements/1.1/" xmlns:rdf="http://www.w3.org/1999/02/22-rdf-syntax-ns#" xmlns:cc="http://creativecommons.org/ns#" xmlns:svg="http://www.w3.org/2000/svg" xmlns:inkscape="http://www.inkscape.org/namespaces/inkscape"
	 xmlns="http://www.w3.org/2000/svg" xmlns:xlink="http://www.w3.org/1999/xlink" x="0px" y="0px" width="136px" height="134.667px"
	 viewBox="0 0 136 134.667" enable-background="new 0 0 136 134.667" xml:space="preserve">
<circle fill="none" stroke="#96131F" stroke-width="1.9167" stroke-miterlimit="10" enable-background="new    " cx="67" cy="67.333" r="63.891"/>
<rect x="24.713" y="18.638" fill="none" width="89.182" height="89.182"/>
<path fill="#96131F" d="M94.782,30.786v5.574c0,3.075-2.499,5.574-5.575,5.574c-3.073,0-5.573-2.499-5.573-5.574v-5.574h-8.36v5.574
	c0,3.075-2.496,5.574-5.571,5.574s-5.574-2.499-5.574-5.574v-5.574h-8.362v5.574c0,3.075-2.499,5.574-5.574,5.574
	c-3.075,0-5.574-2.499-5.574-5.574v-5.574H41.83c-6.157,0-11.148,4.992-11.148,11.148v50.165c0,6.156,4.992,11.148,11.148,11.148
	h52.952c6.155,0,11.147-4.992,11.147-11.148V41.934C105.928,35.777,100.938,30.786,94.782,30.786z M100.354,92.098
	c0,3.075-2.498,5.575-5.57,5.575H41.83c-3.076,0-5.574-2.5-5.574-5.575V53.081h64.1v39.017H100.354z M50.19,25.211
	c-1.54,0-2.787,1.247-2.787,2.788v8.361c0,1.54,1.247,2.787,2.787,2.787c1.541,0,2.787-1.247,2.787-2.787v-8.361
	C52.977,26.458,51.73,25.211,50.19,25.211z M89.206,25.211c-1.539,0-2.785,1.247-2.785,2.788v8.361c0,1.54,1.246,2.787,2.785,2.787
	c1.541,0,2.788-1.247,2.788-2.787v-8.361C91.994,26.458,90.747,25.211,89.206,25.211z M69.699,25.211
	c-1.541,0-2.787,1.247-2.787,2.788v8.361c0,1.54,1.246,2.787,2.787,2.787s2.787-1.247,2.787-2.787v-8.361
	C72.486,26.458,71.24,25.211,69.699,25.211z M64.125,58.655h-5.574c-1.54,0-2.787,1.246-2.787,2.787v2.787
	c0,1.541,1.247,2.787,2.787,2.787h5.574c1.54,0,2.787-1.246,2.787-2.787v-2.787C66.911,59.901,65.665,58.655,64.125,58.655z
	 M78.059,58.655h-5.572c-1.541,0-2.786,1.246-2.786,2.787v2.787c0,1.541,1.245,2.787,2.786,2.787h5.572
	c1.541,0,2.787-1.246,2.787-2.787v-2.787C80.846,59.901,79.6,58.655,78.059,58.655z M91.994,58.655H86.42
	c-1.541,0-2.787,1.246-2.787,2.787v2.787c0,1.541,1.246,2.787,2.787,2.787h5.573c1.54,0,2.786-1.246,2.786-2.787v-2.787
	C94.782,59.901,93.534,58.655,91.994,58.655z M64.125,69.802h-5.574c-1.54,0-2.787,1.246-2.787,2.787v2.787
	c0,1.541,1.247,2.787,2.787,2.787h5.574c1.54,0,2.787-1.246,2.787-2.787v-2.787C66.911,71.048,65.665,69.802,64.125,69.802z
	 M50.19,69.802h-5.574c-1.541,0-2.787,1.246-2.787,2.787v2.787c0,1.541,1.246,2.787,2.787,2.787h5.574
	c1.541,0,2.787-1.246,2.787-2.787v-2.787C52.977,71.048,51.73,69.802,50.19,69.802z M78.059,69.802h-5.572
	c-1.541,0-2.786,1.246-2.786,2.787v2.787c0,1.541,1.245,2.787,2.786,2.787h5.572c1.541,0,2.787-1.246,2.787-2.787v-2.787
	C80.846,71.048,79.6,69.802,78.059,69.802z M91.994,69.802H86.42c-1.541,0-2.787,1.246-2.787,2.787v2.787
	c0,1.541,1.246,2.787,2.787,2.787h5.573c1.54,0,2.786-1.246,2.786-2.787v-2.787C94.782,71.048,93.534,69.802,91.994,69.802z
	 M50.19,80.951h-5.574c-1.541,0-2.787,1.248-2.787,2.786v2.788c0,1.54,1.246,2.787,2.787,2.787h5.574
	c1.541,0,2.787-1.247,2.787-2.787v-2.788C52.977,82.199,51.73,80.951,50.19,80.951z M64.125,80.951h-5.574
	c-1.54,0-2.787,1.248-2.787,2.786v2.788c0,1.54,1.247,2.787,2.787,2.787h5.574c1.54,0,2.787-1.247,2.787-2.787v-2.788
	C66.911,82.199,65.665,80.951,64.125,80.951z M78.059,80.951h-5.572c-1.541,0-2.786,1.248-2.786,2.786v2.788
	c0,1.54,1.245,2.787,2.786,2.787h5.572c1.541,0,2.787-1.247,2.787-2.787v-2.788C80.846,82.199,79.6,80.951,78.059,80.951z"/>
</svg>
