<?xml version="1.0" encoding="utf-8"?>
<!-- Generator: Adobe Illustrator 16.0.0, SVG Export Plug-In . SVG Version: 6.00 Build 0)  -->
<!DOCTYPE svg PUBLIC "-//W3C//DTD SVG 1.1//EN" "http://www.w3.org/Graphics/SVG/1.1/DTD/svg11.dtd">
<svg version="1.1"
	 id="svg2" xmlns:sodipodi="http://sodipodi.sourceforge.net/DTD/sodipodi-0.dtd" xmlns:dc="http://purl.org/dc/elements/1.1/" xmlns:rdf="http://www.w3.org/1999/02/22-rdf-syntax-ns#" xmlns:cc="http://creativecommons.org/ns#" xmlns:svg="http://www.w3.org/2000/svg" xmlns:inkscape="http://www.inkscape.org/namespaces/inkscape"
	 xmlns="http://www.w3.org/2000/svg" xmlns:xlink="http://www.w3.org/1999/xlink" x="0px" y="0px" width="136px" height="134.667px"
	 viewBox="0 0 136 134.667" enable-background="new 0 0 136 134.667" xml:space="preserve">
<circle fill="none" stroke="#96131F" stroke-width="1.9167" stroke-miterlimit="10" enable-background="new    " cx="68" cy="65.891" r="63.891"/>
<g>
	<path fill="#96131F" d="M35.734,48.512c-0.345-0.016-0.863-0.196-0.931,0.357c-0.089,0.696,0.517,0.622,0.887,0.739
		c0.248,0.079,0.518,0.079,0.779,0.099c14.15,1.142,28.306,1.829,42.505,1.587c7.932-0.561,15.864-1.123,23.808-1.678
		c0.366-0.024,0.888-0.228,1.155,0.025c0.121-0.321,0.4-0.576,0.849-0.576c0.034,0,0.062,0.009,0.096,0.012
		c0.029-0.108,0.08-0.206,0.146-0.295c-0.09-0.314-0.043-0.667,0.181-0.913c-0.092-0.315-0.04-0.679,0.165-0.934
		c-0.165-0.148-0.239-0.397-0.244-0.657c-0.011-0.615,0.09-1.236,0.062-1.852c-0.002-0.107-0.016-0.21-0.021-0.315
		c-0.723-1.112-1.604-1.842-2.795-2.298c-1.306,0.234-2.31-0.355-3.419-1.03c-8.688-5.309-17.169-11.098-25.994-16.085
		c-0.365-0.206-0.756-0.514-0.972-0.896c-1.082-1.935-3.243-2.574-4.699-1.007c-2.285,2.447-5.077,3.87-7.695,5.594
		C53.198,32.609,46.67,36.54,40.21,40.62c-1.113,0.699-2.066,1.39-3.458,0.573c-1.119-0.657-2.174,0.174-2.658,1.531
		c-0.368,0.998,0.348,1.953,0.924,2.035c2.274,0.323,5.001,1.357,6.775,0.296c3.733-2.24,6.914-5.751,10.467-8.475
		c0.792-0.615-0.962-1.455,0.322-1.356c1.034,0.076,1.778-0.566,2.549-1.219c2.463-2.105,4.915-4.214,7.396-6.284
		c0.5-0.414,1.086-0.678,1.633-1.012c-0.09,0.856-0.762,1.1-1.213,1.527c-2.25,2.123-4.539,4.184-6.81,6.282
		c-0.793,0.741-0.799,1.043-0.281,1.043c1.292,0,2.658,0.549,3.753-1.043c1.56-2.25,3.265-4.361,4.96-6.475
		c0.391-0.49,0.817-1.571,1.352-1.13c0.322,0.27-0.495,1.196-0.875,1.754c-1.31,1.93-2.676,3.811-3.994,5.743
		c-0.268,0.393-1.031,1.058-0.024,1.324c1.119,0.298,2.311,0.691,3.002-1.226c0.9-2.503,2.067-4.863,3.14-7.274
		c0.082-0.191,0.299-0.296,0.452-0.447c-0.027,0.229-0.019,0.468-0.089,0.673c-0.782,2.298-1.581,4.587-2.363,6.888
		c-0.164,0.485-0.657,1.014-0.204,1.508c0.44,0.479,1.072,0.448,1.646,0.346c0.63-0.115,0.57-0.76,0.662-1.298
		c0.41-2.495,0.832-4.983,1.266-7.47c0.037-0.227,0.168-0.62,0.245-0.62c0.395,0.022,0.287,0.447,0.265,0.705
		c-0.204,2.34-0.448,4.681-0.657,7.026c-0.06,0.661-0.503,1.545,0.571,1.7c1.08,0.154,1.212-0.612,1.163-1.607
		c-0.126-2.354-0.252-4.706-0.346-7.063c-0.014-0.304-0.168-0.739,0.227-0.937c0.086,0.28,0.223,0.553,0.256,0.845
		c0.336,2.515,0.635,5.034,0.963,7.547c0.242,1.822,1.479,1.422,2.336,1.167c1.133-0.327,0.203-1.221,0.039-1.753
		c-0.701-2.333-1.531-4.613-2.232-6.943c-0.162-0.533-0.729-1.276-0.237-1.659c0.263-0.203,0.665,0.756,0.886,1.298
		c1.104,2.738,2.205,5.48,3.318,8.217c0.68,1.668,2.146,1.184,2.854,0.726c0.91-0.58-0.277-1.378-0.629-1.944
		c-1.528-2.444-3.147-4.805-4.707-7.215c-0.207-0.326-0.299-0.762-0.444-1.146c0.557-0.225,0.719,0.393,0.959,0.708
		c2.089,2.778,4.146,5.588,6.222,8.391c0.562,0.763,1.156,1.479,2.121,1.291c0.454-0.085,1.062-0.081,1.212-0.66
		c0.138-0.513-0.415-0.765-0.722-1.074c-2.084-2.076-4.186-4.127-6.24-6.24c-0.385-0.4-1.046-0.63-0.988-1.486
		c0.439,0.291,0.93,0.512,1.322,0.874c5.082,4.641,10.238,9.154,15.166,14.005c2.865,2.815,5.665,4.905,9.54,3.512
		c0.633-0.233,1.354-0.131,2.033-0.147c0.396-0.004,1.007-0.175,1.058,0.445c0.067,0.814-0.635,0.646-1.049,0.709
		c-4.564,0.719-9.163,0.994-13.76,1.223c-17.788,0.872-35.556,0.292-53.309-1.191c-0.517-0.05-1.451-0.453-1.496,0.278"/>
	<path fill="#96131F" d="M104.753,52.32c-0.36-0.023-0.603-0.372-0.741-0.839c-0.224,0.575-0.771,0.375-1.111,0.45
		c-2.549,0.535-5.104,1.051-7.664,1.415c-15.412,2.245-30.837,1.913-46.262,0.196c-4.334-0.487-8.664-1.077-13-1.594
		c-0.453-0.06-1.158-0.384-1.191,0.885c-0.05,1.414,0.692,1.035,1.117,1.133c1.557,0.384,3.117,0.768,4.684,0.996
		c21.168,3.002,42.334,2.798,63.484-0.93c0.334-0.066,0.664-0.022,0.785-0.809c0.02-0.112,0.037-0.204,0.058-0.309
		C104.838,52.737,104.786,52.538,104.753,52.32z"/>
	<path fill="#96131F" d="M69.495,91.403c-10.885,0.325-21.74-1.263-32.591-2.956c-0.366-0.059-0.74-0.09-1.093-0.267
		c-0.475-0.246-1.314,0.062-1.25-1.511c0.064-1.728,0.85-0.864,1.327-0.778c19.259,2.976,38.533,4.678,57.833,1.711
		c3.023-0.468,6.041-1.259,9.063-1.876c0.428-0.087,1.104-1.081,1.212,0.501c0.134,1.938-0.691,1.547-1.139,1.651
		c-9.584,2.095-19.189,3.396-28.817,3.522C72.531,91.416,71.007,91.403,69.495,91.403"/>
	<path fill="#96131F" d="M69.656,64.479c-11.088,0.509-22.149-1.362-33.208-3.381c-0.21-0.045-0.424-0.045-0.625-0.171
		c-0.389-0.219-1.037-0.015-1.011-1.412c0.022-2.02,0.706-1.202,1.111-1.148c4.959,0.65,9.92,1.285,14.877,2.041
		c13.949,2.105,27.896,2.15,41.841,0.02c3.342-0.521,6.676-1.332,10.012-1.938c0.471-0.103,1.271-1.277,1.359,0.562
		c0.111,2.35-0.837,1.688-1.312,1.795C91.707,63.303,80.688,64.93,69.656,64.479"/>
	<path fill="#96131F" d="M70.189,70.824c-11.359,0.204-22.264-1.205-33.163-2.713c-0.209-0.033-0.421-0.016-0.621-0.133
		c-0.577-0.309-1.621,0.133-1.571-1.347c0.068-1.88,1.02-0.773,1.571-0.695c21.82,2.989,43.637,4.437,65.465,0.244
		c0.727-0.138,1.938-1.949,2.132,0.339c0.119,1.49-1.366,1.314-2.146,1.447C91.174,69.75,80.479,71.064,70.189,70.824"/>
	<path fill="#96131F" d="M69.445,77.242c-10.903,0.5-21.968-0.896-33.021-2.517c-0.577-0.078-1.623,0.329-1.583-1.173
		c0.037-1.732,1.031-0.852,1.583-0.774c14.504,1.91,29.021,2.933,43.554,2.513c7.588-0.22,15.142-1.293,22.701-2.506
		c0.494-0.091,1.399-1.099,1.461,0.516c0.08,1.953-0.953,1.162-1.469,1.258C91.677,76.514,80.663,77.664,69.445,77.242"/>
	<path fill="#96131F" d="M69.531,84.884c-11.141,0.566-22.247-1.303-33.35-3.18c-0.514-0.095-1.415,0.416-1.359-1.584
		c0.05-1.615,0.883-0.832,1.359-0.763c14.504,2.167,29.016,3.772,43.551,3.155c7.688-0.338,15.343-1.631,23.008-3.111
		c0.484-0.082,1.365-1.393,1.4,0.818c0.041,1.932-0.912,1.256-1.412,1.357C91.677,83.774,80.625,85.402,69.531,84.884"/>
	<path fill="#96131F" d="M69.799,97.535c-10.827,0.295-21.631-0.744-32.433-2.595c-0.516-0.092-1.316-0.032-1.287-1.319
		c0.041-1.604,0.854-0.83,1.294-0.767c14.144,2.045,28.3,2.964,42.475,2.552c7.752-0.216,15.461-1.343,23.176-2.701
		c0.471-0.072,1.273-0.971,1.328,0.621c0.078,1.924-0.85,1.229-1.334,1.313C91.965,96.66,80.895,97.884,69.799,97.535"/>
	<path fill="#96131F" d="M47.537,45.753c-0.996-0.257-2.129,0.449-3.094-0.402c0.782-0.793,1.54-1.628,2.353-2.374
		c1.976-1.826,3.97-3.613,5.959-5.415c0.292-0.257,0.558-0.579,0.892-0.75c1.246-0.641,2.712-0.698,3.693,0.135
		c0.438,0.369-0.924,1.619-1.493,2.436c-0.894,1.286-1.961,2.402-2.82,3.725C51.62,45.291,50.029,46.735,47.537,45.753"/>
	<path fill="#96131F" d="M56.186,46.305c-0.918-0.097-2.388,0.557-2.741-0.346c-0.436-1.094,0.929-1.959,1.529-2.898
		c1.098-1.727,2.315-3.348,3.482-5.012c0.372-0.524,0.762-1.085,1.406-1.021c0.87,0.087,2.058-0.096,2.518,0.487
		c0.542,0.685-0.389,1.724-0.714,2.597c-0.429,1.125-0.982,2.191-1.341,3.346C59.607,45.781,58.5,47.187,56.186,46.305"/>
	<path fill="#96131F" d="M82.208,46.328c-1.923,0.754-2.987-0.465-3.627-2.719c-0.354-1.284-1-2.45-1.433-3.708
		c-0.266-0.765-1.209-1.773-0.237-2.356c0.892-0.541,2.237-0.86,3.057,0.273c1.692,2.349,3.253,4.844,4.847,7.291
		c0.559,0.846,0.271,1.219-0.551,1.219C83.641,46.328,83.012,46.328,82.208,46.328"/>
	<path fill="#96131F" d="M89.971,45.924c-1.445,0.589-2.591-0.274-3.615-1.861c-1.107-1.712-2.422-3.237-3.568-4.917
		c-0.391-0.562-1.514-1.158-0.771-1.965c0.658-0.715,1.771-1.157,2.733-0.222c1.048,1.015,2.089,2.046,3.128,3.074
		c1.482,1.465,2.973,2.915,4.441,4.396c0.295,0.298,0.521,0.703,0.783,1.054c-0.383,0.104-0.766,0.241-1.151,0.292
		C91.379,45.854,90.802,45.868,89.971,45.924"/>
	<path fill="#96131F" d="M74.643,46.469c-1.895,0.644-2.513-0.733-2.562-2.977c-0.017-1.104-0.287-2.199-0.312-3.31
		c-0.031-0.91-0.742-2.192,0.711-2.525c1.25-0.288,2.361-0.382,2.795,1.566c0.316,1.422,0.873,2.773,1.328,4.153
		C77.633,46.446,77.639,46.446,74.643,46.469"/>
	<path fill="#96131F" d="M63.438,46.456c-2.758-0.01-2.758-0.01-1.732-2.795c0.586-1.582,1.296-3.114,1.72-4.751
		c0.471-1.8,1.539-1.92,2.688-1.57c1.267,0.39,0.478,1.657,0.435,2.491c-0.062,1.282-0.423,2.542-0.527,3.83
		C65.856,45.776,65.225,47.096,63.438,46.456"/>
	<path fill="#96131F" d="M70.707,42.747c0.023,0.559-0.014,1.134,0.085,1.672c0.39,2.145-0.737,2.05-1.993,2.112
		c-1.472,0.065-1.615-0.747-1.415-2.169c0.272-1.894,0.425-3.807,0.624-5.715c0.08-0.787,0.38-1.201,1.11-1.207
		c0.763-0.003,1.198,0.327,1.282,1.238c0.113,1.355,0.23,2.708,0.347,4.068C70.73,42.747,70.718,42.747,70.707,42.747"/>
</g>
</svg>
