<?xml version="1.0" encoding="utf-8"?>
<!-- Generator: Adobe Illustrator 16.0.0, SVG Export Plug-In . SVG Version: 6.00 Build 0)  -->
<!DOCTYPE svg PUBLIC "-//W3C//DTD SVG 1.1//EN" "http://www.w3.org/Graphics/SVG/1.1/DTD/svg11.dtd">
<svg version="1.1"
	 id="svg2" xmlns:sodipodi="http://sodipodi.sourceforge.net/DTD/sodipodi-0.dtd" xmlns:dc="http://purl.org/dc/elements/1.1/" xmlns:rdf="http://www.w3.org/1999/02/22-rdf-syntax-ns#" xmlns:cc="http://creativecommons.org/ns#" xmlns:svg="http://www.w3.org/2000/svg" xmlns:inkscape="http://www.inkscape.org/namespaces/inkscape"
	 xmlns="http://www.w3.org/2000/svg" xmlns:xlink="http://www.w3.org/1999/xlink" x="0px" y="0px" width="136px" height="134.667px"
	 viewBox="0 0 136 134.667" enable-background="new 0 0 136 134.667" xml:space="preserve">
<circle fill="none" stroke="#96131F" stroke-width="1.9167" stroke-miterlimit="10" enable-background="new    " cx="68" cy="67.334" r="63.892"/>
<g>
	<path fill="#96131F" d="M98.34,68.619c0.244-0.693,0.492-1.389,0.77-2.151c0.699,0.358,0.629,1.246,1.22,1.63
		c0.229,0.149,0.457,0.348,0.709,0.187c0.254-0.162,0.241-0.441,0.146-0.723c-0.244-0.751-0.707-1.319-1.365-1.72
		c-0.465-0.272-0.807-0.594-0.596-1.162c0.164-0.419,0.318-1.251,0.739-1.027c0.631,0.349,1.354,0.871,1.608,1.662
		c0.502,1.614,0.639,1.741,1.646,0.403c0.988-1.314,2.392-1.075,3.687-1.554c-1.158-0.394-2.33-0.625-3.418-0.051
		c-1.467,0.774-1.896-0.494-2.517-1.213c-0.43-0.505,0.205-0.579,0.544-0.605c1.229-0.095,2.434-0.467,3.715-0.196
		c-0.65,0.175-1.275,0.342-1.902,0.506c-0.373,0.105-0.854,0.224-0.701,0.693c0.211,0.665,0.886,0.406,1.218,0.225
		c1.118-0.594,2.233-0.938,3.522-0.795c1.883,0.206,3.752,2.066,3.988,3.92c0.246,1.917,0.407,3.848,1.098,5.713
		c0.312,0.854,0.117,1.893,0.213,2.846c0.029,0.229,0.291,0.43,0.445,0.646l-0.051,9.02c-0.99,1.246-1.144,2.836-1.621,4.276
		c-0.316,0.99-0.629,1.688-1.822,1.522c-0.455-0.059-0.914,0.105-1.146,0.47c-0.849,1.294-2.131,0.741-3.24,0.78
		c-0.758,0.037-0.512-0.574-0.258-0.883c0.471-0.58,0.998-1.127,1.815-1.24c0.687-0.102,0.927-0.6,0.711-1.172
		c-0.271-0.733-0.841-0.451-1.341-0.194c-1.079,0.549-1.729,1.571-2.504,2.437c-1.021,1.135-3.116,1.271-4.002,0.037
		c-0.52-0.722-1.067-1.443-1.334-2.425c1.396,0.104,2.22,1.085,3.203,1.726c0.584,0.375,0.765,0.502,1.228-0.334
		c0.731-1.322,1.881-2.426,2.897-3.576c0.359-0.405,0.918-0.807,0.467-1.311c-0.396-0.436-0.985,0.062-1.258,0.352
		c-0.856,0.932-2.143,1.467-2.625,2.729c-0.291,0.762-0.646,0.744-1.328,0.406c-1.051-0.528-1.502-1.932-3.037-1.844
		c-0.354,0.025-0.428-1.473-0.139-2.051c0.312-0.646,0.994,0.008,1.471,0.228c0.646,0.299,0.638,1.086,1.05,1.569
		c0.304,0.369,0.608,0.791,1.17,0.717c0.353-0.041,0.593-0.295,0.616-0.646c0.048-0.545,0-1.267-0.564-1.368
		c-1.593-0.295-1.92-2.521-3.802-2.34c-0.384,0.037-0.272-0.613-0.347-0.964c-0.141-0.657,0.123-1.396-0.469-2.099
		c-0.77,1.078-0.334,2.187-0.301,3.225c0.033,0.896,0.369,1.794-0.479,2.543c-0.2,0.186-0.344,0.618-0.282,0.896
		c0.524,2.642-1.369,4.701-1.654,7.162c-0.205,1.746-2.17,3.08-3.883,2.881c-0.418-0.049-0.83,0.066-1.043,0.332
		c-1.17,1.429-2.688,0.963-4.185,0.957c-0.013-0.709,0.435-0.979,0.91-1.196c0.982-0.462,0.592-1.246,0.232-1.746
		c-0.461-0.651-0.905-0.104-1.25,0.327c-0.65,0.82-1.79,1.072-2.254,2.188c-0.213,0.496-0.864,0.174-1.271-0.354
		c-0.732-0.971-1.896-1.503-2.73-2.414c-0.471-0.52-1.301-0.936-1.987-0.979c-1.942-0.127-1.485-1.336-1.321-2.744
		c0.885,0.908,1.605,1.699,2.396,2.429c0.396,0.377,0.935,1.006,1.478,0.43c0.399-0.438-0.012-0.995-0.426-1.388
		c-1.277-1.205-2.316-2.686-4.076-3.35c-0.488-0.185-0.576-0.879-0.617-1.414c-0.08-1.16-0.133-2.328-0.211-3.729
		c1.146,1.171,1.418,2.62,2.344,3.656c0.477,0.531,0.867,1.347,1.598,0.852c0.861-0.591,0.068-1.152-0.348-1.701
		c-0.666-0.896-1.238-1.861-1.865-2.785c-0.266-0.396-0.512-1.016-0.873-1.103c-2.609-0.646-1.475-2.512-1.395-4.028
		c0.021-0.474,0.07-0.938,0.121-1.572c1.086,0.684,1.125,1.783,1.527,2.646c0.245,0.528,0.348,1.127,0.739,1.594
		c0.34,0.406,0.526,1.291,1.272,0.711c0.557-0.428,0.885-1.147,0.195-1.797c-1.332-1.256-2.109-2.936-3.285-4.309
		c-0.527-0.639-0.803-1.324-0.461-2.061c0.4-0.86,0.402-1.744,0.289-2.809c1.598,0.579,1.793,1.903,2.193,3.062
		c0.162,0.441,0.106,1.017,0.734,1.103c0.359,0.048,0.598-0.241,0.725-0.536c0.197-0.436,0.377-0.844-0.025-1.328
		c-1.121-1.326-1.344-3.269-2.996-4.269c-0.514-0.308-0.207-0.981-0.096-1.5c0.195-0.924,0.088-1.908,0.539-2.931
		c0.984,0.803,1.809,1.492,1.977,2.72c0.062,0.436,0.199,1.091,0.836,0.957c0.641-0.14,0.732-0.787,0.615-1.319
		c-0.23-1.047-0.6-2.054-1.545-2.711c-0.664-0.467-1.586-0.75-1.182-2.039c-1.734,2.332-2.461,4.872-2.654,7.438
		c-0.572,7.16-1.174,14.363,1.035,21.396c0.539,1.733,0.773,3.561,1.568,5.213c0.135,0.283,0.354,0.689-0.004,0.836
		c-0.646,0.271-1.418,0.336-2.037,0.041c-0.645-0.305,0.051-0.56,0.23-0.802c0.188-0.263,0.129-0.493-0.043-0.719
		c-0.201-0.263-0.453-0.236-0.714-0.097c-0.566,0.299-1.354,0.461-1.657,0.934c-0.547,0.872-1.284,0.675-2.061,0.818
		c-1.731,0.33-2.167-1.021-2.912-2.012l-0.037,0.037c0.9-0.562,1.305-1.146,0.137-1.871c-0.316-0.189-0.518-0.568-0.84-0.729
		c-4.602-2.25-4.802-6.415-4.671-10.721c0.014-0.418,0.055-0.834,0.092-1.401c1.02,0.604,0.891,1.84,1.664,2.394
		c0.336,0.236,0.434,1.059,1.037,0.654c0.572-0.382,0.531-0.979,0.098-1.537c-0.838-1.1-1.473-2.438-2.52-3.259
		c-1.041-0.815-1.164-1.677-1.098-2.765c0.055-0.91,0.121-1.817,0.191-2.842c1.264,0.451,1.061,1.688,1.533,2.479
		c0.328,0.543,0.373,1.282,1.16,1.386c0.41,0.047,0.732-0.223,0.918-0.564c0.416-0.771-0.025-1.295-0.547-1.822
		c-1.002-1.018-1.461-2.458-2.693-3.312c-0.555-0.392-0.088-0.994-0.012-1.486c0.045-0.368,0.184-0.723,0.281-1.082
		c0.148-0.521-0.141-1.398,0.648-1.427c0.77-0.026,1.102,0.725,1.262,1.448c0.053,0.265,0.07,0.562,0.219,0.769
		c0.299,0.457,0.15,1.604,1.006,1.225c0.66-0.294,1-1.25,0.586-2.121c-0.473-0.992-1.432-1.578-2.203-2.271
		c-0.656-0.584-1.281-0.942-0.676-1.842c0.492-0.743,0.553-2.108,1.855-1.857C64.658,62.957,65,63.88,65,64.881
		c-0.006,0.13,0.133,0.261,0.264,0.487c0.688-0.563,1.188-1.074,0.883-2.031c-0.365-1.165-1.08-1.801-2.326-1.672
		c-0.117-0.73,0.467-0.875,0.758-1.22c0.582-0.705,1.246-0.419,1.873-0.08c0.621,0.332,0.592,0.875,0.268,1.375
		c-0.383,0.602-0.078,1.13,0.303,1.422c0.535,0.408,0.695-0.326,0.918-0.587c1.34-1.586,3.098-1.948,5.028-1.79
		c0.562,0.048,1.08,0.101,1.426-0.436c0.129-0.196,0.092-0.453-0.149-0.524c-0.479-0.137-0.776-0.585-1.461-0.33
		c-1.185,0.441-2.502,0.401-3.649,1.054c-0.229,0.132-0.882,0.376-0.922-0.135c-0.047-0.53-0.566-1.207,0.047-1.634
		c0.656-0.467,0.682-0.002,0.553,0.523c-0.033,0.131,0.061,0.287,0.147,0.669c1.144-1.562,2.668-1.702,4.19-1.344
		c1.533,0.355,2.688-1.136,4.229-0.648c0.521,0.167,1.149-0.073,1.649,0.385c0.236,0.219,0.601,0.402,0.883,0.141
		c1.625-1.579,3.832-0.789,5.711-1.361c0.923-0.282,2.156-0.402,2.906,0.709c0.025,0.042,0.094,0.093,0.125,0.086
		c3.229-0.233,4.123,2.476,5.625,4.433c0.068,0.093,0.271,0.095,0.451,0.149c0.215-0.931-0.431-1.396-0.896-1.943
		c-0.356-0.427-0.679-0.942-0.276-1.441c0.398-0.49,1.034-0.324,1.479-0.048c1.416,0.867,2.905,1.857,3.469,3.374
		c0.263,0.69-0.2,1.988-0.519,2.945c-0.567,1.715-1.112,3.49-1.524,5.184c-0.567,2.295-0.094,4.839,0.158,7.281
		c0.81-0.854,0.672-1.877,0.754-2.824c0.125-1.495,0.146-3,0.181-4.502c0.02-0.777,0.141-1.486,0.821-1.975
		c-0.16,1.863,1.252,2.9,2.086,4.528C101.074,71.232,100.502,70.173,98.34,68.619 M85.967,77.41
		c0.059,4.096,0.381,8.072,2.391,11.721c0.449,0.82,1.021,1.477,1.939,1.455c0.846-0.018,1.365-0.648,1.766-1.438
		c2.431-4.773,2.738-9.861,2.179-15.049c-0.287-2.572-1.156-4.988-2.769-7.086c-1.223-1.596-2.682-1.506-3.6,0.275
		C86.242,70.49,86.204,73.99,85.967,77.41 M111.307,80.074c0.234-2.984-0.227-7.32-1.145-9.502
		c-0.307-0.729-0.551-1.904-1.488-1.828c-0.895,0.066-1.129,1.201-1.297,2c-0.582,2.688-0.744,5.42-0.602,8.157
		c0.125,2.351,0.404,4.694,1.473,6.862c0.254,0.514,0.521,1.029,1.102,1.025c0.687-0.002,0.894-0.597,1.129-1.182
		C111.208,83.822,111.168,81.937,111.307,80.074 M77.818,78.31c0.383-0.167,0.654-0.489,0.672-0.844
		c0.123-2.484,2.082-3.271,3.861-4.135c0.862-0.42,1.426-0.898,0.989-1.787c-0.444-0.9-1.229-0.352-1.803-0.045
		c-1.636,0.861-2.627,2.399-3.797,3.76C76.825,76.335,76.719,77.32,77.818,78.31 M83.186,67.466
		c0.113,0.018,0.328,0.104,0.529,0.078c0.969-0.105,0.67-0.938,0.805-1.498c0.104-0.42-0.074-0.793-0.604-0.617
		c-2.428,0.785-4.959,1.434-6.064,4.154c-0.287,0.697-0.396,1.496,0.364,1.826c0.793,0.348,0.847-0.562,1.121-1.027
		C80.204,68.914,80.92,67.257,83.186,67.466 M77.844,85.052c0.641-0.098,0.861-0.512,0.936-1.014
		c0.322-2.156,1.824-3.439,3.496-4.502c0.72-0.463,1.162-0.955,0.707-1.621c-0.426-0.625-1.03-0.025-1.537,0.219
		c-2.213,1.082-2.864,3.473-4.303,5.209C76.654,83.94,76.906,84.8,77.844,85.052 M69.54,81.199c0-0.852-0.103-1.271-0.371-1.357
		c-0.483-0.153-0.748,0.267-1.115,0.449c-2.18,1.074-2.717,3.332-3.752,5.201c-0.326,0.584-0.08,1.361,0.758,1.465
		c0.773,0.1,0.996-0.518,0.986-1.16c-0.016-1.879,0.928-3,2.677-3.51C69.301,82.109,69.702,81.851,69.54,81.199 M79.211,91.507
		c0.992-2.23,1.693-4.465,4.113-5.396c0.525-0.2,0.619-1.096,0.324-1.586c-0.402-0.676-0.963-0.085-1.371,0.146
		c-1.67,0.938-2.869,2.324-3.594,4.096C78.334,89.634,78.256,90.533,79.211,91.507 M70.713,62.833
		c-2.188,0.565-4.246,1.681-5.736,3.651c-0.379,0.495-0.285,1.204,0.346,1.521c0.699,0.354,1.023-0.246,1.086-0.767
		c0.076-0.694,0.598-0.992,1.006-1.349c0.975-0.856,2.177-1.222,3.474-1.304c0.725-0.049,1.028-0.482,0.93-1.199
		C71.75,62.816,71.367,62.738,70.713,62.833 M85.678,61.48c0.033-0.652-0.482-0.56-0.889-0.615
		c-1.977-0.267-5.221,1.643-6.012,3.549c-0.271,0.625-0.148,1.239,0.463,1.521c0.674,0.312,0.98-0.27,1.156-0.776
		c0.713-2.055,2.039-3.191,4.291-3.076C85.122,62.103,85.575,62.084,85.678,61.48 M69.708,67.803
		c-1.664,0.072-5.482,3.22-5.895,4.929c-0.109,0.455-0.135,0.9,0.352,1.085c0.684,0.253,1.057-0.29,1.168-0.786
		c0.508-2.26,2.01-3.25,4.188-3.439c0.453-0.041,0.847-0.194,0.97-0.688C70.629,68.335,70.887,67.664,69.708,67.803 M68.75,73.998
		c-0.105,0.045-0.273,0.078-0.406,0.156c-1.688,1.064-3.012,2.492-4.098,4.143c-0.316,0.479-0.723,0.953-0.662,1.603
		c0.045,0.412,0.195,0.747,0.645,0.794c0.365,0.038,0.619-0.201,0.674-0.543c0.352-2.382,2.082-3.585,3.976-4.615
		c0.545-0.295,0.605-0.697,0.528-1.191C69.359,73.998,69.079,73.96,68.75,73.998 M66.009,91.375
		c-0.025,0.58-0.035,1.129,0.627,1.174c0.656,0.035,0.795-0.51,0.75-1.006c-0.082-0.896,0.373-1.471,0.904-2.125
		c0.467-0.571,1.033-0.902,1.642-1.229c0.567-0.314,0.743-0.799,0.506-1.354c-0.334-0.76-0.812-0.207-1.189-0.021
		C67.334,87.769,66.337,89.382,66.009,91.375 M84.973,90.896c-0.201-0.6-0.725-1.068-1.469-0.503
		c-1.402,1.067-2.383,2.546-3.291,4.026c-0.275,0.453,0.016,1.107,0.584,1.328c0.645,0.235,0.811-0.273,0.953-0.769
		c0.434-1.42,1.092-2.674,2.639-3.179C84.713,91.701,84.947,91.498,84.973,90.896 M101.331,75.08
		c0.119-0.074,0.306-0.131,0.39-0.246c0.807-1.291,2.03-2.076,3.307-2.848c0.461-0.281,0.684-0.924,0.416-1.432
		c-0.275-0.531-0.879-0.33-1.277-0.113c-1.543,0.842-2.559,2.165-3.229,3.762C100.784,74.541,100.784,74.955,101.331,75.08
		 M104.672,79.833c-1.785,0.058-3.428,1.48-3.617,3.184c-0.047,0.408-0.104,0.917,0.394,1.088c0.42,0.146,0.467-0.331,0.622-0.574
		c0.699-1.095,1.49-2.041,2.9-2.224c0.498-0.067,0.699-0.423,0.631-0.937C105.518,79.791,105.146,79.726,104.672,79.833
		 M68.643,96.615c0.117-0.056,0.246-0.068,0.312-0.139c0.957-1.24,1.92-2.471,3.045-3.576c0.307-0.3,0.023-0.824-0.186-1.193
		c-0.131-0.22-0.41-0.266-0.527-0.057c-0.846,1.484-2.398,2.359-3.271,3.799C67.654,96.044,68.062,96.429,68.643,96.615
		 M104.887,76.005c0.176-0.996-0.328-0.965-1.104-0.664c-1.203,0.455-1.724,1.537-2.378,2.496c-0.243,0.367-0.354,0.865,0.062,1.162
		c0.535,0.385,0.949-0.039,1.184-0.443c0.398-0.696,0.922-1.162,1.697-1.338C105.027,77.076,104.92,76.554,104.887,76.005
		 M86.443,58.001c-1.742,0.038-3.328,0.544-4.947,0.919c-0.664,0.157-1.041,0.715-0.812,1.342c0.322,0.835,0.856,0.17,1.297,0.011
		c0.199-0.074,0.469-0.11,0.584-0.257c0.998-1.264,2.473-1.009,3.795-1.23c0.475-0.074,1.287,0.418,1.299-0.391
		C87.672,57.578,86.833,58.108,86.443,58.001 M105.27,66.564c-1.803,0.131-3.004,1.211-4.021,2.553
		c-0.213,0.285-0.756,0.676-0.229,1.076c0.437,0.334,0.828-0.092,1.092-0.383c0.941-1.041,1.861-2.053,3.447-1.992
		c0.451,0.016,0.629-0.396,0.564-0.805C106.053,66.505,105.661,66.509,105.27,66.564 M61.604,85.309
		c-0.123,0.097-0.244,0.202-0.371,0.294c0.879,1.232,1.725,2.486,2.637,3.693c0.312,0.412,0.785,0.959,1.318,0.471
		c0.561-0.523,0.16-1.066-0.316-1.492C63.784,87.291,62.7,86.296,61.604,85.309 M100.334,82.369
		c0.729-1.604-0.492-4.002-2.072-4.351c-0.127-0.022-0.326,0.013-0.418,0.101c-0.23,0.23-0.107,0.506,0.033,0.721
		C98.674,80,99.488,81.144,100.334,82.369 M97.941,73.244c0.09,1.678,1.002,2.674,1.67,3.762c0.217,0.351,0.629,0.648,1.076,0.307
		c0.367-0.277,0.26-0.747,0.067-1.021C100.029,75.227,99.465,74.001,97.941,73.244 M79.686,61.781
		c-0.021-0.913-1.477-2.053-2.42-1.906c-0.295,0.044-0.547,0.189-0.553,0.469c-0.01,0.162,0.18,0.438,0.328,0.471
		c0.768,0.17,1.143,0.692,1.391,1.382c0.131,0.352,0.312,0.749,0.801,0.526C79.611,62.551,79.725,62.187,79.686,61.781"/>
	<path fill="#96131F" d="M35.853,90.376c0.059,1.356,0.463,2.598,1.283,3.709c-4.055,1.182-6.887,0.334-8.211-2.699
		c0.734,0.701,1.23,1.174,1.746,1.664c0.289-0.988-0.383-2.057-1.74-2.842c-1.547-0.893-2.295-2.312-2.002-3.84
		c0.688,0.256,0.477,1.026,0.85,1.442c0.25,0.271,0.412,0.715,0.879,0.519c0.451-0.195,0.367-0.66,0.232-0.98
		c-0.256-0.574-0.623-1.098-0.943-1.646c0.432-0.078,0.969,0.312,1.25-0.354c0.574-1.367,1.082-2.769,2.387-3.701
		c0.328-0.231,0.285-0.905,0-1.353c-0.156-0.229-0.359-0.078-0.555,0.006c-1.582,0.699-3.266,3.714-3.031,5.457
		c-0.281-0.315-0.504-0.743-0.854-0.916c-1.658-0.838-1.51-2.114-0.963-3.536c0.43,0.079,0.311,0.479,0.4,0.729
		c0.141,0.418,0.012,1.153,0.707,0.973c0.502-0.135,0.264-0.756,0.133-1.129c-0.322-0.902-0.605-1.854-1.105-2.652
		c-0.836-1.33-0.451-2.615-0.283-4.004c0.572,0.229,0.57,0.609,0.623,0.977c0.051,0.379-0.123,1.012,0.582,0.857
		c0.529-0.109,0.518-0.678,0.412-1.08c-0.15-0.615-0.379-1.225-0.656-1.795c-0.729-1.521-0.746-1.514,0.09-3.286
		c0.416,0.954,1.348,1.595,0.578,2.754c-0.205,0.304-0.096,0.881,0.424,1.069c0.422,0.158,0.738-0.117,0.947-0.418
		c0.492-0.7,0.943-1.432,1.396-2.153c0.193-0.321,0.4-0.704,0.838-0.606c0.387,0.092,0.244,0.535,0.318,0.826
		c0.137,0.562,0.279,1.133,0.451,1.856c0.535-2.649,0.535-2.679,3.094-2.673c4.297,0.008,8.59,0.054,12.885,0.096
		c0.732,0.004,1.391,0.036,1.557-0.938c1.053-6.014,2.328-11.994,2.457-18.124c0.08-3.978-2.578-5.938-5.74-6.625
		c-3.914-0.847-7.764-0.214-11.42,1.426c-0.785,0.352-2.008,0.648-0.25,1.494c0.633,0.307,0.578,0.984,0.377,1.575
		c-0.17,0.513-0.539,0.831-1.082,0.783c-0.686-0.063-1.014-0.524-1.131-1.167c-0.057-0.301,0.184-0.635-0.336-1.125
		c-2.404,3.625-0.973,7.585-1.373,11.307c-0.424-3.925-1.031-7.842,0.252-11.75c0.236-0.709,0.564-1.237,1.258-1.552
		c2.234-1.012,4.645-1.567,6.904-2.461c5.705-2.245,11.447-1.162,17.097-0.331c3.184,0.469,6.539,0.903,9.488,2.579
		c1.365,0.778,2.594,2.867,2.326,4.401c-0.039,0.189-0.127,0.471-0.266,0.528c-1.781,0.711-1.576,2.173-1.469,3.645
		c0.193,2.465-0.504,3.225-3.018,3.518c-1.059,0.13-2.119,0.09-3.174,0.403c-3.867,1.13-4.451,4.548-5.398,7.659
		c-0.416,1.359-0.354,2.861-0.561,4.297c-0.391,2.671-1.32,3.486-4.008,3.602c-0.863,0.029-1.73-0.029-2.576,0.09
		c-1.029,0.146-1.838,0.449-1.426,1.881c0.367,1.287-0.529,2.039-1.68,2.22c-3.639,0.563-7.273,0.353-10.904-0.049
		c-0.879-0.097-0.912-0.953-1.58-1.569c-0.371,1.059-0.166,1.996,0.008,2.873c0.627,3.096,1.713,6.064,2.666,9.077
		c0.131,0.444,0.342,0.909,0.855,1.104L35.853,90.376z M27.333,79.115c0.062,0.414-0.1,0.908,0.371,1.148
		c0.139,0.076,0.48,0.001,0.562-0.121c0.977-1.385,1.811-2.869,2.934-4.154c0.15-0.173,0.189-0.533-0.049-0.74
		c-0.084-0.076-0.352-0.086-0.418-0.018C29.575,76.501,27.812,77.251,27.333,79.115 M29.603,89.013
		c-0.027,0.564,0.002,1.039,0.457,1.232c0.373,0.157,0.602-0.177,0.674-0.492c0.289-1.32,0.729-2.539,1.77-3.502
		c0.312-0.289,0.133-0.826-0.066-1.209C32.329,84.83,32.02,84.813,31.891,85C30.997,86.308,29.845,87.474,29.603,89.013
		 M32.593,93.96c0.572-0.078,2.086-3.664,1.785-4.16c-0.193-0.311-0.422-0.297-0.645-0.092c-1.014,0.91-1.754,1.983-1.859,3.39
		C31.834,93.557,32.087,93.912,32.593,93.96"/>
	<path fill="#96131F" d="M77.333,53.93c-0.444-0.923-0.229-2.301-1.496-2.6c-1.332-0.322-0.94,1.293-1.685,1.821
		c-0.334-0.494-0.192-0.98-0.192-1.424c0.043-5.418,0.076-10.839,0.147-16.254c0.013-0.867,0.013-1.166-1.11-0.968
		c-1.881,0.343-3.847,0.36-5.764,0.355c-1.906-0.004-3.672,0.589-5.49,0.959c-0.99,0.202-1.607,0.787-1.73,1.841
		c-0.166,1.492-0.346,2.979-0.562,4.47c-0.088,0.68-0.105,1.458-1.213,1.226c-0.891-0.183-1.073-0.633-0.936-1.492
		c0.172-1.159,0.201-2.346,0.246-3.523c0.043-0.955,0.195-1.965-1.018-2.438c-0.365-0.142-0.451-0.62-0.402-0.988
		c0.168-1.258-0.039-2.442-0.518-3.605c-0.211-0.509-0.018-0.942,0.416-1.264c0.27-0.204,0.602-0.301,0.887-0.074
		c0.467,0.377,0.273,0.892,0.168,1.346c-0.395,1.84-0.42,1.794,1.484,1.311c3.611-0.906,7.096-2.339,10.859-2.581
		c1.725-0.107,3.459-0.6,5.157,0.404c0.662,0.391,1.226-0.196,1.25-0.989c0.015-0.699,0.035-1.41-0.103-2.083
		c-0.52-2.623,0.838-4.345,2.709-5.923c0.244,0.6,0.699,1.25,0.418,1.7c-1.01,1.63,0.104,1.691,1.218,1.861
		c0.706,0.108,1.5,0.564,0.868,1.22c-1.489,1.557-1.346,3.452-1.366,5.269c-0.048,4.124,0.103,8.257,0.159,12.388
		c0.021,1.395,0.121,2.798,0.021,4.184c-0.196,2.772,0.914,4.979,2.744,6.922c0.435,0.461,1.086,1.016,0.401,1.542
		c-0.649,0.509-1.524,0.459-2.075-0.423c-0.451-0.721-0.918-1.439-1.354-2.167C78.506,52.38,78.283,52.372,77.333,53.93"/>
	<path fill="#96131F" d="M40.906,94.46c-0.631-0.648-1.75-0.412-0.916-1.5c0.398-0.525,0.143-0.987-0.396-1.328
		c-1.604-1.014-2.486-2.756-3.955-3.914c-0.475-0.367-0.295-0.846-0.168-1.33c0.9,0.111,0.885,1.046,1.424,1.431
		c0.318,0.237,0.629,0.72,1.084,0.298c0.324-0.298,0.189-0.818-0.055-1.021c-0.939-0.796-1.178-2.181-2.666-2.563
		c-1.213-0.312-0.967-1.787-0.99-2.757c-0.033-0.864,0.914-0.479,1.418-0.483c2.674-0.023,5.355,0.045,8.043,0.021
		c0.736-0.006,1.141,0.211,1.443,0.927c0.791,1.87,1.896,3.533,3.307,5.043c2.074,2.223,5.537,1.819,6.832-0.912
		c0.156-0.343,0.217-0.734,0.426-1.039c0.43-0.646,1.121-0.72,1.346,0.006c0.342,1.104,1.701,2.285-0.07,3.481
		c-0.609,0.416-0.363,1.392-0.236,2.138c0.121,0.717,0.244,1.446-0.863,1.455c-0.146,0-0.352,0.076-0.424,0.188
		c-1.178,1.693-2.898,1.715-4.684,1.523c-0.361-0.041-0.658,0.137-0.836,0.389c-0.578,0.838-1.119,1.039-1.844,0.117
		c-0.227-0.299-0.773-0.248-1,0.103c-0.873,1.356-2.258,1.003-3.498,1.067c-1.369,0.076-1.818-0.664-1.408-2.023
		c0.355-1.199,0.963-2.24,1.766-3.184c0.211-0.256,0.5-0.518,0.268-0.834c-0.324-0.438-0.658-0.092-0.953,0.119
		C41.861,90.875,40.636,92.023,40.906,94.46 M38.647,89.503c0.023,0.332,0.16,0.931,0.846,1.072c0.457,0.1,0.689-0.314,0.646-0.722
		c-0.211-1.908,0.855-2.965,2.432-3.666c0.594-0.257,0.631-0.67,0.416-1.164c-0.227-0.539-0.609-0.653-1.164-0.414
		C40.708,85.097,38.671,88.009,38.647,89.503 M44.958,93.66c-0.484,0.252-1.414,0.176-1.508,1.164
		c-0.051,0.584,0.473,0.625,0.914,0.629c0.957,0.019,1.244-0.771,1.49-1.438C45.976,93.679,45.458,93.63,44.958,93.66"/>
	<path fill="#96131F" d="M80.932,33.099c0.146,0,0.264,0.494,0.604,0.608c0.627,0.21,1.452,0.905,1.595-0.521
		c0.047-0.455,0.332-0.852,0.877-0.673c0.7,0.238,1.467,0.469,1.659,1.332c0.146,0.61-0.2,0.801-0.771,0.937
		c-1.058,0.239-0.668,0.984-0.283,1.456c0.854,1.074,1.135,1.859-0.643,2.076c-0.812,0.097-0.666,0.736-0.619,1.244
		c0.383,3.622,0.551,7.255,0.562,10.898c0.004,1.098,1.09,1.957,0.662,3.168c-0.138,0.408-0.15,0.888-0.574,1.075
		c-0.551,0.24-0.911-0.208-1.226-0.553c-0.393-0.427-0.719-0.921-1.071-1.378c-1.157-1.461-1.138-2.091,0.287-3.334
		c0.61-0.545,0.938-1.149,0.942-1.939c0.035-2.894,0.092-5.787,0.062-8.675c-0.01-1.304-0.467-2.4-1.902-2.817
		c-1.375-0.397-0.953-1.594-1.035-2.545C80.036,33.12,80.348,33.063,80.932,33.099"/>
	<path fill="#96131F" d="M91.816,58.136c-0.354-1.486,0.834-1.976,1.221-2.847c0.396-0.892,1.211-1.592,1.754-2.442
		c0.425-0.667,1.423-1.334,0.18-2.224c-0.334-0.242-0.166-0.804,0.07-1.19c0.175-0.296,0.43-0.478,0.785-0.43
		c0.57,0.07,0.463,0.612,0.668,0.945c1.011,1.601,0.324,2.69-0.817,3.898c-0.636,0.663-1.362,1.3-1.856,2.156
		C93.383,56.751,92.624,57.304,91.816,58.136"/>
	<path fill="#96131F" d="M43.589,49.281c0.211-0.772,0.523-1.666,1.742-1.685c1.242-0.02,1.654,0.94,1.754,1.863
		c0.115,1.038-0.639,1.74-1.658,1.74C44.413,51.202,43.577,50.714,43.589,49.281"/>
	<path fill="#96131F" d="M28.675,71.646c-0.24-0.916-0.234-1.773-0.98-2.408c-0.506-0.443-0.295-0.921,0.24-1.125
		c0.828-0.315,1.086-0.961,1.268-2.219c0.219,1.082,1.291,1.512,0.289,2.338c-0.383,0.314-0.762,0.863-0.328,1.215
		c0.502,0.391,0.83-0.258,1.094-0.611c0.189-0.239,0.219-0.604,0.678-0.729C31.759,70.296,29.615,70.578,28.675,71.646"/>
	<path fill="#96131F" d="M40.658,47.666c0.795,0.364,1.385,0.942,1.334,1.906c-0.055,0.951-0.602,1.458-1.586,1.403
		c-1.064-0.065-1.391-0.795-1.271-1.668C39.24,48.505,39.625,47.79,40.658,47.666"/>
	<path fill="#96131F" d="M38.136,49.334c-0.057,0.76-0.252,1.437-1.029,1.453c-0.918,0.022-1.203-0.691-1.236-1.503
		c-0.043-0.762,0.496-1.026,1.109-1.052C37.742,48.2,38.124,48.657,38.136,49.334"/>
	<path fill="#96131F" d="M77.393,95.638c0.433,0.145,0.844,0.248,1.228,0.422c0.457,0.213,1.065,0.229,1.263,0.831
		c0.028,0.073-0.148,0.31-0.255,0.321c-0.618,0.072-1.303,0.25-1.831-0.191C77.465,96.744,77.077,96.355,77.393,95.638"/>
	<path fill="#96131F" d="M66.29,95.285c-0.861-0.51-1.682-1.104-2.594-1.506c-0.822-0.354-0.852-0.789-0.404-1.711
		c0.891,1.297,2.426,1.766,2.965,3.252C66.253,95.322,66.29,95.285,66.29,95.285"/>
	<path fill="#96131F" d="M35.87,90.414c0.656-0.506,0.92,0.006,1.189,0.463c0.559,0.951,0.682,2.082,1.287,3.025
		c-1.568-0.68-1.334-2.57-2.488-3.518C35.853,90.376,35.87,90.414,35.87,90.414"/>
</g>
</svg>
