<?xml version="1.0" encoding="utf-8"?>
<!-- Generator: Adobe Illustrator 16.0.0, SVG Export Plug-In . SVG Version: 6.00 Build 0)  -->
<!DOCTYPE svg PUBLIC "-//W3C//DTD SVG 1.1//EN" "http://www.w3.org/Graphics/SVG/1.1/DTD/svg11.dtd">
<svg version="1.1"
	 id="svg2" xmlns:sodipodi="http://sodipodi.sourceforge.net/DTD/sodipodi-0.dtd" xmlns:dc="http://purl.org/dc/elements/1.1/" xmlns:rdf="http://www.w3.org/1999/02/22-rdf-syntax-ns#" xmlns:cc="http://creativecommons.org/ns#" xmlns:svg="http://www.w3.org/2000/svg" xmlns:inkscape="http://www.inkscape.org/namespaces/inkscape"
	 xmlns="http://www.w3.org/2000/svg" xmlns:xlink="http://www.w3.org/1999/xlink" x="0px" y="0px" width="136px" height="134.667px"
	 viewBox="0 0 136 134.667" enable-background="new 0 0 136 134.667" xml:space="preserve">
<circle fill="none" stroke="#96131F" stroke-width="1.9167" stroke-miterlimit="10" enable-background="new    " cx="68" cy="67.334" r="63.891"/>
<g>
	<path fill="#96131F" d="M70.221,100.382c-0.472-4.945-0.389-10.85-0.313-16.184c0.005-0.344-0.503-0.451-0.519-0.791
		c2.711-0.998,4.027-3.021,4.807-4.916c0.771-1.895,0.99-3.684,1.533-4.219c-1.334,0.031-2.672,0.359-3.772,1.014
		c-1.101,0.652-1.964,1.621-2.38,2.934c-0.047-1.041,0.111-0.762,0.07-1.793c-0.01-0.266-0.66-0.451-0.67-0.717
		c3.041-1.66,4.306-3.697,4.955-5.6c0.646-1.9,0.688-3.676,1.311-4.814c-1.085,0.469-2.361,0.859-3.479,1.524
		c-1.109,0.667-2.062,1.604-2.49,3.154c-0.035-1.207-0.043-1.504-0.068-2.69c-0.008-0.331-0.605-0.255-0.611-0.585
		c2.459-0.736,3.59-2.12,4.295-3.732c0.703-1.615,0.994-3.458,1.774-5.126c-1.272-0.057-2.563,0.557-3.588,1.273
		c-1.026,0.714-1.778,1.554-1.983,1.959c-0.002-0.636-0.002-1.266-0.008-1.885c-0.003-0.288-0.564-0.24-0.564-0.521
		c2.646-0.506,3.916-2.38,4.645-4.181c0.729-1.799,0.896-3.528,1.368-3.73c-0.911-0.319-2.009-0.058-3.003,0.47
		c-0.989,0.527-1.883,1.34-2.396,2.107c0.015-0.812,0-0.53,0.019-1.312c0.018-0.504-0.264-0.339-0.565-0.542
		c2.187-0.703,3.444-1.978,4.259-3.452c0.812-1.475,1.168-3.172,1.529-4.705c-0.461-0.023-1.426-0.044-2.354,0.165
		c-0.934,0.208-1.666,0.195-2.172,1.615c-0.51,1.417-0.297,0.525-0.427,0.795c0.056-0.978-0.036-0.679-0.021-1.607
		c0.006-0.404,0.027-0.551-0.426-0.535c2.192-0.938,3.113-2.227,3.604-3.506c0.494-1.28,0.566-2.566,1.08-3.506
		c-0.428-0.14-1.312-0.116-2.178,0.123c-0.86,0.239-1.717,0.723-2.062,1.527c1.396-2.813,2.5-5.02,0.207-10.319
		c-1.178,1.653-2.803,4.386-0.912,8.089c0.207,1.254-0.065,1.409,0.043,1.664c-0.913-3.392-3.157-5.534-3.488-5.534
		c0.874,1.723-0.904,5.793,3.499,8.986c-0.021,0.154-0.449,0.06-0.443,0.335c0.002,0.991-0.04,1.265-0.091,1.899
		c-0.097-0.231,0.161-0.321-0.501-1.713c-0.664-1.391-3.33-2.697-4.096-3.001c0.911,1.411,0.59,3.117,0.826,4.832
		c0.236,1.712,1.024,3.441,4.128,4.909c-0.435,0.029-0.819,0.267-0.824,0.504c-0.035,1.049-0.07,0.646-0.091,1.78
		c-0.898-2.14-3.073-3.045-4.108-4.841c0.495,1.15,0.365,3.189,0.774,5.244c0.412,2.053,1.371,4.143,4.042,5.39
		c0,0.239-0.708,0.128-0.708,0.375c0.008,0.869-0.025,0.861-0.015,1.759c-0.405-1.217-1.21-2.034-2.094-2.638
		c-0.889-0.608-1.873-1.021-2.632-1.449c0.668,1.158,0.71,3,1.286,4.876c0.571,1.871,1.666,3.774,4.438,5.055
		c0.003,0.231-0.855,0.089-0.854,0.319c0.015,0.686,0.052,1.022,0.068,1.728c-0.69-1.33-1.871-2.085-3.013-2.663
		c-1.15-0.577-2.26-1.004-2.806-1.696c0.917,1.656,0.826,3.1,1.386,4.816c0.561,1.711,1.751,3.698,5.19,6.442
		c0.006,0.27-0.663,0.207-0.652,0.477c0.015,0.809,0.015,0.711,0.032,1.521c-0.609-1.504-1.701-2.313-2.835-2.819
		c-1.13-0.509-2.302-0.724-3.068-1.027c0.658,1.246,0.773,2.986,1.514,4.812c0.739,1.818,2.077,3.729,5.211,5.304
		c0.006,0.254-0.673,0.383-0.673,0.627c0.029,6.127,0,11.969-0.056,17.604C68.991,100.353,69.109,100.042,70.221,100.382
		L70.221,100.382z M100.426,99.763c-1.143-4.068-1.48-9.066-1.486-13.652c0-0.299-0.428-0.432-0.438-0.725
		c2.411-0.697,3.589-2.346,4.37-3.865c0.771-1.508,1.079-2.965,1.594-3.312c-1.132-0.201-2.307-0.102-3.312,0.348
		c-0.995,0.438-1.805,1.203-2.262,2.312c0.035-0.928,0.155-0.658,0.198-1.57c0.009-0.221-0.536-0.469-0.522-0.707
		c2.777-1.098,4.039-2.689,4.851-4.17c0.808-1.477,1.155-2.918,1.858-3.705c-0.979,0.125-2.117,0.154-3.162,0.521
		c-1.053,0.371-2.002,1.048-2.618,2.332c0.166-1.069,0.205-1.329,0.377-2.381c0.051-0.289-0.472-0.321-0.417-0.629
		c2.193-0.188,3.396-1.16,4.332-2.345c0.911-1.158,1.579-2.583,2.641-3.668c-1.029-0.456-2.268-0.341-3.291-0.005
		c-1.039,0.338-1.867,0.894-2.13,1.201c0.14-0.551,0.291-1.097,0.446-1.633c0.064-0.245-0.407-0.33-0.338-0.576
		c2.343,0.231,3.854-0.959,4.974-2.147c1.097-1.165,1.759-2.407,2.192-2.371c-0.625-0.61-1.584-0.851-2.557-0.779
		c-0.974,0.069-1.957,0.468-2.604,0.949c0.257-0.669,0.151-0.449,0.416-1.081c0.17-0.405-0.106-0.356-0.29-0.619
		c2.003,0.14,3.438-0.417,4.598-1.206c1.119-0.767,2.021-1.785,2.854-2.688c-0.343-0.231-1.062-0.719-1.854-0.979
		c-0.793-0.262-1.354-0.596-2.3,0.285c-0.942,0.883-0.442,0.287-0.647,0.446c0.428-0.713,0.238-0.532,0.604-1.227
		c0.162-0.301,0.243-0.396-0.116-0.569c2.073,0.206,3.27-0.29,4.174-0.92c0.875-0.607,1.473-1.384,2.233-1.703
		c-0.231-0.305-0.847-0.778-1.565-1.048c-0.709-0.271-1.543-0.324-2.166,0.047c2.295-1.171,4.101-1.928,5.5-5.882
		c-1.646,0.263-4.26,1.023-4.94,4.111c-0.462,0.911-0.731,0.9-0.772,1.106c1.059-2.574,0.737-4.799,0.521-4.935
		c-0.389,1.394-3.84,3.37-2.09,7.347c-0.079,0.097-0.369-0.142-0.481,0.054c-0.432,0.728-0.571,0.913-0.889,1.368
		c0.028-0.206,0.252-0.188,0.354-1.461c0.104-1.276-1.229-3.212-1.646-3.703c-0.041,1.339-1.128,2.487-1.696,3.893
		c-0.577,1.419-0.61,3.087,1.338,5.292c-0.36-0.122-0.756-0.051-0.842,0.136c-0.399,0.843-0.285,0.507-0.696,1.427
		c0.021-2.037-1.402-3.482-1.496-5.274c-0.074,1.093-1,2.735-1.365,4.605c-0.373,1.867-0.188,3.947,1.678,5.734
		c-0.064,0.206-0.628-0.074-0.693,0.137c-0.216,0.758-0.24,0.739-0.462,1.519c-0.03-1.153-0.485-2.087-1.05-2.842
		c-0.562-0.755-1.25-1.367-1.753-1.935c0.196,1.185-0.296,2.841-0.285,4.654c0.009,1.8,0.543,3.744,2.603,5.446
		c-0.043,0.21-0.737-0.098-0.78,0.107c-0.12,0.604-0.146,0.916-0.255,1.547c-0.352-1.317-1.184-2.226-2.024-2.969
		c-0.847-0.743-1.696-1.347-2.012-2.092c0.427,1.699,0.04,3.013,0.218,4.679c0.178,1.672,0.889,3.655,3.464,6.631
		c-0.024,0.242-0.584,0.084-0.608,0.328c-0.078,0.721-0.065,0.633-0.135,1.35c-0.354-1.418-1.188-2.297-2.089-2.909
		c-0.899-0.617-1.868-0.976-2.479-1.36c0.396,1.233,0.271,2.848,0.734,4.608c0.457,1.735,1.483,3.588,4.131,5.293
		c-0.006,0.221-0.606,0.269-0.606,0.483c-0.021,5.354,0.233,10.362,0.771,15.088C99.159,99.769,99.241,99.501,100.426,99.763
		L100.426,99.763z M85.16,99.794c-1.064-0.316-1.167-0.023-2.021-0.332c-0.095-5.357-0.068-10.924,0.057-16.758
		c0.006-0.234,0.671-0.357,0.675-0.602c-2.918-1.473-4.088-3.256-4.654-4.953c-0.562-1.688-0.521-3.34-1.014-4.461
		c0.687,0.223,1.756,0.344,2.762,0.793c1.017,0.455,1.976,1.227,2.448,2.658c0.031-0.771,0.027-0.684,0.061-1.447
		c0.014-0.256,0.633-0.189,0.643-0.447c-2.975-2.588-3.903-4.447-4.234-6.055c-0.342-1.604-0.102-2.99-0.742-4.498
		c0.411,0.611,1.377,0.94,2.346,1.465c0.979,0.529,1.979,1.246,2.483,2.517c0.048-0.667,0.038-0.989,0.087-1.646
		c0.021-0.22,0.786-0.067,0.805-0.289c-2.375-1.23-3.17-3.039-3.478-4.805c-0.299-1.77-0.114-3.521-0.562-4.603
		c0.619,0.372,1.445,0.743,2.166,1.316c0.722,0.576,1.34,1.363,1.563,2.52c0.095-0.854,0.12-0.849,0.214-1.671
		c0.026-0.229,0.649-0.113,0.676-0.339c-2.238-1.219-2.838-3.202-2.941-5.152c-0.104-1.948,0.296-3.899,0.002-4.988
		c0.688,1.695,2.504,2.569,3.012,4.625c0.172-1.075,0.15-0.689,0.326-1.68c0.04-0.226,0.414-0.447,0.805-0.462
		c-2.569-1.458-3.039-3.114-3.002-4.748c0.034-1.627,0.586-3.261-0.041-4.6c0.666,0.289,2.906,1.594,3.284,2.934
		s0.136,1.412,0.187,1.642c0.147-0.605,0.228-0.861,0.383-1.803c0.045-0.265,0.422-0.154,0.468-0.291
		c-3.524-3.16-1.142-6.992-1.67-8.656c0.322,0.013,2.093,2.134,2.291,5.379c-0.056-0.241,0.224-0.373,0.285-1.57
		c-1.083-3.59,1.137-6.103,2.743-7.625c0.938,5.117-0.629,7.156-2.514,9.766c0.476-0.751,1.354-1.175,2.228-1.371
		c0.864-0.192,1.709-0.189,2.073-0.059c-0.69,0.89-1.026,2.109-1.75,3.313c-0.705,1.185-1.771,2.379-3.909,3.167
		c0.418,0.005,0.368,0.146,0.297,0.522c-0.157,0.873-0.024,0.598-0.236,1.521c0.162-0.241-0.163,0.595,0.513-0.727
		c0.678-1.322,1.35-1.273,2.228-1.44c0.879-0.167,1.746-0.139,2.157-0.125c-0.602,1.46-1.207,3.062-2.152,4.435
		c-0.939,1.369-2.245,2.536-4.271,3.123c0.24,0.208,0.512,0.054,0.438,0.532c-0.12,0.74-0.063,0.476-0.183,1.236
		c0.55-0.707,1.443-1.435,2.393-1.901c0.943-0.464,1.956-0.688,2.717-0.373c-0.437,0.186-0.812,1.816-1.678,3.506
		c-0.854,1.676-2.18,3.409-4.594,3.82c-0.036,0.27,0.477,0.229,0.445,0.502c-0.062,0.59-0.125,1.193-0.183,1.792
		c0.224-0.373,0.979-1.158,1.97-1.806c0.988-0.646,2.207-1.185,3.332-1.109c-0.875,1.57-1.291,3.305-2.07,4.814
		c-0.773,1.507-1.905,2.79-4.205,3.436c-0.021,0.318,0.529,0.259,0.51,0.574c-0.076,1.125-0.096,1.403-0.15,2.549
		c0.512-1.461,1.45-2.325,2.521-2.935c1.064-0.604,2.249-0.947,3.27-1.374c-0.646,1.068-0.791,2.749-1.507,4.542
		c-0.714,1.779-1.997,3.689-4.94,5.215c-0.002,0.254,0.6,0.441,0.593,0.688c-0.021,0.985-0.159,0.717-0.167,1.707
		c0.463-1.236,1.334-2.147,2.396-2.744c1.062-0.599,2.318-0.892,3.575-0.892c-0.53,0.494-0.812,2.187-1.606,3.968
		c-0.801,1.782-2.118,3.686-4.756,4.606c0.011,0.325,0.485,0.428,0.479,0.752C84.656,89.474,84.59,95.097,85.16,99.794L85.16,99.794
		z M37.579,99.763c1.142-4.068,1.48-9.066,1.483-13.652c0-0.299,0.433-0.432,0.438-0.725c-2.407-0.697-3.587-2.346-4.364-3.865
		c-0.771-1.508-1.085-2.965-1.597-3.312c1.131-0.201,2.307-0.102,3.31,0.348c0.996,0.438,1.808,1.203,2.26,2.312
		c-0.035-0.928-0.157-0.658-0.198-1.57c-0.011-0.221,0.535-0.469,0.524-0.707c-2.78-1.098-4.037-2.689-4.847-4.17
		c-0.808-1.477-1.158-2.918-1.862-3.705c0.979,0.125,2.119,0.154,3.16,0.521c1.055,0.371,2.007,1.048,2.62,2.332
		c-0.161-1.069-0.205-1.329-0.375-2.381c-0.049-0.289,0.471-0.321,0.417-0.629c-2.197-0.188-3.398-1.16-4.331-2.345
		c-0.916-1.158-1.582-2.583-2.639-3.668c1.026-0.456,2.263-0.341,3.286-0.005c1.038,0.338,1.869,0.894,2.132,1.201
		c-0.142-0.551-0.296-1.097-0.447-1.633c-0.07-0.245,0.405-0.33,0.339-0.576c-2.343,0.231-3.854-0.959-4.973-2.147
		c-1.098-1.165-1.762-2.407-2.197-2.371c0.623-0.61,1.587-0.851,2.554-0.779c0.975,0.069,1.957,0.468,2.609,0.949
		c-0.258-0.669-0.157-0.449-0.418-1.081c-0.171-0.405,0.11-0.356,0.29-0.619c-2.005,0.14-3.438-0.417-4.596-1.206
		c-1.121-0.767-2.024-1.785-2.854-2.688c0.339-0.231,1.057-0.719,1.852-0.979c0.793-0.262,1.357-0.596,2.301,0.285
		c0.938,0.885,0.437,0.287,0.643,0.446c-0.424-0.713-0.235-0.532-0.605-1.227c-0.162-0.301-0.243-0.396,0.119-0.569
		c-2.069,0.206-3.271-0.29-4.173-0.92c-0.875-0.607-1.472-1.384-2.234-1.703c0.233-0.305,0.849-0.778,1.566-1.048
		c0.709-0.271,1.545-0.324,2.164,0.047c-2.295-1.171-4.093-1.928-5.499-5.882c1.645,0.263,4.26,1.023,4.942,4.111
		c0.463,0.911,0.733,0.9,0.773,1.106c-1.053-2.574-0.736-4.799-0.521-4.935c0.39,1.393,3.84,3.369,2.09,7.347
		c0.079,0.097,0.37-0.142,0.486,0.054c0.429,0.728,0.574,0.913,0.884,1.368c-0.028-0.206-0.249-0.188-0.354-1.461
		c-0.103-1.276,1.235-3.212,1.647-3.703c0.042,1.339,1.13,2.487,1.7,3.893c0.576,1.419,0.606,3.087-1.34,5.292
		c0.363-0.122,0.756-0.051,0.846,0.136c0.396,0.843,0.283,0.507,0.697,1.427c-0.02-2.037,1.404-3.482,1.499-5.274
		c0.067,1.09,0.992,2.735,1.36,4.602c0.37,1.867,0.186,3.947-1.679,5.734c0.064,0.206,0.63-0.074,0.692,0.137
		c0.221,0.758,0.241,0.738,0.463,1.519c0.033-1.153,0.486-2.088,1.051-2.841c0.564-0.756,1.25-1.367,1.754-1.936
		c-0.196,1.185,0.29,2.842,0.282,4.655c-0.007,1.8-0.542,3.744-2.602,5.446c0.043,0.207,0.739-0.098,0.781,0.107
		c0.124,0.604,0.149,0.914,0.255,1.547c0.35-1.32,1.183-2.228,2.029-2.97c0.843-0.744,1.693-1.349,2.01-2.094
		c-0.426,1.701-0.041,3.013-0.219,4.681c-0.177,1.672-0.886,3.653-3.465,6.631c0.028,0.239,0.589,0.084,0.612,0.328
		c0.079,0.721,0.064,0.633,0.134,1.35c0.356-1.418,1.19-2.297,2.086-2.909c0.903-0.617,1.868-0.976,2.485-1.363
		c-0.399,1.233-0.27,2.851-0.736,4.61c-0.458,1.734-1.484,3.589-4.132,5.294c0.002,0.221,0.604,0.269,0.604,0.481
		c0.024,5.354-0.231,10.364-0.764,15.088C38.844,99.769,38.762,99.501,37.579,99.763L37.579,99.763z M52.845,99.794
		c1.064-0.316,1.167-0.023,2.021-0.332c0.093-5.357,0.068-10.924-0.058-16.758c-0.004-0.234-0.667-0.357-0.673-0.602
		c2.918-1.473,4.094-3.256,4.656-4.953c0.56-1.688,0.518-3.34,1.015-4.461c-0.686,0.223-1.756,0.344-2.763,0.793
		c-1.017,0.455-1.977,1.227-2.451,2.658c-0.03-0.771-0.025-0.684-0.057-1.447c-0.011-0.256-0.634-0.189-0.644-0.447
		c2.976-2.588,3.905-4.447,4.236-6.055c0.341-1.604,0.101-2.99,0.744-4.498c-0.412,0.611-1.374,0.94-2.346,1.465
		c-0.979,0.529-1.974,1.246-2.48,2.517c-0.051-0.667-0.043-0.989-0.091-1.646c-0.02-0.22-0.783-0.067-0.801-0.289
		c2.373-1.23,3.169-3.039,3.473-4.805c0.301-1.77,0.116-3.521,0.568-4.603c-0.623,0.373-1.447,0.745-2.17,1.318
		c-0.723,0.576-1.341,1.364-1.567,2.52c-0.093-0.854-0.118-0.849-0.211-1.671c-0.025-0.229-0.648-0.113-0.672-0.339
		c2.234-1.219,2.837-3.202,2.942-5.153c0.101-1.948-0.301-3.899-0.005-4.988c-0.688,1.695-2.506,2.57-3.011,4.625
		c-0.173-1.075-0.153-0.689-0.326-1.68c-0.042-0.226-0.417-0.447-0.806-0.462c2.572-1.458,3.041-3.114,3.003-4.748
		c-0.035-1.627-0.588-3.261,0.042-4.6c-0.667,0.289-2.91,1.594-3.287,2.934c-0.376,1.34-0.135,1.412-0.186,1.642
		c-0.148-0.605-0.226-0.861-0.381-1.803c-0.045-0.265-0.419-0.155-0.467-0.291c3.531-3.16,1.14-6.992,1.67-8.656
		c-0.324,0.013-2.092,2.134-2.293,5.379c0.056-0.241-0.221-0.373-0.283-1.57c1.082-3.59-1.137-6.103-2.741-7.625
		c-0.943,5.117,0.625,7.156,2.512,9.766c-0.473-0.751-1.357-1.175-2.226-1.371c-0.865-0.192-1.708-0.189-2.076-0.059
		c0.692,0.89,1.026,2.109,1.748,3.313c0.708,1.185,1.771,2.379,3.91,3.167c-0.414,0.006-0.366,0.147-0.296,0.523
		c0.161,0.873,0.028,0.598,0.239,1.521c-0.164-0.24,0.162,0.596-0.515-0.726c-0.678-1.325-1.346-1.273-2.221-1.44
		c-0.881-0.165-1.748-0.139-2.159-0.125c0.596,1.46,1.209,3.062,2.152,4.435c0.944,1.369,2.244,2.536,4.272,3.123
		c-0.244,0.206-0.512,0.052-0.438,0.531c0.116,0.74,0.063,0.476,0.179,1.236c-0.547-0.707-1.444-1.435-2.392-1.901
		c-0.945-0.464-1.954-0.688-2.717-0.373c0.439,0.186,0.815,1.816,1.676,3.506c0.854,1.676,2.18,3.409,4.601,3.82
		c0.03,0.27-0.482,0.229-0.452,0.502c0.065,0.59,0.128,1.193,0.181,1.792c-0.216-0.373-0.974-1.158-1.966-1.806
		c-0.989-0.646-2.206-1.185-3.33-1.109c0.871,1.57,1.291,3.305,2.067,4.813c0.773,1.507,1.906,2.79,4.208,3.437
		c0.023,0.317-0.532,0.257-0.507,0.573c0.07,1.125,0.09,1.402,0.146,2.549c-0.513-1.461-1.452-2.324-2.521-2.936
		c-1.06-0.602-2.249-0.946-3.268-1.372c0.643,1.068,0.795,2.747,1.506,4.542c0.711,1.779,1.998,3.689,4.94,5.214
		c0.005,0.254-0.595,0.44-0.59,0.688c0.02,0.985,0.158,0.717,0.168,1.709c-0.464-1.238-1.333-2.149-2.396-2.746
		c-1.064-0.598-2.324-0.892-3.577-0.892c0.527,0.494,0.807,2.188,1.607,3.97c0.798,1.78,2.121,3.685,4.752,4.604
		c-0.005,0.325-0.487,0.428-0.477,0.752C53.346,89.474,53.412,95.097,52.845,99.794z"/>
</g>
</svg>
