<?xml version="1.0" encoding="utf-8"?>
<!-- Generator: Adobe Illustrator 16.0.0, SVG Export Plug-In . SVG Version: 6.00 Build 0)  -->
<!DOCTYPE svg PUBLIC "-//W3C//DTD SVG 1.1//EN" "http://www.w3.org/Graphics/SVG/1.1/DTD/svg11.dtd">
<svg version="1.1"
	 id="svg2" xmlns:sodipodi="http://sodipodi.sourceforge.net/DTD/sodipodi-0.dtd" xmlns:dc="http://purl.org/dc/elements/1.1/" xmlns:rdf="http://www.w3.org/1999/02/22-rdf-syntax-ns#" xmlns:cc="http://creativecommons.org/ns#" xmlns:svg="http://www.w3.org/2000/svg" xmlns:inkscape="http://www.inkscape.org/namespaces/inkscape"
	 xmlns="http://www.w3.org/2000/svg" xmlns:xlink="http://www.w3.org/1999/xlink" x="0px" y="0px" width="136px" height="134.667px"
	 viewBox="0 0 136 134.667" enable-background="new 0 0 136 134.667" xml:space="preserve">
<circle fill="none" stroke="#96131F" stroke-width="1.9167" stroke-miterlimit="10" enable-background="new    " cx="68" cy="67.334" r="63.892"/>
<g id="background">
	<rect x="53.471" y="50.73" fill="none" width="32" height="32"/>
</g>
<g>
	<g>
		<circle fill="#96131F" cx="41.57" cy="84.638" r="7.178"/>
		<circle fill="#96131F" cx="96.721" cy="84.636" r="7.183"/>
		<g>
			<path fill="#96131F" d="M55.287,36.241v35.042h-3.876V46.364H30.947L20.391,62.952v21.542H28h3.809
				c0.078-5.324,4.423-9.625,9.76-9.625c5.339,0,9.681,4.301,9.759,9.625h0.078h35.551c0.04-2.705,1.184-5.146,3-6.896H51.411v-3.45
				h3.876h2.085h52.846V36.241H55.287z M48.108,63.812H24.84v-1.318l7.916-12.439h15.349v13.757H48.108z"/>
			<path fill="#96131F" d="M106.477,84.494h3.742v-6.896h-6.75C105.295,79.348,106.438,81.789,106.477,84.494z"/>
		</g>
	</g>
</g>
</svg>
