<?xml version="1.0" encoding="utf-8"?>
<!-- Generator: Adobe Illustrator 16.0.0, SVG Export Plug-In . SVG Version: 6.00 Build 0)  -->
<!DOCTYPE svg PUBLIC "-//W3C//DTD SVG 1.1//EN" "http://www.w3.org/Graphics/SVG/1.1/DTD/svg11.dtd">
<svg version="1.1"
	 id="svg2" xmlns:sodipodi="http://sodipodi.sourceforge.net/DTD/sodipodi-0.dtd" xmlns:dc="http://purl.org/dc/elements/1.1/" xmlns:rdf="http://www.w3.org/1999/02/22-rdf-syntax-ns#" xmlns:cc="http://creativecommons.org/ns#" xmlns:svg="http://www.w3.org/2000/svg" xmlns:inkscape="http://www.inkscape.org/namespaces/inkscape"
	 xmlns="http://www.w3.org/2000/svg" xmlns:xlink="http://www.w3.org/1999/xlink" x="0px" y="0px" width="136px" height="134.667px"
	 viewBox="0 0 136 134.667" enable-background="new 0 0 136 134.667" xml:space="preserve">
<circle fill="none" stroke="#96131F" stroke-width="1.9167" stroke-miterlimit="10" enable-background="new    " cx="68" cy="65.891" r="63.891"/>
<g>
	<path fill="#96131F" d="M94.133,24.683H44.478c-2.774,0-5.029,2.255-5.029,5.027v70.157c0,2.771,2.255,5.023,5.029,5.023h49.656
		c2.771,0,5.026-2.256,5.026-5.023V29.71C99.16,26.938,96.906,24.683,94.133,24.683z M53.769,94.65c-2.501,0-4.53-2.031-4.53-4.531
		s2.029-4.527,4.53-4.527c2.5,0,4.53,2.027,4.53,4.527S56.269,94.65,53.769,94.65z M53.769,79.068c-2.501,0-4.53-2.027-4.53-4.527
		s2.029-4.531,4.53-4.531c2.5,0,4.53,2.031,4.53,4.531S56.269,79.068,53.769,79.068z M53.769,63.492c-2.501,0-4.53-2.031-4.53-4.532
		c0-2.5,2.029-4.528,4.53-4.528c2.5,0,4.53,2.028,4.53,4.528C58.299,61.461,56.269,63.492,53.769,63.492z M69.346,94.65
		c-2.5,0-4.528-2.031-4.528-4.531s2.028-4.527,4.528-4.527c2.502,0,4.53,2.027,4.53,4.527S71.848,94.65,69.346,94.65z
		 M69.346,79.068c-2.5,0-4.528-2.027-4.528-4.527s2.028-4.531,4.528-4.531c2.502,0,4.53,2.031,4.53,4.531
		S71.848,79.068,69.346,79.068z M69.346,63.492c-2.5,0-4.528-2.031-4.528-4.532c0-2.5,2.028-4.528,4.528-4.528
		c2.502,0,4.53,2.028,4.53,4.528C73.876,61.461,71.848,63.492,69.346,63.492z M84.928,94.65c-2.5,0-4.531-2.031-4.531-4.531
		s2.031-4.527,4.531-4.527s4.527,2.027,4.527,4.527S87.428,94.65,84.928,94.65z M84.928,79.068c-2.5,0-4.531-2.027-4.531-4.527
		s2.031-4.531,4.531-4.531s4.527,2.031,4.527,4.531S87.428,79.068,84.928,79.068z M84.928,63.492c-2.5,0-4.531-2.031-4.531-4.532
		c0-2.5,2.031-4.528,4.531-4.528s4.527,2.028,4.527,4.528C89.456,61.461,87.428,63.492,84.928,63.492z M90.782,43.11
		c0,1.288-1.044,2.332-2.328,2.332H50.41c-1.288,0-2.33-1.045-2.33-2.332v-7.278c0-1.285,1.042-2.33,2.33-2.33h38.039
		c1.287,0,2.33,1.047,2.33,2.33L90.782,43.11L90.782,43.11z"/>
</g>
</svg>
