<?xml version="1.0" encoding="utf-8"?>
<!-- Generator: Adobe Illustrator 16.0.0, SVG Export Plug-In . SVG Version: 6.00 Build 0)  -->
<!DOCTYPE svg PUBLIC "-//W3C//DTD SVG 1.1//EN" "http://www.w3.org/Graphics/SVG/1.1/DTD/svg11.dtd">
<svg version="1.1"
	 id="svg2" xmlns:sodipodi="http://sodipodi.sourceforge.net/DTD/sodipodi-0.dtd" xmlns:dc="http://purl.org/dc/elements/1.1/" xmlns:rdf="http://www.w3.org/1999/02/22-rdf-syntax-ns#" xmlns:cc="http://creativecommons.org/ns#" xmlns:svg="http://www.w3.org/2000/svg" xmlns:inkscape="http://www.inkscape.org/namespaces/inkscape"
	 xmlns="http://www.w3.org/2000/svg" xmlns:xlink="http://www.w3.org/1999/xlink" x="0px" y="0px" width="136px" height="134.667px"
	 viewBox="0 0 136 134.667" enable-background="new 0 0 136 134.667" xml:space="preserve">
<circle fill="none" stroke="#96131F" stroke-width="1.9167" stroke-miterlimit="10" cx="68" cy="67.334" r="63.891"/>
<path fill="#96131F" d="M80.952,101.257c-2.841,2.844-6.048,4.613-8.56,4.973v4.137c0,2.215-1.791,4.006-4.005,4.006
	c-2.213,0-4.011-1.791-4.011-4.006v-4.125c-2.537-0.287-5.825-2.062-8.741-4.982c-4.449-4.446-6.312-9.788-4.164-11.938
	c2.147-2.147,7.492-0.282,11.94,4.162c2.475,2.479,4.083,5.207,4.707,7.533c0.093-0.007,0.169-0.058,0.271-0.058
	c0.031,0,0.058,0.021,0.09,0.021c0.63-2.315,2.234-5.033,4.697-7.5c4.443-4.444,9.789-6.308,11.938-4.158
	C87.26,91.47,85.396,96.812,80.952,101.257z M80.952,83.738c-4.449,4.445-9.792,6.307-11.938,4.158
	c-0.371-0.369-0.584-0.859-0.723-1.4c-0.14,0.541-0.349,1.033-0.721,1.4c-2.148,2.148-7.494,0.287-11.937-4.158
	c-4.448-4.445-6.31-9.791-4.162-11.941c2.147-2.149,7.492-0.282,11.94,4.164c2.667,2.67,4.385,5.652,4.88,8.082
	c0.498-2.43,2.211-5.412,4.882-8.082c4.443-4.446,9.789-6.312,11.937-4.164C87.26,73.947,85.396,79.292,80.952,83.738z
	 M80.952,66.442c-4.449,4.45-9.792,6.312-11.938,4.167c-0.371-0.373-0.584-0.865-0.723-1.406c-0.14,0.541-0.349,1.035-0.721,1.406
	c-2.148,2.146-7.494,0.283-11.937-4.167c-4.448-4.442-6.31-9.791-4.162-11.937c2.147-2.15,7.492-0.283,11.94,4.161
	c2.667,2.669,4.385,5.653,4.88,8.086c0.498-2.433,2.211-5.417,4.882-8.086c4.443-4.444,9.789-6.309,11.937-4.161
	C87.26,56.651,85.396,62,80.952,66.442z M80.952,49.149c-4.449,4.445-9.792,6.308-11.938,4.164
	c-0.371-0.373-0.584-0.864-0.723-1.406c-0.14,0.542-0.348,1.035-0.72,1.406c-2.149,2.147-7.494,0.282-11.937-4.164
	c-4.449-4.443-6.311-9.788-4.163-11.937c2.147-2.149,7.492-0.285,11.94,4.16c2.667,2.67,4.385,5.654,4.88,8.087
	c0.498-2.434,2.211-5.417,4.882-8.087c4.443-4.445,9.789-6.307,11.937-4.16C87.26,39.361,85.396,44.707,80.952,49.149z
	 M68.297,41.062c-3.039,0-5.502-5.095-5.502-11.383c0-6.288,2.466-11.383,5.502-11.383c3.035,0,5.504,5.097,5.504,11.386
	C73.801,35.97,71.336,41.062,68.297,41.062z"/>
</svg>
