<?xml version="1.0" encoding="utf-8"?>
<!-- Generator: Adobe Illustrator 16.0.0, SVG Export Plug-In . SVG Version: 6.00 Build 0)  -->
<!DOCTYPE svg PUBLIC "-//W3C//DTD SVG 1.1//EN" "http://www.w3.org/Graphics/SVG/1.1/DTD/svg11.dtd">
<svg version="1.1"
	 id="svg2" xmlns:sodipodi="http://sodipodi.sourceforge.net/DTD/sodipodi-0.dtd" xmlns:dc="http://purl.org/dc/elements/1.1/" xmlns:rdf="http://www.w3.org/1999/02/22-rdf-syntax-ns#" xmlns:cc="http://creativecommons.org/ns#" xmlns:svg="http://www.w3.org/2000/svg" xmlns:inkscape="http://www.inkscape.org/namespaces/inkscape"
	 xmlns="http://www.w3.org/2000/svg" xmlns:xlink="http://www.w3.org/1999/xlink" x="0px" y="0px" width="136px" height="134.667px"
	 viewBox="0 0 136 134.667" enable-background="new 0 0 136 134.667" xml:space="preserve">
<circle fill="#FFFFFF" stroke="#96131F" stroke-width="1.9167" stroke-miterlimit="10" cx="68" cy="67.334" r="63.891"/>
<g>
	<title></title>
	<g id="Icons_new_Arranged_Names_Color">
		<g id="_x35_2_Cloud_Sync">
			<path id="Rectangle_1_copy_4" fill="#96131F" d="M70,87.543c6.7,0,12.289-4.758,13.574-11.08h5.62
				c-1.347,9.397-9.427,16.62-19.194,16.62c-6.771,0-12.73-3.471-16.198-8.73l-3.192,3.19v-2.771v-5.539v-2.771h0.195h5.621h5.264
				l-3.857,3.857C60.185,84.623,64.754,87.543,70,87.543z M83.575,70.924h-2.494h-2.77l3.856-3.855
				c-2.351-4.305-6.919-7.225-12.167-7.225c-6.7,0-12.289,4.758-13.574,11.08h-5.621c1.347-9.396,9.427-16.62,19.195-16.62
				c6.771,0,12.729,3.471,16.197,8.73l3.191-3.19v11.08h-0.194H83.575z M25.682,68.154c0-6.141,3.345-11.517,8.315-14.396
				c0.291-13.516,11.338-24.383,24.924-24.383c8.956,0,16.808,4.723,21.205,11.816c1.62-0.479,3.336-0.736,5.109-0.736
				c7.715,0,14.294,4.85,16.857,11.667c7.047,1.925,12.229,8.374,12.229,16.031c0,9.162-7.441,16.621-16.62,16.621h-5.36
				c0.865-1.742,1.53-3.598,1.975-5.541h3.396c6.114,0,11.07-4.973,11.07-11.08c0-6.118-4.971-11.08-11.07-11.08h-0.085
				c-0.69-6.232-5.973-11.08-12.39-11.08c-2.928,0-5.621,1.01-7.747,2.701c-2.407-7.974-9.808-13.781-18.567-13.781
				c-10.709,0-19.39,8.681-19.39,19.39c0,1.042,0.083,2.062,0.239,3.06c-4.899,1.144-8.549,5.549-8.549,10.79
				c0,6.119,4.969,11.08,11.072,11.08h2.778v5.541h-2.77C33.125,84.775,25.682,77.333,25.682,68.154z"/>
		</g>
	</g>
</g>
</svg>
