<?xml version="1.0" encoding="utf-8"?>
<!-- Generator: Adobe Illustrator 16.0.0, SVG Export Plug-In . SVG Version: 6.00 Build 0)  -->
<!DOCTYPE svg PUBLIC "-//W3C//DTD SVG 1.1//EN" "http://www.w3.org/Graphics/SVG/1.1/DTD/svg11.dtd">
<svg version="1.1"
	 id="svg2" xmlns:sodipodi="http://sodipodi.sourceforge.net/DTD/sodipodi-0.dtd" xmlns:dc="http://purl.org/dc/elements/1.1/" xmlns:rdf="http://www.w3.org/1999/02/22-rdf-syntax-ns#" xmlns:cc="http://creativecommons.org/ns#" xmlns:svg="http://www.w3.org/2000/svg" xmlns:inkscape="http://www.inkscape.org/namespaces/inkscape"
	 xmlns="http://www.w3.org/2000/svg" xmlns:xlink="http://www.w3.org/1999/xlink" x="0px" y="0px" width="136px" height="134.667px"
	 viewBox="0 0 136 134.667" enable-background="new 0 0 136 134.667" xml:space="preserve">
<circle fill="none" stroke="#96131F" stroke-width="1.9167" stroke-miterlimit="10" enable-background="new    " cx="67.891" cy="67.333" r="63.891"/>
<g id="background">
	<rect x="53.361" y="50.729" fill="none" width="32" height="32"/>
</g>
<g>
	<g id="background_1_">
		<polygon fill="none" points="35.861,22.229 117.861,22.229 121.861,108.229 35.861,108.229 		"/>
	</g>
	<g id="document_x5F_text">
		<polygon fill="#96131F" points="46.611,81.354 46.611,75.979 78.861,75.979 78.861,81.354 		"/>
		<polygon fill="#96131F" points="46.611,59.854 46.611,54.479 89.611,54.479 89.611,59.854 		"/>
		<polygon fill="#96131F" points="46.611,70.604 46.611,65.229 89.611,65.229 89.611,70.604 		"/>
		<path fill="#96131F" d="M85.348,22.229H35.861v86h64.5V37.236L85.348,22.229z M84.23,28.714l9.644,9.64H84.23V28.714z
			 M41.236,102.854V27.599h37.625v16.127h16.125v59.128H41.236z"/>
	</g>
</g>
</svg>
