<?xml version="1.0" encoding="utf-8"?>
<!-- Generator: Adobe Illustrator 16.0.0, SVG Export Plug-In . SVG Version: 6.00 Build 0)  -->
<!DOCTYPE svg PUBLIC "-//W3C//DTD SVG 1.1//EN" "http://www.w3.org/Graphics/SVG/1.1/DTD/svg11.dtd">
<svg version="1.1" id="Layer_1" xmlns="http://www.w3.org/2000/svg" xmlns:xlink="http://www.w3.org/1999/xlink" x="0px" y="0px"
	 width="528.053px" height="384.039px" viewBox="0 0 528.053 384.039" enable-background="new 0 0 528.053 384.039"
	 xml:space="preserve">
<polyline fill="#F6F7F7" stroke="#922424" stroke-width="2" stroke-miterlimit="10" points="180.221,310.496 180.221,341.063 
	155.433,362.134 180.221,367.091 232.576,367.091 284.933,367.091 309.719,362.134 284.748,341.634 284.748,311.066 
	179.893,311.066 "/>
<defs>
	<filter id="Adobe_OpacityMaskFilter" filterUnits="userSpaceOnUse" x="15.03" y="14.316" width="431.092" height="297.18">
		
			<feColorMatrix  type="matrix" values="-1 0 0 0 1  0 -1 0 0 1  0 0 -1 0 1  0 0 0 1 0" color-interpolation-filters="sRGB" result="source"/>
		<feFlood  style="flood-color:white;flood-opacity:1" result="back"/>
		<feBlend  in="source" in2="back" mode="normal"/>
	</filter>
</defs>
<mask maskUnits="userSpaceOnUse" x="15.03" y="14.316" width="431.092" height="297.18" id="SVGID_1_">
	<g filter="url(#Adobe_OpacityMaskFilter)">
		<rect x="45.827" y="43.54" fill="#FFFFFF" stroke="#231F20" stroke-miterlimit="10" width="369" height="231.81"/>
	</g>
</mask>
<path mask="url(#SVGID_1_)" fill="#F6F7F7" stroke="#922424" stroke-width="2" stroke-miterlimit="10" d="M445.122,290.497
	c0,11.045-8.954,20-20,20H36.03c-11.046,0-20-8.955-20-20V35.316c0-11.046,8.954-20,20-20h389.092c11.046,0,20,8.954,20,20V290.497z
	"/>
<rect x="43.893" y="43.54" fill="#FFFFFF" stroke="#97131F" stroke-width="2" stroke-miterlimit="10" width="369" height="231.811"/>
<g>
	<title></title>
	<g id="Icons_new_Arranged_Names_Color">
		<g id="_x35_2_Cloud_Sync">
			<path id="Rectangle_1_copy_4" fill="#96131F" d="M232.074,232.774c19.867,0,36.438-14.107,40.25-32.855h16.663
				c-3.992,27.866-27.951,49.285-56.913,49.285c-20.078,0-37.747-10.293-48.031-25.888l-9.465,9.458v-8.216v-16.424v-8.216h0.58
				h16.667h15.609l-11.437,11.436C202.971,224.114,216.519,232.774,232.074,232.774z M272.327,183.495h-7.396h-8.215l11.435-11.43
				c-6.97-12.764-20.516-21.423-36.077-21.423c-19.868,0-36.44,14.109-40.25,32.854h-16.667
				c3.993-27.86,27.952-49.279,56.917-49.279c20.079,0,37.743,10.291,48.026,25.886l9.465-9.46v32.854h-0.578H272.327z
				 M100.663,175.282c0-18.208,9.917-34.149,24.655-42.687c0.863-40.076,33.619-72.299,73.904-72.299
				c26.556,0,49.837,14.005,62.877,35.037c4.804-1.421,9.892-2.183,15.147-2.183c22.878,0,42.388,14.382,49.984,34.596
				c20.896,5.707,36.261,24.83,36.261,47.534c0,27.167-22.062,49.284-49.279,49.284h-15.894c2.565-5.163,4.537-10.671,5.857-16.43
				h10.068c18.13,0,32.826-14.748,32.826-32.854c0-18.141-14.743-32.854-32.826-32.854h-0.252
				c-2.045-18.48-17.711-32.854-36.74-32.854c-8.682,0-16.665,2.994-22.969,8.007c-7.138-23.645-29.083-40.862-55.056-40.862
				c-31.754,0-57.494,25.74-57.494,57.494c0,3.09,0.246,6.116,0.708,9.074c-14.526,3.393-25.349,16.455-25.349,31.995
				c0,18.144,14.733,32.854,32.83,32.854h8.237v16.43h-8.212C122.732,224.566,100.663,202.501,100.663,175.282z"/>
		</g>
	</g>
</g>
<defs>
	<filter id="Adobe_OpacityMaskFilter_1_" filterUnits="userSpaceOnUse" x="321.315" y="161.906" width="161.816" height="206.56">
		<feColorMatrix  type="matrix" values="1 0 0 0 0  0 1 0 0 0  0 0 1 0 0  0 0 0 1 0"/>
	</filter>
</defs>
<mask maskUnits="userSpaceOnUse" x="321.315" y="161.906" width="161.816" height="206.56" id="SVGID_2_">
	<g filter="url(#Adobe_OpacityMaskFilter_1_)">
		<rect x="338.554" y="179.445" fill="#FFFFFF" width="124.777" height="169.219"/>
	</g>
</mask>
<path mask="url(#SVGID_2_)" fill="#F7F7F7" stroke="#000000" stroke-width="2" stroke-miterlimit="10" d="M482.132,358.919
	c0,4.72-3.826,8.547-8.547,8.547H330.862c-4.722,0-8.547-3.827-8.547-8.547V171.453c0-4.72,3.825-8.547,8.547-8.547h142.723
	c4.721,0,8.547,3.827,8.547,8.547V358.919L482.132,358.919z"/>
<defs>
	<filter id="Adobe_OpacityMaskFilter_2_" filterUnits="userSpaceOnUse" x="321.316" y="161.907" width="161.816" height="206.559">
		
			<feColorMatrix  type="matrix" values="-1 0 0 0 1  0 -1 0 0 1  0 0 -1 0 1  0 0 0 1 0" color-interpolation-filters="sRGB" result="source"/>
		<feFlood  style="flood-color:white;flood-opacity:1" result="back"/>
		<feBlend  in="source" in2="back" mode="normal"/>
	</filter>
</defs>
<mask maskUnits="userSpaceOnUse" x="321.316" y="161.907" width="161.816" height="206.559" id="SVGID_4_">
	<g filter="url(#Adobe_OpacityMaskFilter_2_)">
		<rect x="338.555" y="179.446" fill="#FFFFFF" width="124.777" height="169.217"/>
	</g>
</mask>
<path mask="url(#SVGID_4_)" fill="#F6F7F7" stroke="#922424" stroke-width="2" stroke-miterlimit="10" d="M482.133,358.918
	c0,4.721-3.826,8.547-8.547,8.547H330.863c-4.721,0-8.547-3.826-8.547-8.547V171.454c0-4.721,3.826-8.547,8.547-8.547h142.723
	c4.721,0,8.547,3.826,8.547,8.547V358.918z"/>
<rect x="180.221" y="311.066" fill="#F6F7F7" stroke="#922424" stroke-width="2" stroke-miterlimit="10" width="104.527" height="30.566"/>
<rect x="339.089" y="179.188" fill="#FFFFFF" stroke="#932424" stroke-miterlimit="10" width="124.271" height="169.997"/>
<defs>
	<filter id="Adobe_OpacityMaskFilter_3_" filterUnits="userSpaceOnUse" x="446.361" y="241.322" width="69.516" height="132.762">
		<feColorMatrix  type="matrix" values="1 0 0 0 0  0 1 0 0 0  0 0 1 0 0  0 0 0 1 0"/>
	</filter>
</defs>
<mask maskUnits="userSpaceOnUse" x="446.361" y="241.322" width="69.516" height="132.762" id="SVGID_3_">
	<g filter="url(#Adobe_OpacityMaskFilter_3_)">
		<rect x="453.064" y="261.693" fill="#FFFFFF" width="56.221" height="88.127"/>
	</g>
</mask>
<path mask="url(#SVGID_3_)" fill="#F7F7F7" stroke="#000000" stroke-width="2" stroke-miterlimit="10" d="M514.877,361.687
	c0,6.294-5.102,11.396-11.395,11.396h-44.726c-6.295,0-11.396-5.103-11.396-11.396V253.718c0-6.293,5.102-11.396,11.396-11.396
	h44.726c6.293,0,11.395,5.104,11.395,11.396V361.687z"/>
<rect x="453.118" y="262.453" fill="#FFFFFF" stroke="#932424" stroke-miterlimit="10" width="56.001" height="88.5"/>
<defs>
	<filter id="Adobe_OpacityMaskFilter_4_" filterUnits="userSpaceOnUse" x="446.375" y="242.324" width="69.516" height="132.76">
		
			<feColorMatrix  type="matrix" values="-1 0 0 0 1  0 -1 0 0 1  0 0 -1 0 1  0 0 0 1 0" color-interpolation-filters="sRGB" result="source"/>
		<feFlood  style="flood-color:white;flood-opacity:1" result="back"/>
		<feBlend  in="source" in2="back" mode="normal"/>
	</filter>
</defs>
<mask maskUnits="userSpaceOnUse" x="446.375" y="242.324" width="69.516" height="132.76" id="SVGID_5_">
	<g filter="url(#Adobe_OpacityMaskFilter_4_)">
		<rect x="453.078" y="262.695" fill="#FFFFFF" width="56.221" height="88.127"/>
	</g>
</mask>
<path mask="url(#SVGID_5_)" fill="#F6F7F7" stroke="#922424" stroke-width="2" stroke-miterlimit="10" d="M514.891,362.687
	c0,6.295-5.102,11.396-11.395,11.396h-44.725c-6.295,0-11.396-5.102-11.396-11.396V254.718c0-6.293,5.102-11.395,11.396-11.395
	h44.725c6.293,0,11.395,5.102,11.395,11.395V362.687z"/>
<g>
	<title></title>
	<g id="Icons_new_Arranged_Names_Color_1_">
		<g id="_x35_2_Cloud_Sync_1_">
			<path id="Rectangle_1_copy_4_1_" fill="#96131F" d="M406.224,264.635c6.7,0,12.289-4.758,13.574-11.08h5.619
				c-1.346,9.397-9.426,16.621-19.193,16.621c-6.771,0-12.73-3.472-16.198-8.73l-3.192,3.189v-2.771v-5.539v-2.771h0.195h5.621
				h5.264l-3.856,3.856C396.409,261.715,400.978,264.635,406.224,264.635z M419.799,248.016h-2.494h-2.771l3.856-3.854
				c-2.351-4.305-6.919-7.225-12.167-7.225c-6.7,0-12.289,4.758-13.574,11.079h-5.621c1.348-9.396,9.428-16.619,19.195-16.619
				c6.771,0,12.729,3.471,16.197,8.729l3.191-3.189v11.079h-0.195H419.799z M361.905,245.247c0-6.141,3.346-11.517,8.315-14.396
				c0.291-13.516,11.338-24.383,24.924-24.383c8.956,0,16.808,4.723,21.205,11.815c1.62-0.479,3.336-0.735,5.108-0.735
				c7.716,0,14.295,4.85,16.857,11.666c7.047,1.926,12.229,8.375,12.229,16.031c0,9.162-7.44,16.621-16.619,16.621h-5.36
				c0.865-1.741,1.53-3.599,1.976-5.541h3.396c6.114,0,11.07-4.974,11.07-11.08c0-6.117-4.972-11.08-11.07-11.08h-0.085
				c-0.689-6.232-5.973-11.08-12.391-11.08c-2.928,0-5.62,1.01-7.746,2.701c-2.407-7.975-9.809-13.781-18.567-13.781
				c-10.709,0-19.39,8.682-19.39,19.391c0,1.041,0.083,2.062,0.238,3.06c-4.898,1.144-8.549,5.55-8.549,10.79
				c0,6.119,4.969,11.08,11.072,11.08h2.777v5.541h-2.77C369.349,261.868,361.905,254.426,361.905,245.247z"/>
		</g>
	</g>
</g>
<g>
	<title></title>
	<g id="Icons_new_Arranged_Names_Color_2_">
		<g id="_x35_2_Cloud_Sync_2_">
			<path id="Rectangle_1_copy_4_2_" fill="#96131F" d="M481.854,301.756c2.812,0,5.155-1.997,5.694-4.649h2.358
				c-0.565,3.942-3.954,6.973-8.053,6.973c-2.841,0-5.341-1.456-6.797-3.662l-1.339,1.339v-1.163v-2.324v-1.162h0.083h2.357h2.209
				l-1.619,1.618C477.736,300.531,479.653,301.756,481.854,301.756z M487.55,294.783h-1.047h-1.162l1.618-1.616
				c-0.985-1.807-2.903-3.032-5.104-3.032c-2.811,0-5.156,1.996-5.695,4.648h-2.357c0.564-3.942,3.955-6.973,8.053-6.973
				c2.841,0,5.34,1.456,6.795,3.663l1.339-1.339v4.648h-0.081H487.55z M463.261,293.621c0-2.576,1.403-4.831,3.488-6.04
				c0.122-5.671,4.757-10.229,10.457-10.229c3.758,0,7.052,1.981,8.896,4.958c0.68-0.201,1.399-0.31,2.144-0.31
				c3.236,0,5.997,2.035,7.072,4.896c2.957,0.808,5.131,3.513,5.131,6.726c0,3.844-3.122,6.974-6.973,6.974h-2.249
				c0.362-0.73,0.642-1.51,0.828-2.325h1.426c2.564,0,4.644-2.087,4.644-4.648c0-2.567-2.085-4.648-4.644-4.648h-0.036
				c-0.289-2.615-2.506-4.648-5.198-4.648c-1.229,0-2.358,0.423-3.25,1.133c-1.011-3.346-4.115-5.781-7.79-5.781
				c-4.493,0-8.135,3.642-8.135,8.135c0,0.437,0.034,0.865,0.1,1.283c-2.056,0.479-3.587,2.328-3.587,4.527
				c0,2.567,2.085,4.648,4.646,4.648h1.165v2.325h-1.162C466.383,300.594,463.261,297.472,463.261,293.621z"/>
		</g>
	</g>
</g>
</svg>
