<?xml version="1.0" encoding="utf-8"?>
<!-- Generator: Adobe Illustrator 17.0.2, SVG Export Plug-In . SVG Version: 6.00 Build 0)  -->
<!DOCTYPE svg PUBLIC "-//W3C//DTD SVG 1.1//EN" "http://www.w3.org/Graphics/SVG/1.1/DTD/svg11.dtd">
<svg version="1.1" id="Layer_1" xmlns="http://www.w3.org/2000/svg" xmlns:xlink="http://www.w3.org/1999/xlink" x="0px" y="0px"
	 width="243px" height="204.5px" viewBox="0 0 243 204.5" enable-background="new 0 0 243 204.5" xml:space="preserve">
<g>
	<g>
		<g>
			<defs>
				<path id="SVGID_2_" d="M175.098,60.683c0,28.353-22.982,51.336-51.334,51.336c-28.361,0-51.342-22.983-51.342-51.336
					s22.98-51.338,51.342-51.338C152.113,9.345,175.098,32.33,175.098,60.683z"/>
			</defs>
			<clipPath id="SVGID_4_">
				<use xlink:href="#SVGID_2_"  overflow="visible"/>
			</clipPath>
			<path clip-path="url(#SVGID_4_)" fill="none" stroke="#97131F" stroke-miterlimit="10" d="M150.625,104.75
				c0-13.413-7.91-28.664-18.823-32.411c-0.012-0.004,1.091-0.007,0.408-0.011"/>
		</g>
	</g>
	<g>
		<g>
			<defs>
				<path id="SVGID_6_" d="M175.098,60.683c0,28.353-22.982,51.336-51.334,51.336c-28.361,0-51.342-22.983-51.342-51.336
					s22.98-51.338,51.342-51.338C152.113,9.345,175.098,32.33,175.098,60.683z"/>
			</defs>
			<clipPath id="SVGID_7_">
				<use xlink:href="#SVGID_6_"  overflow="visible"/>
			</clipPath>
			<path clip-path="url(#SVGID_7_)" fill="none" stroke="#97131F" stroke-miterlimit="10" d="M116.153,72.115
				c-4.621-3.969-8.824-11.801-8.824-19.688c0-12.322,7.464-22.309,16.687-22.309c9.213,0,16.68,9.986,16.68,22.309
				c0,7.726-4.451,16.053-8.912,20.059"/>
		</g>
	</g>
	<g>
		<g>
			<defs>
				<path id="SVGID_8_" d="M175.098,60.683c0,28.353-22.982,51.336-51.334,51.336c-28.361,0-51.342-22.983-51.342-51.336
					s22.98-51.338,51.342-51.338C152.113,9.345,175.098,32.33,175.098,60.683z"/>
			</defs>
			<clipPath id="SVGID_9_">
				<use xlink:href="#SVGID_8_"  overflow="visible"/>
			</clipPath>
			<path clip-path="url(#SVGID_9_)" fill="none" stroke="#97131F" stroke-miterlimit="10" d="M97.329,104.527
				c0-13.415,7.911-28.666,18.824-32.412c0.012-0.004-1.091-0.007-0.408-0.01"/>
		</g>
	</g>
	<g>
		<path id="SVGID_1_" fill="none" stroke="#97131F" stroke-width="2" stroke-miterlimit="10" d="M175.098,60.683
			c0,28.353-22.982,51.336-51.334,51.336c-28.361,0-51.342-22.983-51.342-51.336s22.98-51.338,51.342-51.338
			C152.113,9.345,175.098,32.33,175.098,60.683z"/>
	</g>
</g>
<line fill="none" stroke="#97131F" stroke-width="2" stroke-miterlimit="10" x1="63.558" y1="129.968" x2="89.411" y2="98.107"/>
<line fill="none" stroke="#97131F" stroke-width="2" stroke-miterlimit="10" x1="186.441" y1="127.758" x2="160.59" y2="95.897"/>
<path fill="none" d="M75.462,156.536c0,18.731-15.185,33.917-33.915,33.917c-18.737,0-33.921-15.186-33.921-33.917
	s15.184-33.918,33.921-33.918C60.277,122.618,75.462,137.805,75.462,156.536z"/>
<path fill="none" stroke="#97131F" stroke-miterlimit="10" d="M36.519,164.09c-3.053-2.622-5.83-7.797-5.83-13.008
	c0-8.143,4.932-14.739,11.024-14.739c6.086,0,11.02,6.599,11.02,14.739c0,5.104-2.94,10.605-5.888,13.252"/>
<g>
	<g>
		<defs>
			<path id="SVGID_10_" d="M75.462,156.536c0,18.731-15.185,33.917-33.915,33.917c-18.737,0-33.921-15.186-33.921-33.917
				s15.184-33.918,33.921-33.918C60.277,122.618,75.462,137.805,75.462,156.536z"/>
		</defs>
		<clipPath id="SVGID_11_">
			<use xlink:href="#SVGID_10_"  overflow="visible"/>
		</clipPath>
		<path clip-path="url(#SVGID_11_)" fill="none" stroke="#97131F" stroke-miterlimit="10" d="M24.082,185.504
			c0-8.861,5.227-18.938,12.437-21.414c0.008-0.003-0.721-0.005-0.27-0.007"/>
	</g>
</g>
<g>
	<g>
		<defs>
			<path id="SVGID_12_" d="M75.462,156.536c0,18.731-15.185,33.917-33.915,33.917c-18.737,0-33.921-15.186-33.921-33.917
				s15.184-33.918,33.921-33.918C60.277,122.618,75.462,137.805,75.462,156.536z"/>
		</defs>
		<clipPath id="SVGID_13_">
			<use xlink:href="#SVGID_12_"  overflow="visible"/>
		</clipPath>
		<path clip-path="url(#SVGID_13_)" fill="none" stroke="#97131F" stroke-miterlimit="10" d="M59.294,185.65
			c0-8.861-5.227-18.938-12.437-21.414c-0.008-0.002,0.721-0.004,0.27-0.006"/>
	</g>
</g>
<path id="SVGID_3_" fill="none" stroke="#97131F" stroke-width="2" stroke-miterlimit="10" d="M75.462,156.536
	c0,18.731-15.185,33.917-33.915,33.917c-18.737,0-33.921-15.186-33.921-33.917s15.184-33.918,33.921-33.918
	C60.277,122.618,75.462,137.805,75.462,156.536z"/>
<g>
	<g>
		<g>
			<g>
				<defs>
					<path id="SVGID_14_" d="M232.643,159.23c0,18.731-15.185,33.916-33.914,33.916c-18.737,0-33.922-15.185-33.922-33.916
						c0-18.732,15.185-33.918,33.922-33.918C217.458,125.312,232.643,140.498,232.643,159.23z"/>
				</defs>
				<clipPath id="SVGID_15_">
					<use xlink:href="#SVGID_14_"  overflow="visible"/>
				</clipPath>
				<path clip-path="url(#SVGID_15_)" fill="none" stroke="#97131F" stroke-miterlimit="10" d="M193.699,166.784
					c-3.053-2.622-5.83-7.798-5.83-13.009c0-8.142,4.932-14.738,11.023-14.738c6.086,0,11.021,6.598,11.021,14.738
					c0,5.104-2.94,10.605-5.888,13.252"/>
			</g>
		</g>
		<g>
			<g>
				<defs>
					<path id="SVGID_16_" d="M232.643,159.23c0,18.731-15.185,33.916-33.914,33.916c-18.737,0-33.922-15.185-33.922-33.916
						c0-18.732,15.185-33.918,33.922-33.918C217.458,125.312,232.643,140.498,232.643,159.23z"/>
				</defs>
				<clipPath id="SVGID_17_">
					<use xlink:href="#SVGID_16_"  overflow="visible"/>
				</clipPath>
				<path clip-path="url(#SVGID_17_)" fill="none" stroke="#97131F" stroke-miterlimit="10" d="M181.264,188.198
					c0-8.862,5.227-18.938,12.437-21.414c0.008-0.003-0.722-0.005-0.271-0.007"/>
			</g>
		</g>
		<g>
			<g>
				<defs>
					<path id="SVGID_18_" d="M232.643,159.23c0,18.731-15.185,33.916-33.914,33.916c-18.737,0-33.922-15.185-33.922-33.916
						c0-18.732,15.185-33.918,33.922-33.918C217.458,125.312,232.643,140.498,232.643,159.23z"/>
				</defs>
				<clipPath id="SVGID_19_">
					<use xlink:href="#SVGID_18_"  overflow="visible"/>
				</clipPath>
				
					<line clip-path="url(#SVGID_19_)" fill="none" stroke="#97131F" stroke-miterlimit="10" x1="216.536" y1="197.146" x2="181.251" y2="197.146"/>
			</g>
		</g>
		<g>
			<g>
				<defs>
					<path id="SVGID_20_" d="M232.643,159.23c0,18.731-15.185,33.916-33.914,33.916c-18.737,0-33.922-15.185-33.922-33.916
						c0-18.732,15.185-33.918,33.922-33.918C217.458,125.312,232.643,140.498,232.643,159.23z"/>
				</defs>
				<clipPath id="SVGID_21_">
					<use xlink:href="#SVGID_20_"  overflow="visible"/>
				</clipPath>
				<path clip-path="url(#SVGID_21_)" fill="none" stroke="#97131F" stroke-miterlimit="10" d="M216.475,188.346
					c0-8.861-5.227-18.938-12.437-21.414c-0.009-0.003,0.721-0.005,0.271-0.007"/>
			</g>
		</g>
		<g>
			<path id="SVGID_5_" fill="none" stroke="#97131F" stroke-width="2" stroke-miterlimit="10" d="M232.643,159.23
				c0,18.731-15.185,33.916-33.914,33.916c-18.737,0-33.922-15.185-33.922-33.916c0-18.732,15.185-33.918,33.922-33.918
				C217.458,125.312,232.643,140.498,232.643,159.23z"/>
		</g>
	</g>
</g>
</svg>
