<?xml version="1.0" encoding="utf-8"?>
<!-- Generator: Adobe Illustrator 16.0.0, SVG Export Plug-In . SVG Version: 6.00 Build 0)  -->
<!DOCTYPE svg PUBLIC "-//W3C//DTD SVG 1.1//EN" "http://www.w3.org/Graphics/SVG/1.1/DTD/svg11.dtd">
<svg version="1.1" id="Layer_1" xmlns="http://www.w3.org/2000/svg" xmlns:xlink="http://www.w3.org/1999/xlink" x="0px" y="0px"
	 width="197px" height="192px" viewBox="0 0 197 192" enable-background="new 0 0 197 192" xml:space="preserve">
<g>
	<circle fill="#FFFFFF" stroke="#97131F" stroke-width="2" stroke-miterlimit="10" cx="99.71" cy="95.414" r="88.211"/>
	<g>
		<path fill="none" stroke="#97131F" stroke-width="1.5" stroke-miterlimit="10" d="M140.744,143.813
			c0,2.454-2.522,4.446-5.634,4.446H64.312c-3.112,0-5.637-1.992-5.637-4.446V87.916c0-2.459,2.524-4.453,5.637-4.453h70.798
			c3.111,0,5.634,1.994,5.634,4.453V143.813z"/>
		<path fill="#FFFFFF" stroke="#932424" stroke-miterlimit="10" d="M105.069,116.48c2.167-1.681,3.562-4.312,3.562-7.265
			c0-5.075-4.114-9.193-9.189-9.193c-5.08,0-9.194,4.118-9.194,9.193c0,2.942,1.385,5.563,3.539,7.245v14.722h11.278L105.069,116.48
			z"/>
		<path fill="none" stroke="#97131F" stroke-width="1.5" stroke-miterlimit="10" d="M64.286,65.348v13.779H77.37l0.001-11.059v0.787
			c0-16.913,10-28.622,22.334-28.622c12.34,0,22.344,11.709,22.344,28.622v-0.787v11.059h-0.004h12.527V65.348v0.979
			c0-21.07-15.735-38.15-35.145-38.15c-19.407,0-35.142,17.08-35.142,38.15"/>
	</g>
</g>
</svg>
