<?xml version="1.0" encoding="utf-8"?>
<!-- Generator: Adobe Illustrator 16.0.0, SVG Export Plug-In . SVG Version: 6.00 Build 0)  -->
<!DOCTYPE svg PUBLIC "-//W3C//DTD SVG 1.1//EN" "http://www.w3.org/Graphics/SVG/1.1/DTD/svg11.dtd">
<svg version="1.1" id="Layer_1" xmlns="http://www.w3.org/2000/svg" xmlns:xlink="http://www.w3.org/1999/xlink" x="0px" y="0px"
	 width="72px" height="33.018px" viewBox="0 0 72 33.018" enable-background="new 0 0 72 33.018" xml:space="preserve">
<g opacity="0.7">
	<g>
		<path fill="#FFFFFF" d="M5.09,25.072c-0.064-0.095-0.126-0.189-0.19-0.284c-0.079-0.149-0.25-0.278-0.116-0.48
			c0.278-0.048,0.334,0.189,0.436,0.353c0.611,0.985,1.245,1.945,2.065,2.783c1.323,1.351,2.642,1.557,4.265,0.782
			c1.573-0.753,3.152-0.607,4.698,0.055c1.356,0.582,2.503,0.36,3.492-0.618c1.562-1.542,2.735-3.33,3.194-5.521
			c0.022-0.107,0.045-0.224,0.193-0.231c0.233,0.951-0.233,1.752-0.59,2.56c-0.479,1.087-1.192,2.04-1.931,2.964
			c-0.689,0.864-1.581,1.454-2.688,1.636c-0.577,0.094-1.127-0.121-1.669-0.283c-0.769-0.232-1.494-0.687-2.315-0.637
			c-0.685,0.041-1.379,0.149-2.022,0.436c-0.94,0.42-1.902,0.652-2.944,0.415c-0.385-0.088-0.716-0.237-1.011-0.487
			c-0.147-0.144-0.325-0.25-0.481-0.383c-0.323-0.247-0.608-0.534-0.856-0.857c-0.217-0.292-0.472-0.556-0.669-0.862
			c-0.096-0.126-0.191-0.252-0.286-0.378C5.514,25.687,5.217,25.43,5.09,25.072z"/>
		<path fill="#FFFFFF" d="M23.127,21.909c-0.47,2.353-1.682,4.294-3.386,5.93c-0.942,0.905-2.108,1.188-3.335,0.639
			c-1.757-0.786-3.47-0.817-5.22,0.01c-1.272,0.604-2.621,0.33-3.647-0.617c-1.027-0.949-1.801-2.086-2.507-3.277
			c-0.063-0.108-0.146-0.204-0.22-0.307c-0.193-0.14-0.305-0.31-0.218-0.56c0.041-0.028,0.087-0.041,0.137-0.037
			c0.314,0.154,0.391,0.49,0.543,0.756c0.604,1.048,1.293,2.035,2.14,2.901c1,1.023,2.252,1.471,3.912,0.75
			c0.893-0.399,1.817-0.64,2.812-0.581c0.873,0.052,1.663,0.376,2.462,0.678c1.369,0.497,2.495,0.011,3.393-0.981
			c1.224-1.352,2.199-2.869,2.716-4.653c0.124-0.431-0.005-0.625-0.332-0.855c-1.039-0.723-1.858-1.635-2.278-2.857
			c-0.082-0.24-0.168-0.48-0.165-0.74c0.021-0.121,0.046-0.242,0.161-0.316c0.299,1.46,1.025,2.649,2.225,3.544
			C22.584,21.531,22.921,21.629,23.127,21.909z"/>
		<path fill="#FFFFFF" d="M4.797,11.785c1.744-2.193,4.471-2.869,6.958-1.661c1.061,0.516,2.072,0.568,3.156,0.104
			c0.787-0.338,1.611-0.591,2.472-0.684c1.971-0.208,3.586,0.461,4.854,1.979c0.111,0.132,0.22,0.273,0.237,0.457
			c0.05,0.094-0.006,0.118-0.082,0.132c-0.45-0.48-0.833-1.029-1.399-1.393c-0.105-0.091-0.226-0.159-0.353-0.218
			c-1.398-0.771-2.857-0.874-4.376-0.412c-0.608,0.187-1.216,0.373-1.812,0.592c-0.772,0.284-1.518,0.254-2.271-0.064
			c-0.612-0.258-1.213-0.557-1.874-0.683C8.44,9.58,6.868,10.175,5.502,11.43c-0.186,0.171-0.334,0.387-0.579,0.488
			C4.833,11.919,4.771,11.896,4.797,11.785z"/>
		<path fill="#FFFFFF" d="M18.191,3.966c0.325,0.847,0.087,1.654-0.241,2.421c-0.813,1.899-2.274,3.059-4.27,3.549
			c-0.434,0.107-0.761-0.269-0.75-0.821c0.111-0.013,0.157,0.071,0.209,0.144c0.192,0.26,0.452,0.243,0.725,0.18
			c0.764-0.18,1.426-0.563,2.041-1.034c0.372-0.361,0.775-0.695,1.037-1.156c0.71-0.766,0.974-1.711,1.104-2.709
			C18.073,4.341,17.997,4.118,18.191,3.966z"/>
		<path fill="#FFFFFF" d="M13.021,9.317c-0.029-0.068-0.06-0.136-0.09-0.203c0.286-2.62,1.872-4.608,4.243-5.291
			c0.342-0.098,0.738-0.325,1.018,0.143c0.023,1.093-0.271,2.099-0.857,3.018c-0.094,0.149-0.148,0.372-0.407,0.326
			c-0.006-0.022-0.012-0.044-0.019-0.067c0.017-0.12,0.085-0.218,0.144-0.319c0.454-0.695,0.733-1.454,0.831-2.279
			c0.113-0.613,0.019-0.725-0.559-0.545c-2.23,0.69-3.592,2.176-4.039,4.479c-0.089,0.232,0.003,0.498-0.134,0.722
			C13.114,9.345,13.07,9.351,13.021,9.317z"/>
		<path fill="#FFFFFF" d="M4.797,11.785c0.031,0.037,0.061,0.072,0.09,0.108c0.072,0.209-0.093,0.323-0.188,0.459
			c-0.875,1.244-1.303,2.626-1.4,4.144c-0.069,1.103-0.004,2.185,0.2,3.263c0.187,0.901,0.443,1.783,0.806,2.632
			c0.068,0.159,0.143,0.318,0.159,0.496C4.439,23,4.397,23.092,4.258,23.086c-0.376-0.391-0.47-0.923-0.639-1.399
			c-0.381-1.071-0.665-2.184-0.693-3.321c-0.02-0.687-0.04-1.387,0.055-2.077c0.197-1.561,0.631-3.034,1.625-4.294
			C4.664,11.921,4.733,11.854,4.797,11.785z"/>
		<path fill="#FFFFFF" d="M2.98,16.288c-0.054,1.531,0.058,3.048,0.484,4.526c0.225,0.775,0.457,1.551,0.854,2.262
			c0.225,0.167,0.313,0.394,0.284,0.67c0.071,0.18,0.142,0.36,0.21,0.54c-0.044,0.18,0.078,0.332,0.087,0.502
			c-0.147-0.075-0.252-0.194-0.312-0.347c-0.539-1.394-1.145-2.757-1.516-4.216c-0.324-1.275-0.146-2.544-0.161-3.818
			C2.91,16.368,2.956,16.328,2.98,16.288z"/>
		<path fill="#FFFFFF" d="M22.557,12.171c0.104,0.417-0.154,0.67-0.439,0.874c-0.993,0.71-1.524,1.687-1.778,2.864
			c-0.095,0.444-0.305,0.864-0.259,1.336c-0.322-0.081-0.217-0.355-0.207-0.544c0.068-1.322,0.478-2.514,1.431-3.473
			C21.688,12.841,22.045,12.414,22.557,12.171z"/>
		<path fill="#FFFFFF" d="M22.557,12.171c-0.498,0.597-1.168,1.024-1.614,1.674c-0.705,1.029-1.056,2.145-0.862,3.4
			c0.006,0.182,0.01,0.363,0.014,0.544c-0.018,0.107,0.01,0.228-0.088,0.312c-0.224-0.178-0.235-0.44-0.246-0.69
			c-0.02-0.52-0.035-1.041,0.018-1.561c0.309-1.507,1.133-2.681,2.342-3.604c0.088-0.066,0.172-0.141,0.285-0.16
			c0.023-0.036,0.047-0.07,0.07-0.106C22.503,12.043,22.529,12.107,22.557,12.171z"/>
		<path fill="#FFFFFF" d="M5.09,25.072c0.248,0.284,0.507,0.563,0.573,0.959C5.439,25.73,5.066,25.52,5.09,25.072z"/>
		<path fill="#FFFFFF" d="M5.949,26.409c0.314,0.217,0.526,0.512,0.669,0.862C6.326,27.037,6.018,26.815,5.949,26.409z"/>
		<path fill="#FFFFFF" d="M7.475,28.129c0.22,0.053,0.412,0.141,0.481,0.383C7.738,28.457,7.55,28.365,7.475,28.129z"/>
		<path fill="#FFFFFF" d="M19.893,15.715c0.005,0.798-0.095,1.6,0.113,2.387c0.345,1.577,1.24,2.767,2.594,3.609
			c0.324,0.202,0.365,0.379,0.262,0.727c-0.614,2.095-1.706,3.897-3.335,5.339c-0.817,0.723-1.806,0.971-2.879,0.538
			c-0.145-0.283,0.059-0.406,0.251-0.52c0.213-0.124,0.457-0.156,0.692-0.146c1.144,0.058,1.964-0.516,2.651-1.342
			c0.283-0.341,0.566-0.684,0.811-1.056c0.283-0.36,0.463-0.78,0.691-1.172c0.252-0.453,0.539-0.888,0.685-1.395
			c0.141-0.49,0.093-0.574-0.348-0.823c-0.983-0.557-1.748-1.332-2.233-2.367c-0.479-1.068-0.727-2.167-0.426-3.335
			C19.535,15.967,19.615,15.737,19.893,15.715z"/>
		<path fill="#FFFFFF" d="M21.136,25.266c-0.611,0.961-1.271,1.867-2.376,2.333c-0.455,0.191-0.929,0.115-1.391,0.18
			c-0.334,0.047-0.672,0.101-0.722,0.536c-0.477-0.065-0.886-0.326-1.341-0.459c-1.22-0.354-2.402-0.303-3.566,0.219
			c-0.141,0.063-0.279,0.155-0.448,0.132c-0.251-0.135-0.512-0.134-0.788-0.09c-0.226,0.036-0.474,0.118-0.658-0.117
			c0.209-0.287,0.55-0.301,0.845-0.358c0.655-0.127,1.289-0.32,1.929-0.503c0.711-0.201,1.468-0.194,2.165-0.045
			c0.68,0.146,1.337,0.197,2.016,0.142c0.683,0.08,1.368,0.23,2.029-0.105c0.749-0.354,1.3-0.937,1.832-1.548
			C20.788,25.433,20.872,25.211,21.136,25.266z"/>
		<path fill="#FFFFFF" d="M9.867,28.031c0.264,0.001,0.521-0.021,0.787-0.068c0.227-0.043,0.556-0.168,0.638,0.243
			c-1.328,0.73-2.916,0.362-4.081-0.898c-0.926-1.001-1.662-2.124-2.318-3.309c-0.053-0.094-0.074-0.214-0.19-0.264
			c-0.019-0.089,0.033-0.124,0.11-0.143c0.248,0.029,0.336,0.231,0.444,0.41c0.409,0.688,0.745,1.427,1.334,1.998
			c0.606,0.742,1.254,1.421,2.178,1.796C9.131,27.944,9.536,27.795,9.867,28.031z"/>
		<path fill="#FFFFFF" d="M4.799,23.637c-0.031,0.033-0.065,0.066-0.097,0.099c-0.034,0.004-0.066,0.008-0.1,0.011
			c-0.095-0.225-0.188-0.446-0.284-0.67c0.035-0.066,0.07-0.133,0.105-0.199c-0.041-0.325,0.131-0.542,0.372-0.723
			c0.188-0.066,0.378-0.12,0.534-0.259c0.087-0.077,0.212-0.167,0.287,0.03C5.413,22.53,5.178,23.116,4.799,23.637z"/>
		<path fill="#FFFFFF" d="M3.396,19.823c-0.475-2.438-0.418-4.813,0.869-7.032c0.181-0.313,0.412-0.6,0.621-0.897
			c1.239-1.395,2.73-2.249,4.656-2.181c0.643,0.022,1.254,0.169,1.841,0.424c0.247,0.107,0.493,0.216,0.739,0.326
			c0.771,0.351,1.539,0.392,2.353,0.096c1.069-0.388,2.132-0.816,3.294-0.866c1.075-0.048,2.076,0.171,2.981,0.771
			c-0.073,0.324-0.378,0.298-0.597,0.36c-1.266,0.363-2.514,0.77-3.729,1.288c-2.128,0.909-4.095,2.082-5.894,3.537
			c-0.751,0.598-1.472,1.23-2.131,1.933c-0.479,0.473-0.907,0.99-1.343,1.503c-0.244,0.327-0.523,0.627-0.75,0.97
			c-0.225,0.365-0.555,0.655-0.734,1.051c-0.279,0.188-0.273,0.638-0.66,0.729c-0.23-0.37-0.067-0.755,0.027-1.098
			c0.193-0.685,0.298-1.393,0.597-2.052c0.214-0.47,0-0.972-0.05-1.454c-0.071-0.668-0.283-1.291-0.697-1.844
			c-0.281-0.374-0.379-0.391-0.631,0.021c-0.184,0.3-0.313,0.624-0.389,0.968c-0.215,0.981-0.354,1.967-0.142,2.971
			c0.032,0.154,0.069,0.315-0.004,0.468C3.563,19.948,3.479,19.979,3.396,19.823z"/>
		<path fill="#FFFFFF" d="M19.893,15.715c-0.141,0.114-0.195,0.314-0.382,0.385c-0.125-0.168-0.022-0.325,0.02-0.485
			c0.419-0.57,0.414-1.278,0.645-1.932c-0.541,0.307-1.124,0.426-1.626,0.837c-0.686,0.562-1.212,1.251-1.839,1.852
			c-1.688,1.616-2.974,3.595-4.71,5.165c-0.836,0.756-1.678,1.508-2.55,2.223c-0.694,0.569-1.527,0.66-2.382,0.348
			c-0.329-0.119-0.627-0.308-0.975-0.381c-0.235-0.051-0.25-0.261-0.26-0.455c-0.03-0.699,0.17-1.353,0.412-1.993
			c0.083-0.226,0.16-0.446,0.18-0.686c0.009-0.047,0.023-0.092,0.043-0.137c0.193-0.241,0.227-0.647,0.66-0.646
			c0.201,0.156,0.108,0.34,0.042,0.518c-0.133,0.357-0.257,0.72-0.361,1.086c-0.106,0.372-0.013,0.482,0.361,0.433
			c1.22-0.163,2.378-0.514,3.438-1.151c0.083-0.05,0.168-0.098,0.23-0.17c0.821-0.957,2.011-1.576,2.572-2.774
			c0.532-0.302,0.707-0.864,0.998-1.346c0.206-0.34,0.466-0.638,0.778-0.894c0.282-0.231,0.542-0.495,0.706-0.831
			c0.292-0.598,0.754-1.066,1.264-1.451c0.555-0.418,0.684-0.871,0.418-1.479c0.348-0.367,0.85-0.378,1.282-0.544
			c0.587-0.226,1.204-0.362,1.806-0.545c0.119-0.036,0.246-0.062,0.371-0.004c0.601,0.339,1.035,0.835,1.369,1.43
			c-0.238,0.4-0.662,0.603-0.979,0.92C20.659,13.769,20.21,14.702,19.893,15.715z"/>
		<path fill="#FFFFFF" d="M21.035,10.656c-1.098,0.338-2.218,0.601-3.28,1.047c-0.056,0.024-0.103,0.064-0.154,0.099
			c-0.29,0.281-0.681,0.378-1.034,0.527c-0.479,0.202-0.934,0.443-1.389,0.689c-1.457,0.751-2.824,1.637-4.075,2.697
			c-0.133,0.112-0.272,0.225-0.463,0.225c-0.142-0.064-0.253-0.146-0.203-0.328c0.468-0.555,1.104-0.898,1.688-1.296
			c1.879-1.283,3.912-2.27,6.064-3.018c0.849-0.295,1.739-0.46,2.562-0.836C20.884,10.472,20.967,10.551,21.035,10.656z"/>
		<path fill="#FFFFFF" d="M13.021,9.317c0.031,0.001,0.062,0.001,0.094,0c0.884-0.035,1.669-0.357,2.407-0.821
			c0.107-0.068,0.217-0.128,0.351-0.107c0.05,0.011,0.092,0.038,0.123,0.077c-0.645,0.583-1.409,0.933-2.247,1.122
			C13.475,9.649,13.178,9.64,13.021,9.317z"/>
		<path fill="#FFFFFF" d="M15.995,8.466c-0.052-0.008-0.104-0.017-0.156-0.025c0.258-0.48,0.621-0.855,1.096-1.127L16.927,7.31
			C16.862,7.895,16.338,8.106,15.995,8.466z"/>
		<path fill="#FFFFFF" d="M13.28,8.573c-0.135-0.201-0.038-0.397,0.019-0.591c0.619-2.077,1.977-3.414,4.052-4.017
			c0.691-0.201,0.833-0.032,0.638,0.676c-0.372-0.048-0.682,0.088-0.939,0.34c-0.371,0.361-0.915,0.436-1.289,0.794
			c-0.137,0.131-0.312,0.236-0.387,0.412c-0.331,0.789-0.997,1.348-1.398,2.086C13.844,8.391,13.877,8.6,13.731,8.71
			c-0.136,0.054-0.271,0.056-0.402-0.014C13.29,8.664,13.274,8.624,13.28,8.573z"/>
		<path fill="#FFFFFF" d="M13.875,8.268c0.224-0.379,0.432-0.762,0.738-1.094c0.217-0.233,0.393-0.512,0.536-0.822
			c0.23-0.508,0.641-0.879,1.194-1.055c0.327-0.104,0.546-0.366,0.817-0.55c0.257-0.174,0.509-0.409,0.827-0.105
			c-0.066,0.88-0.358,1.677-0.889,2.383c-0.271-0.08-0.298-0.134-0.153-0.386c0.134-0.23,0.345-0.418,0.391-0.719
			c-0.326,0.529-0.739,0.936-1.267,1.243c-0.627,0.366-1.329,0.601-1.893,1.079C14.091,8.314,13.984,8.359,13.875,8.268z"/>
		<path fill="#FFFFFF" d="M13.875,8.268c0.916-0.71,2.114-0.966,2.935-1.831c0.188-0.197,0.368-0.389,0.431-0.667
			c0.016-0.073,0.074-0.153,0.168-0.131c0.104,0.023,0.072,0.109,0.071,0.189c-0.003,0.338-0.208,0.57-0.4,0.812
			c-0.104,0.132-0.28,0.271,0.021,0.384c-0.057,0.097-0.111,0.192-0.165,0.289c-0.366,0.376-0.731,0.752-1.096,1.128
			c-0.638,0.408-1.304,0.752-2.048,0.928c-0.23,0.055-0.463,0.108-0.677-0.052c0.041-0.251-0.115-0.547,0.166-0.744l0.024,0.04
			c0.089,0.499,0.127,0.523,0.6,0.407c0.198-0.05,0.383-0.138,0.576-0.202c0.738-0.204,1.315-0.667,1.638-0.956
			c-0.415,0.363-1.247,0.52-2.028,0.787c-0.107,0.034-0.221,0.108-0.312-0.028C13.679,8.468,13.759,8.362,13.875,8.268z"/>
		<path fill="#FFFFFF" d="M3.396,19.823c0.26,0.087,0.165-0.12,0.158-0.211c-0.021-0.25-0.07-0.499-0.104-0.748
			c-0.152-1.153,0.041-2.258,0.488-3.322c0.042-0.102,0.083-0.214,0.156-0.292c0.125-0.131,0.144-0.394,0.385-0.377
			c0.242,0.019,0.282,0.27,0.41,0.423c0.709,0.86,0.703,1.926,0.865,2.942c0.034,0.21-0.034,0.4-0.117,0.596
			c-0.386,0.903-0.566,1.862-0.729,2.823c-0.008,0.051,0.044,0.111,0.07,0.167c0.108,0.198-0.052,0.282-0.163,0.387
			c-0.131,0.222-0.262,0.443-0.393,0.666C3.884,21.926,3.623,20.881,3.396,19.823z"/>
		<path fill="#FFFFFF" d="M19.604,15.62c-0.03,0.159-0.062,0.32-0.094,0.479c-0.111,0.812-0.146,1.624,0.101,2.421
			c0.107,0.344,0.244,0.677,0.369,1.016c-0.346-0.017-0.416-0.318-0.52-0.548c-0.186-0.416-0.389-0.834-0.385-1.314
			c0-0.155-0.05-0.313-0.09-0.467c-0.047-0.178-0.034-0.42-0.273-0.454c-0.24-0.035-0.513,0.017-0.633,0.243
			c-0.206,0.387-0.519,0.619-0.892,0.818c-0.222,0.117-0.389,0.328-0.552,0.522c-0.944,1.113-1.879,2.235-2.764,3.399
			c-0.341,0.449-0.773,0.824-1.072,1.318c-0.203,0.338-0.316,0.727-0.592,1.026c-0.117,0.127-0.055,0.303,0.036,0.446
			c0.063,0.104,0.205,0.208,0.108,0.334c-0.201,0.261,0.006,0.326,0.172,0.33c0.943,0.023,1.685,0.504,2.41,1.028
			c0.429,0.311,0.905,0.52,1.389,0.729c0.199,0.084,0.483,0.105,0.514,0.416c-0.989,0.278-1.921-0.235-2.894-0.2
			c-0.619,0.021-1.216,0.042-1.812,0.271c-0.728,0.279-1.533,0.303-2.265,0.596c-1.566,0.089-2.521-0.846-3.345-1.998
			c-0.578-0.582-0.811-1.395-1.34-2.01c-0.137-0.119-0.194-0.318-0.384-0.387c0.197-0.595,0.484-1.147,0.786-1.694
			c0.108-0.269,0.094-0.622,0.485-0.695c0.195,0.179,0.1,0.38,0.041,0.575c-0.161,0.533-0.259,1.076-0.312,1.63
			c-0.076,0.782,0.547,1.468,1.312,1.642c0.468,0.106,0.934,0.121,1.396,0.204c0.243,0.044,0.474-0.005,0.705-0.071
			c0.22-0.064,0.371-0.174,0.312-0.443c-0.067-0.307,0.109-0.439,0.375-0.497c0.488-0.109,0.832-0.38,0.986-0.869
			c0.081-0.255,0.263-0.434,0.491-0.563c0.21-0.12,0.394-0.271,0.525-0.477c0.733-1.124,1.766-1.996,2.616-3.023
			c0.329-0.397,0.637-0.821,0.937-1.232c0.386-0.527,0.997-0.797,1.342-1.336c0.334-0.522,0.778-0.909,1.315-1.209
			c0.211-0.116,0.365-0.301,0.51-0.494c0.105-0.141,0.222-0.278,0.385-0.351c0.249-0.111,0.521-0.103,0.722,0.066
			c0.216,0.18,0.076,0.407-0.036,0.604C19.651,15.471,19.661,15.558,19.604,15.62z"/>
		<path fill="#FFFFFF" d="M21.136,25.266c-0.395,0.409-0.788,0.82-1.185,1.227c-0.29,0.297-0.627,0.528-1.014,0.682
			c-0.146,0.061-0.294,0.112-0.445,0.156c-0.462,0.137-0.794-0.044-0.957-0.502c-0.311-0.876-0.731-1.715-1.005-2.598
			c-0.21-0.676-0.571-1.314-0.601-2.045c-0.004-0.144-0.065-0.306,0.05-0.411c0.258-0.239,0.287-0.614,0.489-0.855
			c0.688-0.814,1.201-1.8,2.195-2.33c0.201-0.107,0.359-0.09,0.523,0.041c0.192,0.152,0.301,0.365,0.41,0.577
			c0.584,1.142,1.403,2.07,2.512,2.728c0.35,0.207,0.476,0.451,0.334,0.869c-0.158,0.472-0.507,0.839-0.64,1.317
			C21.646,24.541,21.455,24.94,21.136,25.266z"/>
		<path fill="#FFFFFF" d="M21.804,24.121c-0.004-0.356,0.19-0.627,0.374-0.905c0.402-0.614,0.354-0.83-0.231-1.227
			c-1.066-0.724-1.974-1.586-2.448-2.825c-0.088-0.23-0.299-0.365-0.473-0.526c-0.078-0.07-0.196-0.077-0.263-0.001
			c-0.459,0.521-1.23,0.721-1.47,1.478c-0.061,0.191-0.279,0.339-0.437,0.493c-0.207,0.205-0.396,0.411-0.417,0.726
			c-0.005,0.074-0.038,0.17-0.092,0.215c-0.55,0.463-0.266,0.982-0.098,1.482c0.227,0.675,0.49,1.339,0.713,2.016
			c0.104,0.317,0.191,0.632,0.396,0.909c0.119,0.162,0.207,0.352,0.244,0.562c0.13,0.758,0.359,0.895,1.099,0.684
			c0.075-0.021,0.157-0.019,0.236-0.027c-0.545,0.426-1.169,0.282-1.777,0.25c-0.108-0.006-0.217-0.04-0.322-0.06
			c-0.201-0.19-0.458-0.279-0.707-0.379c-0.69-0.275-1.311-0.662-1.903-1.113c-0.388-0.299-0.856-0.477-1.357-0.509
			c-0.191-0.012-0.376-0.03-0.558-0.094c-0.142-0.051-0.286-0.113-0.299-0.269c-0.014-0.18,0.229-0.064,0.277-0.196
			c-0.37-0.372-0.32-0.557-0.028-1.01c0.243-0.376,0.495-0.765,0.676-1.173c0.203-0.46,0.653-0.649,0.926-1.033
			c0.923-1.302,1.954-2.52,3.036-3.694c0.131-0.141,0.266-0.287,0.456-0.329c0.264-0.06,0.404-0.23,0.504-0.46
			c0.077-0.176,0.158-0.36,0.369-0.405c0.725-0.157,0.738-0.294,0.879,0.5c0.135,0.764,0.247,1.521,0.704,2.172
			c0.044,0.062,0.112,0.109,0.168,0.164c0.535,0.97,1.236,1.777,2.257,2.265c0.326,0.156,0.489,0.358,0.36,0.743
			C22.41,23.11,22.195,23.659,21.804,24.121z"/>
		<path fill="#FFFFFF" d="M5.183,24.023c0.302,0.211,0.506,0.465,0.64,0.835c0.152,0.421,0.459,0.785,0.7,1.175
			c-0.327-0.143-0.478-0.456-0.634-0.733C5.651,24.876,5.318,24.504,5.183,24.023z"/>
		<path fill="#FFFFFF" d="M6.052,21.268c-0.157,0.225-0.312,0.45-0.467,0.675c-0.203-0.15-0.228,0.076-0.296,0.157
			c-0.139,0.164-0.313,0.086-0.473,0.111c0.054-0.129,0.108-0.257,0.163-0.387c0.207-0.247,0.214-0.647,0.585-0.771
			c0.141-0.022,0.271-0.072,0.398-0.146c0.158-0.094,0.236-0.03,0.229,0.149C6.172,21.144,6.131,21.219,6.052,21.268z"/>
		<path fill="#FFFFFF" d="M10.437,15.612c0.062,0.096,0.125,0.191,0.188,0.288c0.012,0.104-0.033,0.188-0.105,0.253
			c-0.508,0.454-0.968,0.959-1.461,1.43c-0.092,0.087-0.188,0.171-0.326,0.178c-0.16-0.034-0.309-0.088-0.403-0.236
			C8.957,16.805,9.668,16.177,10.437,15.612z"/>
		<path fill="#FFFFFF" d="M8.329,17.524c0.151,0.021,0.29,0.067,0.39,0.193c-0.113,0.369-0.362,0.645-0.614,0.921
			c-0.257,0.202-0.34,0.602-0.731,0.653c-0.162-0.032-0.327-0.061-0.391-0.249C7.371,18.483,7.834,17.988,8.329,17.524z"/>
		<path fill="#FFFFFF" d="M6.982,19.043c0.125,0.102,0.319,0.073,0.416,0.227c0.018,0.248-0.114,0.411-0.314,0.531
			c-0.263,0.162-0.325,0.493-0.568,0.67c-0.171-0.108-0.264-0.268-0.292-0.468C6.441,19.654,6.694,19.335,6.982,19.043z"/>
		<path fill="#FFFFFF" d="M6.224,20.003c0.129,0.137,0.271,0.266,0.292,0.468l0.014,0.028c-0.171,0.151,0.004,0.553-0.393,0.54
			c-0.033-0.166-0.102-0.111-0.164-0.023c-0.124,0.177-0.257,0.2-0.408,0.037c-0.139-0.272,0.168-0.324,0.251-0.485
			C5.921,20.364,6.085,20.19,6.224,20.003z"/>
		<path fill="#FFFFFF" d="M7.084,19.801c0.105-0.177,0.209-0.354,0.314-0.532c0.218-0.229,0.436-0.459,0.652-0.689
			c0.343,0.054,0.27,0.284,0.219,0.509c-0.047,0.214-0.256,0.362-0.258,0.604c0.552,0.104,1.034,0.07,1.518-0.292
			c0.747-0.562,1.553-1.046,2.312-1.59c0.407-0.293,0.686-0.777,0.959-1.216c0.331-0.526,0.632-1.067,1.123-1.468
			c0.101-0.084,0.175-0.183,0.218-0.308c0.168-0.505,0.472-0.934,0.779-1.359c0.11-0.152,0.251-0.296,0.195-0.514
			c0.771-0.507,1.62-0.843,2.485-1.144c0.333,0.311,0.402,0.805,0.069,1.1c-0.377,0.331-0.664,0.754-1.115,1.01
			c-0.295,0.167-0.35,0.546-0.533,0.816c-0.228,0.334-0.477,0.637-0.773,0.895c-0.503,0.434-0.892,0.932-1.087,1.571
			c-0.019,0.06-0.038,0.144-0.083,0.165c-0.77,0.386-0.931,1.306-1.582,1.792c-0.939,0.699-1.653,1.646-2.797,2.14
			C8.809,21.676,7.89,21.77,6.986,22c-0.364,0.093-0.419-0.219-0.336-0.495c0.127-0.427,0.271-0.847,0.434-1.26
			C7.146,20.086,7.191,19.95,7.084,19.801z"/>
		<path fill="#FFFFFF" d="M6.137,21.039c0.131-0.18,0.262-0.359,0.393-0.54c0.08,0.523-0.291,0.927-0.375,1.406
			c-0.049,0.281-0.146,0.553-0.191,0.832c-0.105,0.629-0.005,0.73,0.585,1.003c0.552,0.254,1.083,0.444,1.714,0.395
			c0.439-0.034,0.822-0.217,1.102-0.454c1.396-1.194,2.821-2.367,4.049-3.743c0.906-1.015,1.703-2.13,2.654-3.095
			c0.42-0.427,0.664-1.064,1.305-1.267c0.028-0.009,0.066-0.034,0.072-0.06c0.129-0.586,0.696-0.728,1.055-1.08
			c0.325-0.32,0.668-0.51,1.077-0.635c0.189-0.058,0.343-0.162,0.482-0.296c0.06-0.057,0.134-0.089,0.218-0.052
			c0.09,0.04,0.113,0.137,0.082,0.2c-0.312,0.632-0.215,1.42-0.753,1.966c0.021-0.108,0.047-0.215,0.063-0.324
			c0.026-0.158,0.191-0.396-0.034-0.452c-0.194-0.05-0.473-0.22-0.66,0.033c-0.428,0.568-0.991,0.959-1.593,1.317
			c-0.223,0.133-0.273,0.441-0.457,0.646c-0.486,0.546-1.115,0.945-1.551,1.537c-0.019,0.025-0.052,0.041-0.067,0.066
			c-0.743,1.231-1.777,2.213-2.765,3.233c-0.21,0.217-0.299,0.509-0.506,0.735c-0.193,0.213-0.361,0.431-0.629,0.558
			c-0.225,0.107-0.362,0.288-0.431,0.537c-0.145,0.534-0.538,0.803-1.058,0.892c-0.283,0.05-0.435,0.146-0.242,0.432
			c0.153,0.228-0.016,0.323-0.16,0.409c-0.235,0.138-0.539,0.271-0.764,0.192c-0.487-0.17-0.993-0.057-1.496-0.178
			c-0.507-0.121-0.798-0.37-1.159-0.642c-0.472-0.356-0.492-0.82-0.392-1.321c0.099-0.51,0.218-1.018,0.354-1.52
			c0.048-0.18,0.03-0.338-0.008-0.505C6.079,21.191,6.107,21.115,6.137,21.039z"/>
		<path fill="#FFFFFF" d="M15.115,12.945c0.264,0.051,0.204,0.188,0.092,0.338c-0.399,0.53-0.812,1.046-0.995,1.711
			c-0.075,0.273-0.446,0.332-0.606,0.583c-0.271,0.428-0.52,0.879-0.811,1.274c-0.424,0.577-0.869,1.166-1.548,1.53
			C10.6,18.729,9.991,19.158,9.4,19.599c-0.303,0.227-0.567,0.393-0.945,0.229c-0.208-0.09-0.503,0.265-0.634-0.059
			c-0.081-0.201,0.204-0.366,0.286-0.565c0.088-0.21,0.232-0.441-0.057-0.624c0.223-0.287,0.445-0.574,0.668-0.861
			c0.635-0.605,1.271-1.212,1.906-1.817c1.045-0.758,2.039-1.582,3.152-2.245C14.214,13.396,14.676,13.191,15.115,12.945z"/>
		<path fill="#FFFFFF" d="M13.777,8.621c0.117,0.064,0.187-0.04,0.275-0.076c0.303-0.06,0.589-0.098,0.485,0.373
			c-0.28,0.093-0.558,0.195-0.842,0.273c-0.146,0.041-0.337,0.079-0.434-0.074c-0.097-0.156-0.135-0.351,0.042-0.504
			C13.463,8.616,13.621,8.619,13.777,8.621z"/>
		<path fill="#FFFFFF" d="M14.538,8.918c-0.015-0.316-0.224-0.378-0.485-0.373c0.866-0.293,1.768-0.501,2.514-1.083
			C16.046,8.161,15.375,8.654,14.538,8.918z"/>
	</g>
	<g>
		<path fill="#FFFFFF" d="M40.188,27.605c-0.516-0.275-0.969-0.634-1.371-1.054c-0.027-0.229,0.11-0.31,0.305-0.338
			c0.16-0.023,0.32-0.025,0.482-0.025c3.729-0.003,7.46-0.003,11.188,0c0.148,0,0.295,0.006,0.441,0.02
			c0.177,0.018,0.31,0.085,0.354,0.272c-0.365,0.404-0.771,0.759-1.245,1.029c-0.483,0.147-0.981,0.123-1.477,0.124
			c-2.547,0-5.094-0.005-7.641,0.004C40.877,27.641,40.533,27.557,40.188,27.605z"/>
		<path fill="#FFFFFF" d="M38.819,10.995c0.312-0.399,0.72-0.686,1.132-0.965c0.329-0.104,0.668-0.122,1.009-0.122
			c2.925,0,5.852,0,8.777,0c0.34,0,0.675,0.022,1.003,0.123c0.433,0.289,0.812,0.64,1.144,1.04c-0.063,0.146-0.193,0.17-0.331,0.186
			c-0.106,0.012-0.213,0.016-0.321,0.016c-3.909,0.004-7.82,0.007-11.729-0.006C39.252,11.267,38.941,11.346,38.819,10.995z"/>
		<path fill="#FFFFFF" d="M68.23,10.995c-0.135,0.489-0.275,0.978-0.404,1.469c-0.064,0.255-0.17,0.321-0.426,0.184
			c-1.599-0.854-3.294-1.041-5.061-0.699c-1.5,0.073-3.002,0.055-4.504,0.045c-0.227-0.002-0.494,0.069-0.65-0.195
			c0.119-0.296,0.295-0.557,0.495-0.803c0.241-0.158,0.51-0.198,0.791-0.198c3.047-0.003,6.093-0.005,9.138,0.004
			C67.83,10.802,68.076,10.758,68.23,10.995z"/>
		<path fill="#FFFFFF" d="M68.23,10.995c-3.517,0-7.034,0-10.55,0c0.28-0.418,0.634-0.762,1.048-1.046
			c0.288-0.09,0.583-0.119,0.883-0.119c2.723-0.003,5.447-0.003,8.17,0c0.135,0,0.269,0.001,0.402,0.021
			c0.153,0.022,0.293,0.062,0.295,0.26C68.432,10.415,68.357,10.713,68.23,10.995z"/>
		<path fill="#FFFFFF" d="M38.819,10.995c0.198,0.025,0.396,0.076,0.596,0.076c4.156,0.004,8.312,0.001,12.469,0
			c0.229,0.177,0.386,0.415,0.546,0.648c-0.125,0.214-0.341,0.194-0.536,0.191c-1.655-0.024-3.309,0.088-4.961-0.06
			c-0.161-0.015-0.274,0.068-0.396,0.144c-0.338,0.132-0.688-0.002-1.034,0.047c-0.488,0.066-0.986,0.061-1.48,0.077
			c-0.252-0.175-0.521-0.154-0.819-0.146c-1.533,0.05-3.068,0.034-4.603,0.012c-0.187-0.003-0.385-0.018-0.428-0.268
			C38.346,11.439,38.551,11.189,38.819,10.995z"/>
		<path fill="#FFFFFF" d="M50.74,10.031c-0.234,0.067-0.475,0.077-0.717,0.077c-3.119,0-6.238,0-9.357,0
			c-0.241,0-0.48-0.01-0.715-0.078c0.565-0.419,1.161-0.777,1.844-0.975c0.19-0.053,0.385-0.053,0.58-0.061
			c2.072-0.091,4.147-0.091,6.218,0.016c0.121,0.006,0.264-0.031,0.381,0.049C49.606,9.304,50.214,9.591,50.74,10.031z"/>
		<path fill="#FFFFFF" d="M56.401,27.272c0.066-0.244,0.132-0.49,0.198-0.735c0.169-0.162,0.381-0.185,0.599-0.185
			c3.38-0.007,6.759-0.012,10.137,0.007c0.236,0,0.546-0.056,0.571,0.335c-0.283,0.225-0.418,0.616-0.805,0.727
			c-0.495,0.137-1.003,0.134-1.51,0.134c-2.805-0.004-5.607,0.002-8.411-0.006C56.896,27.548,56.573,27.614,56.401,27.272z"/>
		<path fill="#FFFFFF" d="M67.906,26.694c-0.204-0.171-0.45-0.146-0.691-0.146c-3.311-0.001-6.621,0-9.931-0.001
			c-0.229,0-0.458-0.006-0.685-0.01c0.07-0.239,0.14-0.479,0.209-0.719c0.115-0.197,0.316-0.188,0.5-0.188
			c1.153,0.009,2.307-0.006,3.462,0.047c0.84,0.038,1.692,0.012,2.538-0.023c1.581-0.067,3.165-0.032,4.747-0.017
			c0.192,0.002,0.463-0.025,0.417,0.32C68.321,26.231,68.182,26.515,67.906,26.694z"/>
		<path fill="#FFFFFF" d="M51.586,26.48c-0.201-0.095-0.417-0.095-0.632-0.095c-3.849,0.001-7.695,0-11.544,0.002
			c-0.212,0-0.438-0.041-0.594,0.164c-0.252-0.214-0.516-0.419-0.679-0.72c0.087-0.205,0.276-0.198,0.447-0.198
			c1.836,0,3.673-0.055,5.508,0.028c0.227,0.009,0.446,0.012,0.672-0.065c0.283-0.099,0.591-0.102,0.872-0.012
			c0.283,0.089,0.557,0.065,0.843,0.058c1.744-0.037,3.489-0.025,5.232-0.008c0.159,0.002,0.331,0.009,0.413,0.189
			C51.994,26.083,51.813,26.302,51.586,26.48z"/>
		<path fill="#FFFFFF" d="M56.401,27.272c0.247,0.083,0.503,0.082,0.759,0.082c3.114-0.002,6.229-0.002,9.346,0
			c0.2,0,0.404-0.028,0.596,0.066c-0.439,0.351-0.883,0.691-1.442,0.83c-2.612,0.056-5.226,0.017-7.839,0.021
			c-0.44-0.144-0.848-0.367-1.271-0.556C56.315,27.612,56.308,27.469,56.401,27.272z"/>
		<path fill="#FFFFFF" d="M68.479,10.111c-0.184-0.112-0.391-0.084-0.588-0.084c-2.802,0-5.604-0.001-8.404,0
			c-0.256,0-0.51-0.004-0.758-0.078c0.429-0.363,0.916-0.624,1.444-0.812c1.054-0.067,2.107-0.032,3.161-0.031
			c1.474,0.002,2.945-0.036,4.416,0.034c0.139,0.046,0.282,0.083,0.419,0.136C68.703,9.485,68.73,9.564,68.479,10.111z"/>
		<path fill="#FFFFFF" d="M40.188,27.605c0.006-0.217,0.172-0.169,0.296-0.169c3.169-0.003,6.338-0.001,9.508-0.001
			c0.121,0,0.239,0.012,0.35,0.074c-0.42,0.31-0.853,0.599-1.371,0.72c-2.405,0.237-4.814,0.139-7.224,0.062
			c-0.068-0.003-0.127,0.007-0.188,0.019C41.064,28.147,40.606,27.912,40.188,27.605z"/>
		<path fill="#FFFFFF" d="M68.473,25.957c-0.137-0.187-0.341-0.133-0.521-0.133c-1.704-0.005-3.411,0.035-5.114-0.014
			c-2.011-0.058-4.019,0.078-6.028,0.008c0.054-0.188,0.107-0.375,0.161-0.563c0.099-0.188,0.284-0.181,0.453-0.188
			c0.609-0.027,1.215,0.004,1.815,0.101c1.771,0.535,3.529,0.709,5.254-0.162c0.191-0.07,0.392-0.1,0.594-0.102
			c1.084-0.011,2.172-0.015,3.258,0.004c0.199,0.003,0.448-0.044,0.524,0.245C68.768,25.436,68.699,25.736,68.473,25.957z"/>
		<path fill="#FFFFFF" d="M52.125,25.824c-1.754-0.001-3.509-0.001-5.263-0.002c-0.455,0-0.907,0.018-1.354-0.126
			c-0.169-0.056-0.386-0.058-0.554-0.002c-0.472,0.152-0.951,0.126-1.434,0.128c-1.795,0.004-3.588,0.007-5.384,0.01
			c-0.118-0.113-0.234-0.229-0.297-0.386c-0.081-0.206,0.026-0.305,0.206-0.35c0.131-0.033,0.266-0.035,0.399-0.035
			c1.407,0.009,2.813-0.037,4.22,0.027c0.129,0.005,0.232-0.026,0.339-0.08c0.139-0.051,0.266,0.004,0.391,0.048
			c1.094,0.388,2.197,0.437,3.315,0.117c0.078-0.023,0.158-0.037,0.239-0.018c0.171,0.084,0.337,0.104,0.539,0.097
			c1.456-0.061,2.915-0.044,4.374-0.012c0.205,0.005,0.44,0.037,0.488,0.318C52.275,25.648,52.199,25.737,52.125,25.824z"/>
		<path fill="#FFFFFF" d="M59.371,18.708c-0.356-0.188-0.679-0.424-0.974-0.697c-0.022-0.228,0.116-0.308,0.308-0.338
			c0.2-0.031,0.401-0.027,0.603-0.027c1.554-0.002,3.106-0.001,4.659,0c0.725,0,1.454-0.039,2.172,0.115
			c0.418,0.181,0.799,0.422,1.139,0.724c-0.095,0.25-0.317,0.263-0.53,0.273c-0.454,0.022-0.91,0.011-1.364,0.011
			c-1.564,0.001-3.129-0.007-4.693,0.005C60.248,18.775,59.811,18.727,59.371,18.708z"/>
		<path fill="#FFFFFF" d="M46.476,11.874c0.188-0.168,0.42-0.155,0.647-0.155c1.77,0.001,3.537,0.001,5.307,0.001
			c0.244,0.303,0.476,0.613,0.638,0.972c-0.124,0.314-0.406,0.269-0.65,0.269c-1.354,0.002-2.708,0.032-4.062-0.021
			c-0.133,0.055-0.256,0.039-0.371-0.055c-0.385-0.314-0.811-0.558-1.275-0.729C46.574,12.107,46.465,12.039,46.476,11.874z"/>
		<path fill="#FFFFFF" d="M57.82,28.272c0.193-0.178,0.434-0.194,0.679-0.194c2.17,0,4.342,0.001,6.512,0
			c0.231,0,0.457,0.022,0.648,0.173C63.049,29.326,60.437,29.284,57.82,28.272z"/>
		<path fill="#FFFFFF" d="M29.145,10.672c-0.136-0.495-0.005-0.943,0.242-1.372c0.117-0.11,0.264-0.114,0.412-0.114
			c0.932-0.003,1.863-0.004,2.795,0.001c0.201,0.001,0.395,0.049,0.582,0.118c0.213,0.461,0.42,0.922,0.246,1.449
			c-0.173,0.088-0.357,0.112-0.547,0.113c-1.048,0.007-2.094,0.008-3.143-0.001C29.519,10.865,29.298,10.865,29.145,10.672z"/>
		<path fill="#FFFFFF" d="M67.75,9.14c-0.242,0.137-0.508,0.163-0.777,0.163c-2.008,0-4.017,0-6.024,0
			c-0.271,0-0.536-0.025-0.775-0.166c0.83-0.443,1.741-0.619,2.657-0.704c1.564-0.146,3.098,0.08,4.59,0.562
			C67.533,9.031,67.641,9.092,67.75,9.14z"/>
		<path fill="#FFFFFF" d="M29.242,23.083c0.002-2.819,0.008-5.639,0.004-8.457c-0.001-0.306,0.117-0.433,0.431-0.43
			c1.032,0.011,2.067,0.017,3.101-0.001c0.433-0.008,0.467,0.23,0.467,0.564c0.001,3.128,0.01,6.257,0.018,9.385
			c0.002,1.343-0.006,2.687,0.014,4.028c0.006,0.365-0.107,0.495-0.48,0.488c-1.047-0.021-2.094-0.007-3.143-0.009
			c-0.143-0.001-0.3,0.033-0.413-0.101c0.153-0.197,0.376-0.183,0.588-0.185c0.763-0.01,1.526-0.001,2.288-0.005
			c0.755-0.004,0.837-0.085,0.883-0.854c-0.021-0.318-0.021-0.636,0-0.954c-0.016-0.293-0.021-0.588,0-0.883
			c-0.012-0.243-0.016-0.484,0.003-0.729c-0.013-0.217-0.013-0.433,0-0.65c-0.017-0.24-0.017-0.48,0-0.721
			c-0.013-0.216-0.013-0.432,0.001-0.649c-0.014-0.215-0.014-0.431-0.001-0.646c-0.017-0.241-0.017-0.48,0-0.721
			c-0.013-0.216-0.013-0.432,0.001-0.646c-0.014-0.216-0.014-0.432,0-0.646c-0.014-0.216-0.014-0.43,0-0.645
			c-0.014-0.216-0.014-0.432,0-0.647c-0.014-0.216-0.014-0.432-0.001-0.648c-0.019-0.266-0.019-0.531-0.001-0.797
			c-0.012-0.217-0.012-0.434,0-0.652c-0.018-0.284-0.024-0.567,0.001-0.851c0.004-0.12-0.009-0.24-0.023-0.358
			c-0.043-0.379-0.157-0.506-0.53-0.515c-0.801-0.019-1.601-0.011-2.402-0.004c-0.338,0.003-0.521,0.17-0.537,0.512
			c-0.004,0.121-0.024,0.24-0.021,0.36c0.024,0.284,0.02,0.567,0.001,0.852c0.011,0.218,0.012,0.436,0,0.652
			c0.018,0.266,0.019,0.531,0,0.797c0.011,0.217,0.012,0.433-0.002,0.648c0.013,0.215,0.014,0.432,0,0.647
			c0.013,0.215,0.014,0.429,0,0.645c0.013,0.215,0.014,0.429,0,0.645c0.013,0.215,0.014,0.429,0,0.644
			c0.014,0.237,0.021,0.472-0.001,0.709c0.006,0.207,0.025,0.416-0.044,0.619c-0.017,0.065-0.026,0.134-0.077,0.187
			C29.328,23.098,29.288,23.104,29.242,23.083z"/>
		<path fill="#FFFFFF" d="M67.992,19.133c0.191,0.157,0.336,0.354,0.455,0.567c-0.107,0.303-0.373,0.269-0.608,0.271
			c-1.341,0.015-2.682,0-4.022,0.008c-0.65,0.005-1.299-0.014-1.949-0.044c-0.479-0.168-0.94-0.373-1.383-0.623
			c-0.03-0.239,0.153-0.288,0.317-0.34c0.129-0.039,0.265-0.034,0.398-0.034c1.995-0.006,3.991-0.004,5.986-0.002
			C67.473,18.936,67.746,18.979,67.992,19.133z"/>
		<path fill="#FFFFFF" d="M41.559,28.311c0.021-0.216,0.193-0.147,0.309-0.147c2.237-0.005,4.475-0.003,6.711-0.003
			c0.136,0,0.269,0.004,0.392,0.069c-0.776,0.408-1.621,0.598-2.479,0.707c-1.557,0.2-3.089,0.076-4.575-0.455
			C41.79,28.438,41.678,28.369,41.559,28.311z"/>
		<path fill="#FFFFFF" d="M67.992,19.133c-2.248,0-4.495,0.001-6.742,0.001c-0.27,0-0.538-0.005-0.766,0.178
			c-0.394-0.158-0.764-0.36-1.113-0.604c0.135-0.188,0.337-0.136,0.519-0.137c2.116-0.003,4.233-0.004,6.35,0
			c0.351,0.001,0.696-0.012,1.038-0.087C67.559,18.653,67.794,18.873,67.992,19.133z"/>
		<path fill="#FFFFFF" d="M66.139,17.761c-0.184,0.113-0.39,0.082-0.589,0.082c-2.156,0.003-4.313,0.001-6.47,0.002
			c-0.24,0-0.488-0.024-0.683,0.166c-0.212-0.164-0.409-0.343-0.563-0.563c-0.082-0.188,0.024-0.275,0.182-0.323
			c0.129-0.039,0.266-0.039,0.398-0.04c1.871-0.008,3.74-0.004,5.611-0.003c0.248,0.001,0.492,0.097,0.742,0.037
			C65.25,17.278,65.713,17.48,66.139,17.761z"/>
		<path fill="#FFFFFF" d="M38.172,11.718c0.202,0.095,0.418,0.083,0.632,0.083c1.619,0,3.24-0.003,4.86,0.005
			c0.134,0.001,0.336-0.107,0.393,0.142c-0.015,0.16-0.135,0.221-0.259,0.266c-0.438,0.156-0.857,0.35-1.253,0.591
			c-0.123,0.074-0.243,0.095-0.369,0.012c-0.138-0.107-0.285-0.022-0.426-0.02c-1.227,0.016-2.454,0.018-3.682-0.003
			c-0.198-0.002-0.411-0.012-0.469-0.273C37.736,12.214,37.939,11.955,38.172,11.718z"/>
		<path fill="#FFFFFF" d="M64.768,17.118c-0.157,0.203-0.384,0.16-0.595,0.16c-1.933,0.002-3.863,0-5.796,0.004
			c-0.193,0-0.414-0.061-0.543,0.165c-0.197-0.189-0.359-0.406-0.479-0.654c-0.007-0.25,0.157-0.317,0.363-0.338
			c0.24-0.024,0.482-0.019,0.723-0.019c1.007-0.001,2.014,0.007,3.021-0.003c0.649-0.006,1.296,0.007,1.935,0.122
			C63.864,16.717,64.329,16.888,64.768,17.118z"/>
		<path fill="#FFFFFF" d="M36.703,14.292c0.082-0.349,0.256-0.653,0.426-0.96c0.166-0.156,0.373-0.19,0.585-0.193
			c1.124-0.012,2.247-0.013,3.37,0.002c0.169,0.002,0.352-0.007,0.488,0.132c0.067,0.087,0.127,0.186,0.086,0.293
			c-0.127,0.337-0.324,0.634-0.552,0.909c-0.062,0.075-0.162,0.079-0.259,0.053c-1.057-0.068-2.115-0.01-3.172-0.03
			c-0.201-0.003-0.404,0.004-0.604-0.014C36.924,14.471,36.774,14.457,36.703,14.292z"/>
		<path fill="#FFFFFF" d="M60.971,12.754c-0.271,0.449-0.348,0.942-0.325,1.457c-0.028,0.004-0.065,0.019-0.078,0.005
			c-0.409-0.436-0.944-0.363-1.462-0.363c-0.604,0-1.208,0.004-1.811-0.003c-0.216-0.003-0.435-0.001-0.587-0.195
			c-0.026-0.362,0.063-0.708,0.173-1.048c0.116-0.124,0.265-0.181,0.432-0.185c1.087-0.026,2.174-0.027,3.26,0.002
			C60.777,12.429,60.989,12.462,60.971,12.754z"/>
		<path fill="#FFFFFF" d="M53.749,14.209c0.166,0.305,0.255,0.633,0.308,0.974c-0.129,0.241-0.365,0.193-0.568,0.193
			c-1.227,0.008-2.452,0.024-3.677-0.008c-0.378-0.153-0.627-0.681-0.513-1.085c0.147-0.211,0.372-0.252,0.604-0.256
			c1.11-0.018,2.221-0.014,3.332-0.002C53.426,14.027,53.604,14.068,53.749,14.209z"/>
		<path fill="#FFFFFF" d="M49.776,15.271c0.168-0.109,0.36-0.086,0.547-0.087c1.244-0.002,2.487-0.002,3.733-0.002
			c0.127,0.286,0.172,0.59,0.218,0.896c-0.101,0.279-0.346,0.263-0.571,0.268c-0.911,0.014-1.822,0.005-2.733,0.006
			c-0.282,0-0.562,0.008-0.841,0.047C49.744,16.223,49.555,15.612,49.776,15.271z"/>
		<path fill="#FFFFFF" d="M61.867,19.935c0.123-0.205,0.327-0.153,0.508-0.154c1.799-0.003,3.597-0.003,5.396-0.002
			c0.229,0,0.455-0.005,0.676-0.078c0.158,0.192,0.289,0.397,0.353,0.641c-0.074,0.243-0.276,0.272-0.481,0.27
			c-1.699-0.028-3.399,0.125-5.093-0.096c-0.028-0.003-0.054,0.004-0.08,0.008C62.719,20.325,62.292,20.13,61.867,19.935z"/>
		<path fill="#FFFFFF" d="M36.703,14.292c1.219,0.002,2.437,0.003,3.655,0.007c0.197,0.001,0.407-0.03,0.555,0.157
			c0.155,0.434-0.036,0.863-0.437,0.985c-1.161,0.044-2.322,0.019-3.484,0.021c-0.224,0.001-0.457,0.027-0.656-0.118
			C36.42,14.979,36.521,14.621,36.703,14.292z"/>
		<path fill="#FFFFFF" d="M33.176,27.515c0.04,1.316,0.119,1.044-0.979,1.061c-0.985,0.013-1.972-0.015-2.957-0.023
			c0-0.347,0.003-0.691,0.003-1.037c0.122-0.181,0.314-0.189,0.502-0.192c0.976-0.013,1.951-0.013,2.929,0
			C32.861,27.325,33.048,27.343,33.176,27.515z"/>
		<path fill="#FFFFFF" d="M48.974,9.06c-0.233,0.069-0.472,0.082-0.716,0.081c-1.915-0.001-3.831-0.001-5.747,0
			c-0.242,0.001-0.483-0.012-0.716-0.085c0.691-0.389,1.465-0.54,2.227-0.603c1.562-0.127,3.126-0.114,4.626,0.458
			C48.76,8.954,48.864,9.009,48.974,9.06z"/>
		<path fill="#FFFFFF" d="M29.145,10.672c1.243,0,2.486,0,3.729,0c0.185,0,0.376-0.022,0.548,0.082
			c-0.027,0.367-0.131,0.705-0.398,0.974c-1.051,0.215-2.112,0.09-3.17,0.085c-0.144-0.001-0.277-0.071-0.387-0.173
			C29.245,11.356,29.147,11.03,29.145,10.672z"/>
		<path fill="#FFFFFF" d="M48.25,12.84c0.174-0.095,0.363-0.071,0.548-0.071c1.199-0.002,2.399-0.003,3.598,0
			c0.229,0,0.452-0.013,0.672-0.077c0.163,0.282,0.335,0.561,0.425,0.881c-0.129,0.24-0.367,0.192-0.569,0.193
			c-1.282,0.007-2.565,0.022-3.847-0.01C48.659,13.739,48.205,13.234,48.25,12.84z"/>
		<path fill="#FFFFFF" d="M60.971,12.754c-0.139-0.171-0.332-0.147-0.519-0.147c-1.19-0.001-2.381,0-3.571,0
			c0.053-0.287,0.163-0.554,0.305-0.809c1.473,0.001,2.944,0.003,4.419,0.003c0.256,0,0.509,0.002,0.735,0.147
			C61.781,12.042,61.383,12.408,60.971,12.754z"/>
		<path fill="#FFFFFF" d="M56.708,13.654c1.052,0,2.104,0.016,3.156-0.009c0.436-0.01,0.767,0.034,0.781,0.565
			c0.028,0.137,0.059,0.274,0.087,0.41c-0.125,0.177-0.314,0.188-0.503,0.191c-1.007,0.013-2.014,0.013-3.02,0
			c-0.192-0.002-0.376-0.029-0.51-0.189C56.583,14.299,56.701,13.978,56.708,13.654z"/>
		<path fill="#FFFFFF" d="M33.176,27.515c-1.312,0-2.623,0-3.934,0c0-0.322,0-0.644,0-0.966c0.122-0.182,0.314-0.19,0.502-0.193
			c0.975-0.013,1.951-0.013,2.927,0c0.188,0.003,0.376,0.019,0.503,0.193C33.175,26.871,33.175,27.191,33.176,27.515z"/>
		<path fill="#FFFFFF" d="M63.396,16.556c-0.201,0.093-0.417,0.08-0.631,0.08c-1.587,0-3.178,0-4.766,0
			c-0.229,0-0.458-0.015-0.645,0.157c-0.16-0.216-0.285-0.448-0.34-0.715c0.051-0.212,0.211-0.271,0.396-0.269
			c1.538,0.02,3.081-0.139,4.613,0.103C62.482,16.127,62.939,16.34,63.396,16.556z"/>
		<path fill="#FFFFFF" d="M63.146,20.522c0.163-0.12,0.354-0.099,0.54-0.099c1.468-0.001,2.936-0.001,4.402,0
			c0.242,0.001,0.48-0.014,0.712-0.083c0.169,0.243,0.254,0.519,0.31,0.805c-0.177,0.128-0.383,0.117-0.581,0.118
			c-1.155,0.006-2.31,0.001-3.465,0.003c-0.269,0.001-0.524-0.076-0.789-0.104C63.898,20.949,63.521,20.735,63.146,20.522z"/>
		<path fill="#FFFFFF" d="M54.449,17.522c0.074,0.566,0.106,1.134,0.008,1.7c-0.094-0.042-0.135-0.118-0.143-0.215
			c-0.049-0.343-0.275-0.472-0.589-0.476c-0.854-0.011-1.706-0.009-2.561-0.001c-0.333,0.003-0.563,0.142-0.614,0.498
			c-0.039,0.125-0.083,0.244-0.254,0.176c-0.255-0.541-0.179-1.097-0.064-1.651c0.11-0.188,0.297-0.217,0.489-0.22
			c1.087-0.02,2.175-0.018,3.262-0.003C54.162,17.334,54.332,17.363,54.449,17.522z"/>
		<path fill="#FFFFFF" d="M33.174,26.549c-1.312,0-2.621,0-3.932,0c0-0.297,0-0.592,0-0.887c0.158-0.179,0.375-0.192,0.589-0.194
			c0.935-0.011,1.866-0.011,2.8,0.001c0.2,0.002,0.405,0.003,0.541,0.193C33.172,25.957,33.174,26.252,33.174,26.549z"/>
		<path fill="#FFFFFF" d="M62.024,15.912c-0.19,0.086-0.393,0.078-0.595,0.078c-1.26,0-2.521,0-3.781,0
			c-0.215,0-0.432-0.008-0.633,0.088c-0.136-0.255-0.215-0.524-0.23-0.812c0.095-0.192,0.281-0.187,0.451-0.189
			c1.104-0.02,2.209-0.016,3.314-0.003c0.221,0.002,0.412,0.093,0.604,0.186C61.445,15.478,61.734,15.694,62.024,15.912z"/>
		<path fill="#FFFFFF" d="M41.575,13.414c-0.202-0.089-0.417-0.083-0.631-0.083c-1.271,0.001-2.543,0.001-3.815,0.001
			c0.109-0.298,0.277-0.562,0.471-0.812c0.201,0.097,0.418,0.086,0.632,0.086c1.192,0,2.385-0.001,3.577,0.001
			c0.169,0,0.355-0.037,0.474,0.143C42.217,13.172,41.938,13.436,41.575,13.414z"/>
		<path fill="#FFFFFF" d="M54.139,21.562c-0.027,0.312-0.107,0.612-0.236,0.899c-1.187,0.028-2.373,0.01-3.56,0.011
			c-0.245,0.001-0.479-0.031-0.672-0.204c-0.163-0.346-0.028-0.61,0.231-0.842c0.179-0.098,0.373-0.146,0.577-0.149
			c1.058-0.011,2.115-0.017,3.173,0.005C53.849,21.286,54.105,21.245,54.139,21.562z"/>
		<path fill="#FFFFFF" d="M43.118,25.164c-0.2,0.097-0.413,0.095-0.628,0.095c-1.374-0.001-2.749-0.002-4.122,0.001
			c-0.194,0-0.412-0.047-0.527,0.187c-0.19-0.202-0.366-0.414-0.47-0.676c-0.014-0.315,0.216-0.334,0.434-0.343
			c0.629-0.029,1.257-0.013,1.887-0.013c0.775-0.003,1.55-0.009,2.324,0.018C42.442,24.403,43.031,24.795,43.118,25.164z"/>
		<path fill="#FFFFFF" d="M36.336,15.344c0.149-0.07,0.309-0.078,0.471-0.078c1.085,0.001,2.17,0,3.254,0
			c0.161,0,0.322-0.002,0.461,0.102c0.192,0.394,0.086,0.768-0.27,0.95c-1.123-0.1-2.249-0.021-3.372-0.049
			c-0.271-0.006-0.544,0.003-0.706-0.276C36.228,15.774,36.281,15.559,36.336,15.344z"/>
		<path fill="#FFFFFF" d="M53.1,24.397c-0.131,0.24-0.215,0.507-0.418,0.703c-0.707,0.074-1.417,0.024-2.126,0.032
			c-0.75,0.009-1.501,0.01-2.25-0.004c-0.196-0.004-0.41,0.023-0.558-0.16c-0.094-0.153-0.045-0.284,0.075-0.392
			c0.221-0.202,0.403-0.469,0.747-0.482c1.231-0.002,2.464-0.005,3.697-0.002c0.188,0.001,0.375-0.005,0.562,0.027
			C52.981,24.147,53.121,24.196,53.1,24.397z"/>
		<path fill="#FFFFFF" d="M53.747,22.925c-0.138,0.264-0.135,0.584-0.325,0.827c-0.9,0.181-1.811,0.063-2.717,0.091
			c-0.412,0.013-0.827,0.013-1.24-0.008c-0.172-0.009-0.354-0.005-0.462-0.185c-0.106-0.358,0.026-0.645,0.396-0.847
			c1.336-0.165,2.677-0.062,4.016-0.062C53.555,22.741,53.683,22.781,53.747,22.925z"/>
		<path fill="#FFFFFF" d="M36.723,23.486c-0.123-0.198-0.207-0.411-0.241-0.645c-0.012-0.246,0.144-0.34,0.354-0.34
			c1.299-0.006,2.599-0.103,3.896,0.058c0.374,0.158,0.514,0.44,0.414,0.831c-0.104,0.177-0.279,0.197-0.456,0.2
			c-1.179,0.021-2.359,0.021-3.54,0.003C36.998,23.591,36.859,23.542,36.723,23.486z"/>
		<path fill="#FFFFFF" d="M35.908,20.035c-0.089-0.865-0.079-1.729,0.023-2.592c0.157-0.222,0.397-0.193,0.62-0.196
			c0.935-0.011,1.87-0.009,2.803-0.003c0.787,0.007,0.87,0.108,0.757,0.904c-0.166,0.222-0.414,0.21-0.649,0.213
			c-0.893,0.01-1.784-0.005-2.677,0.01c-0.274,0.004-0.577,0.002-0.662,0.368c-0.012,0.222-0.021,0.443-0.029,0.666
			C36.073,19.627,36.18,19.887,35.908,20.035z"/>
		<path fill="#FFFFFF" d="M50.1,16.318c0.114-0.209,0.317-0.164,0.499-0.164c1.027-0.004,2.056-0.002,3.084-0.002
			c0.2-0.001,0.401,0.012,0.592-0.074c0.065,0.262,0.118,0.525,0.104,0.798c-0.135,0.226-0.365,0.19-0.572,0.194
			c-0.852,0.014-1.702,0.006-2.555,0.005c-0.332,0-0.664,0.006-0.996,0.039C49.915,16.882,49.867,16.636,50.1,16.318z"/>
		<path fill="#FFFFFF" d="M65.403,22.617c-0.136-0.269-0.271-0.536-0.408-0.805c-0.004-0.25,0.183-0.273,0.355-0.279
			c1.158-0.035,2.318-0.034,3.477-0.002c0.22,0.006,0.387,0.1,0.433,0.337c0.07,0.489,0.127,0.979,0.029,1.473
			c-0.099-0.042-0.142-0.121-0.149-0.225c-0.065-0.388-0.347-0.475-0.681-0.478c-0.751-0.006-1.501-0.002-2.251-0.002
			C65.938,22.637,65.671,22.635,65.403,22.617z"/>
		<path fill="#FFFFFF" d="M33.176,9.305C33,9.383,32.813,9.383,32.625,9.383c-0.922-0.001-1.844,0.002-2.764-0.006
			c-0.159-0.001-0.316-0.051-0.475-0.077c0.052-0.207,0.211-0.337,0.357-0.471C30.701,7.95,32.563,8.21,33.176,9.305z"/>
		<path fill="#FFFFFF" d="M68.868,25.152c-0.285-0.1-0.581-0.052-0.871-0.054c-0.919-0.006-1.836-0.005-2.755-0.001
			c-0.254,0.001-0.505-0.017-0.75-0.093c0.207-0.212,0.414-0.422,0.621-0.632c0.169-0.148,0.371-0.194,0.592-0.195
			c0.944-0.008,1.89-0.011,2.833,0.002c0.231,0.003,0.458,0.024,0.575,0.272C69.077,24.702,69.027,24.945,68.868,25.152z"/>
		<path fill="#FFFFFF" d="M36.174,15.992c1.184,0.168,2.373,0.037,3.56,0.082c0.19,0.006,0.411-0.061,0.539,0.164
			c0.223,0.305,0.185,0.528-0.134,0.793c-1.136-0.071-2.273-0.02-3.41-0.036c-0.256-0.004-0.511-0.007-0.711-0.202
			C36.07,16.525,36.121,16.259,36.174,15.992z"/>
		<path fill="#FFFFFF" d="M69.26,21.868c-0.116-0.136-0.27-0.155-0.437-0.155c-1.148,0.001-2.298,0.001-3.448,0
			c-0.135,0-0.266,0.019-0.38,0.1c-0.24-0.217-0.479-0.433-0.721-0.649c0.129-0.091,0.275-0.096,0.423-0.096
			c1.327,0.001,2.654,0.001,3.979,0c0.15,0,0.296,0.016,0.433,0.078C69.194,21.38,69.252,21.619,69.26,21.868z"/>
		<path fill="#FFFFFF" d="M49.028,23.557c0.203,0.093,0.417,0.09,0.631,0.09c1.074,0,2.146,0,3.22,0c0.187,0,0.379-0.02,0.543,0.105
			c-0.108,0.215-0.152,0.461-0.322,0.646c-0.163-0.126-0.355-0.105-0.541-0.105c-1.125,0-2.25-0.002-3.375,0
			c-0.229,0.001-0.455-0.009-0.674-0.081C48.431,23.871,48.653,23.591,49.028,23.557z"/>
		<path fill="#FFFFFF" d="M35.908,20.035c0.008-0.218,0.017-0.438,0.023-0.656c0.119-0.187,0.312-0.192,0.501-0.194
			c1.034-0.016,2.068-0.013,3.102-0.002c0.189,0.002,0.376,0.024,0.532,0.151c0.125,0.264,0.108,0.532,0.017,0.803
			c-0.154,0.172-0.364,0.155-0.562,0.157c-1.005,0.012-2.009,0.011-3.015,0.001c-0.212-0.003-0.436,0.007-0.584-0.193
			C35.912,20.08,35.908,20.058,35.908,20.035z"/>
		<path fill="#FFFFFF" d="M48.959,13.656c0.202-0.09,0.417-0.083,0.631-0.083c1.302,0,2.602-0.001,3.902-0.001
			c0.141,0.188,0.205,0.41,0.257,0.637c-1.215,0.002-2.427,0.006-3.642,0.009c-0.256,0-0.508,0.004-0.73,0.158
			C49.012,14.325,48.837,14.025,48.959,13.656z"/>
		<path fill="#FFFFFF" d="M36.723,23.486c0.171-0.105,0.36-0.081,0.545-0.081c1.066-0.002,2.133,0,3.197,0
			c0.216,0,0.429,0.004,0.629-0.088c0.425,0.054,0.621,0.392,0.445,0.771c-0.203,0.117-0.427,0.154-0.657,0.155
			c-1.099,0.007-2.2,0.006-3.299,0.002c-0.191-0.001-0.37-0.053-0.554-0.091C36.892,23.949,36.767,23.735,36.723,23.486z"/>
		<path fill="#FFFFFF" d="M40.021,20.103c-0.003-0.241-0.005-0.482-0.008-0.724c-0.196-0.179-0.161-0.416-0.157-0.644
			c0-0.203-0.026-0.413,0.16-0.565c0.003-0.08,0.001-0.161,0.01-0.24c0.043-0.362-0.109-0.498-0.48-0.494
			c-1.205,0.017-2.41,0.008-3.613,0.008c0.027-0.218,0.058-0.435,0.086-0.65c1.267,0.002,2.533,0.005,3.799,0.008
			c0.129,0,0.234,0.045,0.297,0.167c0.131,0.075,0.173,0.201,0.177,0.34c0.026,0.858,0.034,1.718-0.004,2.575
			c-0.004,0.095-0.028,0.187-0.099,0.257C40.119,20.187,40.049,20.233,40.021,20.103z"/>
		<path fill="#FFFFFF" d="M40.752,22.68c-1.24,0-2.481,0-3.721,0c-0.198,0.001-0.406-0.027-0.55,0.162
			c-0.124-0.256-0.233-0.515-0.231-0.808c0.1-0.148,0.254-0.183,0.419-0.188c1.199-0.035,2.4,0.017,3.6-0.029
			c0.095-0.004,0.181,0.041,0.268,0.075C40.845,22.166,40.9,22.369,40.752,22.68z"/>
		<path fill="#FFFFFF" d="M33.172,25.662c-1.31,0-2.619,0-3.93,0c-0.01-0.026-0.011-0.052-0.003-0.077
			c0.098-0.232-0.061-0.5,0.104-0.722c0.158-0.124,0.35-0.121,0.535-0.122c0.903-0.009,1.809-0.01,2.713,0.001
			c0.211,0.002,0.434-0.011,0.578,0.194C33.171,25.179,33.171,25.42,33.172,25.662z"/>
		<path fill="#FFFFFF" d="M53.747,22.925c-1.448,0-2.899-0.003-4.351-0.003c-0.152-0.328-0.033-0.598,0.322-0.726
			c1.213,0.169,2.434,0.038,3.65,0.08c0.195,0.008,0.414-0.045,0.533,0.186C53.883,22.627,53.834,22.781,53.747,22.925z"/>
		<path fill="#FFFFFF" d="M37.029,24.155c0.162-0.124,0.354-0.105,0.539-0.105c0.934-0.001,1.867-0.008,2.801,0.003
			c0.402,0.004,0.799-0.029,1.195-0.086c0.381-0.03,0.592,0.183,0.564,0.563c-0.189,0.088-0.391,0.084-0.592,0.084
			c-1.203-0.001-2.406-0.002-3.611,0c-0.198,0-0.407-0.031-0.555,0.156C37.229,24.581,37.104,24.381,37.029,24.155z"/>
		<path fill="#FFFFFF" d="M40.5,22.035c-0.706-0.001-1.415-0.001-2.122-0.001c-0.708,0-1.419,0-2.128,0
			c-0.072-0.177-0.102-0.363-0.098-0.556c0.033-0.318,0.29-0.271,0.487-0.277c0.763-0.024,1.526-0.007,2.289-0.011
			c0.348-0.002,0.697,0.013,1.044-0.016c0.154-0.014,0.291,0.021,0.418,0.104C40.614,21.505,40.732,21.744,40.5,22.035z"/>
		<path fill="#FFFFFF" d="M40.021,20.103c0.024,0.027,0.048,0.055,0.073,0.082c0.291,0.142,0.325,0.349,0.156,0.608
			c-0.235,0.164-0.509,0.144-0.774,0.149c-1.136,0.028-2.272-0.058-3.405,0.062c-0.092-0.295-0.146-0.596-0.147-0.903
			C37.288,20.102,38.655,20.102,40.021,20.103z"/>
		<path fill="#FFFFFF" d="M54.139,21.562c-0.118-0.08-0.249-0.092-0.386-0.092c-1.138,0.001-2.275-0.002-3.414,0.004
			c-0.131,0.001-0.261,0.051-0.391,0.076c-0.228-0.29-0.106-0.532,0.109-0.759c0.188-0.116,0.396-0.158,0.612-0.16
			c1.038-0.008,2.08-0.012,3.119,0.003c0.184,0.002,0.383-0.006,0.496,0.191C54.28,21.079,54.236,21.325,54.139,21.562z"/>
		<path fill="#FFFFFF" d="M61.155,15.26c-1.457,0.002-2.913,0.005-4.37,0.007c-0.105-0.205-0.073-0.427-0.085-0.644
			c1.345-0.001,2.688-0.002,4.032-0.002C60.874,14.834,61.014,15.046,61.155,15.26z"/>
		<path fill="#FFFFFF" d="M54.285,20.826c-1.193,0-2.386,0-3.58,0c-0.199,0-0.402-0.014-0.59,0.08
			c-0.208-0.333-0.165-0.593,0.137-0.833c0.178-0.061,0.36-0.087,0.551-0.089c0.998-0.006,1.997-0.009,2.996,0.003
			c0.207,0.003,0.438-0.027,0.574,0.193C54.379,20.4,54.373,20.618,54.285,20.826z"/>
		<path fill="#FFFFFF" d="M50.256,17.053c0.111-0.213,0.314-0.174,0.497-0.174c1.209-0.003,2.418-0.003,3.626-0.003
			c0.084,0.209,0.078,0.428,0.07,0.646c-1.189,0-2.379-0.001-3.568,0c-0.186,0-0.375-0.022-0.543,0.092
			C49.994,17.473,50.048,17.274,50.256,17.053z"/>
		<path fill="#FFFFFF" d="M36.07,21.005c0.079-0.273,0.304-0.259,0.52-0.26c1.199-0.001,2.398,0,3.598,0
			c0.326,0.248,0.353,0.358,0.148,0.645c-1.107,0-2.213-0.004-3.317,0.004c-0.29,0.002-0.59-0.068-0.866,0.085
			C36.07,21.33,36.073,21.168,36.07,21.005z"/>
		<path fill="#FFFFFF" d="M47.778,24.859c0.19,0.089,0.394,0.076,0.595,0.076c1.222,0.001,2.443,0,3.665,0.001
			c0.229,0,0.461-0.014,0.644,0.164c-0.084,0.172-0.165,0.346-0.33,0.459c-0.265-0.113-0.54-0.143-0.824-0.142
			c-1.354,0.003-2.705,0.001-4.058,0.001c-0.201,0-0.404,0.006-0.593-0.08C46.967,24.979,47.422,24.736,47.778,24.859z"/>
		<path fill="#FFFFFF" d="M54.439,18.977c0.006,0.083,0.012,0.164,0.018,0.246c-0.006,0.132-0.012,0.264-0.018,0.396
			c-0.123,0.178-0.312,0.188-0.5,0.191c-1.055,0.013-2.106,0.014-3.16-0.002c-0.171-0.002-0.35-0.006-0.486-0.141
			c-0.106-0.169-0.103-0.321,0.064-0.451c0.025-0.08,0.047-0.161,0.07-0.241c0.125-0.176,0.312-0.192,0.503-0.194
			c1.003-0.013,2.007-0.014,3.01,0.001C54.13,18.783,54.32,18.793,54.439,18.977z"/>
		<path fill="#FFFFFF" d="M69.113,24.452c-1.33-0.172-2.668-0.041-4-0.079c0.089-0.219,0.177-0.438,0.268-0.658
			c0.149-0.129,0.325-0.178,0.52-0.181c0.938-0.011,1.877-0.018,2.815,0.006c0.286,0.007,0.549,0.062,0.493,0.452
			C69.209,24.152,69.198,24.311,69.113,24.452z"/>
		<path fill="#FFFFFF" d="M65.403,22.617c0.11-0.213,0.312-0.178,0.495-0.18c0.913-0.002,1.826,0,2.738,0
			c0.652,0,0.654,0.004,0.628,0.65c-0.136,0.196-0.346,0.185-0.545,0.188c-0.644,0.012-1.287,0.028-1.93-0.003
			c-0.476-0.023-0.917,0.087-1.362,0.209C65.419,23.193,65.412,22.905,65.403,22.617z"/>
		<path fill="#FFFFFF" d="M65.428,23.482c0.059-0.324,0.257-0.412,0.574-0.406c1.088,0.019,2.175,0.011,3.263,0.012
			c0.008,0.084,0.016,0.168,0.024,0.253c0,0.221,0.018,0.443-0.08,0.651c-0.105-0.271-0.343-0.264-0.572-0.265
			c-1.086-0.005-2.172-0.009-3.256-0.013C65.396,23.638,65.412,23.56,65.428,23.482z"/>
		<path fill="#FFFFFF" d="M29.467,11.64c1.016,0,2.033-0.001,3.051,0c0.174,0,0.35-0.015,0.506,0.088
			c-0.842,1.028-2.396,1.156-3.312,0.269C29.607,11.894,29.492,11.798,29.467,11.64z"/>
		<path fill="#FFFFFF" d="M50.343,19.617c1.365,0,2.73,0,4.097,0.001c0.014,0.191,0.012,0.381-0.066,0.562c-1.368,0-2.738,0-4.107,0
			C50.021,19.957,50.035,19.767,50.343,19.617z"/>
		<path fill="#FFFFFF" d="M59.238,25.167c-0.751,0.152-1.512,0.067-2.269,0.088c0.219-0.931,0.218-0.928,1.085-0.562
			C58.447,24.857,58.844,25.009,59.238,25.167z"/>
		<path fill="#FFFFFF" d="M29.322,24.937c-0.036,0.214,0.037,0.443-0.083,0.648c0.002-0.431,0.003-0.862,0.003-1.292
			c0.023-0.007,0.046-0.014,0.066-0.021c0.044,0.021,0.078,0.052,0.104,0.092C29.523,24.578,29.496,24.769,29.322,24.937z"/>
		<path fill="#FFFFFF" d="M29.296,24.294c-0.018,0-0.036,0-0.054-0.001c0-0.403,0-0.807,0-1.21c0.018,0,0.038-0.001,0.056-0.002
			c0.222,0.102,0.167,0.309,0.183,0.489C29.467,23.824,29.581,24.11,29.296,24.294z"/>
		<path fill="#FFFFFF" d="M29.32,15.996c-0.024-1.238-0.089-1.038,0.997-1.052c0.778-0.009,1.559-0.003,2.335,0
			c0.497,0.001,0.521,0.027,0.523,0.529c0,0.174-0.006,0.349-0.009,0.522c-0.128,0.171-0.315,0.185-0.503,0.187
			c-0.946,0.013-1.894,0.013-2.839,0C29.636,16.181,29.448,16.167,29.32,15.996z"/>
		<path fill="#FFFFFF" d="M29.32,15.996c1.282,0,2.564,0,3.848,0c-0.001,0.295-0.002,0.59-0.003,0.885
			c-0.126,0.175-0.313,0.186-0.501,0.188c-0.946,0.013-1.894,0.013-2.839,0c-0.188-0.002-0.377-0.013-0.503-0.188
			C29.32,16.586,29.32,16.291,29.32,15.996z"/>
		<path fill="#FFFFFF" d="M33.164,17.524c0,0.27,0,0.537,0,0.807c-0.125,0.176-0.312,0.186-0.5,0.189
			c-0.946,0.012-1.893,0.012-2.839,0c-0.188-0.004-0.377-0.014-0.501-0.189c0-0.27,0-0.537,0-0.807
			c0.119-0.183,0.311-0.191,0.498-0.194c0.948-0.014,1.896-0.014,2.844,0C32.855,17.333,33.044,17.342,33.164,17.524z"/>
		<path fill="#FFFFFF" d="M29.322,22.277c0-0.242,0.002-0.482,0.002-0.725c0.12-0.182,0.311-0.191,0.499-0.194
			c0.947-0.013,1.895-0.013,2.843,0c0.188,0.003,0.377,0.013,0.498,0.194c0.001,0.242,0.001,0.482,0.002,0.725
			c-0.124,0.178-0.314,0.188-0.501,0.19c-0.947,0.014-1.895,0.014-2.842,0C29.635,22.466,29.444,22.455,29.322,22.277z"/>
		<path fill="#FFFFFF" d="M29.296,24.294c0.009-0.242,0.017-0.485,0.026-0.728c0.121-0.181,0.312-0.189,0.5-0.192
			c0.948-0.014,1.896-0.014,2.845,0c0.188,0.003,0.379,0.015,0.501,0.192c0,0.241,0,0.483,0.002,0.726
			c-0.126,0.175-0.314,0.188-0.503,0.19c-0.948,0.014-1.896,0.015-2.845-0.001c-0.188-0.002-0.38-0.01-0.498-0.193L29.296,24.294z"
			/>
		<path fill="#FFFFFF" d="M33.164,17.524c-1.279,0-2.561,0-3.84,0c0-0.214-0.002-0.429-0.002-0.644c1.28,0,2.562,0,3.844,0
			C33.165,17.097,33.165,17.311,33.164,17.524z"/>
		<path fill="#FFFFFF" d="M33.168,23.566c-1.282,0-2.564,0-3.846,0c-0.009-0.161-0.016-0.323-0.024-0.485
			c0.008-0.053,0.015-0.106,0.022-0.159c0.123-0.179,0.314-0.189,0.502-0.192c0.948-0.014,1.896-0.014,2.845,0
			c0.188,0.003,0.377,0.014,0.5,0.192C33.167,23.138,33.167,23.353,33.168,23.566z"/>
		<path fill="#FFFFFF" d="M29.324,20.264c0-0.216,0-0.43,0-0.645c0.12-0.183,0.311-0.191,0.499-0.194
			c0.947-0.013,1.895-0.013,2.843,0c0.188,0.003,0.377,0.012,0.498,0.194c0,0.215,0,0.429,0,0.645
			c-0.124,0.178-0.312,0.188-0.5,0.19c-0.946,0.013-1.894,0.013-2.839,0C29.637,20.451,29.447,20.441,29.324,20.264z"/>
		<path fill="#FFFFFF" d="M29.324,18.331c1.279,0,2.561,0,3.84,0c0,0.214,0,0.429,0,0.644c-0.125,0.179-0.312,0.187-0.501,0.189
			c-0.945,0.013-1.892,0.013-2.838,0c-0.188-0.003-0.377-0.011-0.501-0.189C29.324,18.76,29.324,18.545,29.324,18.331z"/>
		<path fill="#FFFFFF" d="M29.324,20.264c1.279,0,2.561,0,3.84,0c0,0.215,0,0.43,0,0.646c-0.123,0.177-0.312,0.186-0.5,0.19
			c-0.946,0.012-1.894,0.012-2.839,0c-0.188-0.005-0.378-0.014-0.501-0.19C29.324,20.693,29.324,20.479,29.324,20.264z"/>
		<path fill="#FFFFFF" d="M29.324,20.909c1.279,0,2.561,0,3.84,0c0,0.214,0,0.429,0,0.644c-1.279,0-2.561,0-3.84,0
			C29.324,21.338,29.324,21.123,29.324,20.909z"/>
		<path fill="#FFFFFF" d="M29.324,18.975c1.279,0,2.56,0,3.84,0c0,0.214,0,0.431,0,0.645c-1.28,0-2.561,0-3.84,0
			C29.324,19.405,29.324,19.188,29.324,18.975z"/>
		<path fill="#FFFFFF" d="M33.167,22.922c-1.282,0-2.564,0-3.847,0c0-0.215,0-0.43,0.002-0.645c1.28,0,2.562,0,3.844,0
			C33.166,22.492,33.167,22.707,33.167,22.922z"/>
		<path fill="#FFFFFF" d="M29.324,24.288c1.281,0,2.563,0.002,3.846,0.004c0,0.215,0,0.43,0,0.645c-1.282,0-2.566,0-3.848,0
			C29.324,24.721,29.324,24.503,29.324,24.288z"/>
		<path fill="#FFFFFF" d="M54.439,18.977c-1.337-0.001-2.675-0.001-4.012-0.002c-0.006-0.646-0.006-0.646,0.642-0.646
			c0.913-0.001,1.826-0.001,2.739,0C54.461,18.329,54.463,18.33,54.439,18.977z"/>
		<path fill="#FFFFFF" d="M40.015,18.734c-0.001,0.215-0.001,0.43-0.002,0.645c-1.36,0-2.721,0-4.081,0
			c0-0.214-0.001-0.429-0.001-0.645c0.118-0.184,0.312-0.192,0.499-0.194c1.028-0.015,2.057-0.015,3.086-0.001
			C39.703,18.542,39.896,18.55,40.015,18.734z"/>
		<path fill="#FFFFFF" d="M40.015,18.734c-1.361,0-2.723,0-4.084,0c-0.013-0.55,0.001-0.567,0.55-0.568
			c1.178,0,2.355,0.003,3.535,0.004C40.015,18.358,40.015,18.547,40.015,18.734z"/>
	</g>
</g>
</svg>
