<?xml version="1.0" encoding="utf-8"?>
<!-- Generator: Adobe Illustrator 16.0.0, SVG Export Plug-In . SVG Version: 6.00 Build 0)  -->
<!DOCTYPE svg PUBLIC "-//W3C//DTD SVG 1.1//EN" "http://www.w3.org/Graphics/SVG/1.1/DTD/svg11.dtd">
<svg version="1.1" id="Layer_1" xmlns="http://www.w3.org/2000/svg" xmlns:xlink="http://www.w3.org/1999/xlink" x="0px" y="0px"
	 width="284.416px" height="258.441px" viewBox="0 0 284.416 258.441" enable-background="new 0 0 284.416 258.441"
	 xml:space="preserve">
<g>
	<defs>
		
			<rect id="SVGID_1_" x="58.271" y="142.841" transform="matrix(-1 -0.0053 0.0053 -1 164.9307 362.0748)" width="49.342" height="75.958"/>
	</defs>
	<clipPath id="SVGID_2_">
		<use xlink:href="#SVGID_1_"  overflow="visible"/>
	</clipPath>
	<g clip-path="url(#SVGID_2_)">
		<defs>
			
				<rect id="SVGID_3_" x="58.271" y="142.841" transform="matrix(-1 -0.0053 0.0053 -1 164.9307 362.0748)" width="49.342" height="75.958"/>
		</defs>
		<clipPath id="SVGID_4_">
			<use xlink:href="#SVGID_3_"  overflow="visible"/>
		</clipPath>
		<path clip-path="url(#SVGID_4_)" fill="#FFFFFF" d="M73.922,218.753l-15.849-0.084l0.395-75.955l49.342,0.258l-0.396,75.957
			l-20.334-0.107c-0.201-0.6-0.335-1.234-0.613-1.797c-1.514-3.072-3.062-6.121-4.603-9.182c-0.522-1.031-1.04-2.061-1.562-3.093
			c-0.362,0.632-0.432,1.212-0.357,1.764c0.417,2.888,1.184,5.646,2.794,8.154c0.816,1.273,1.308,2.755,1.942,4.14l-3.284-0.016
			c0.005-0.15,0.038-0.304,0.007-0.449c-0.857-4.777-1.799-9.545-2.552-14.339c-0.431-2.714-0.661-5.479-0.793-8.226
			c-0.196-4.26-0.234-8.527-0.335-12.789c-0.051-1.883-0.079-3.774-0.145-5.661c-0.007-0.282-0.175-0.556-0.272-0.833
			c-0.412,0.545-0.508,1.05-0.522,1.562c-0.079,6.076-0.142,12.148-0.226,18.219c-0.026,1.738-0.249,3.484-0.093,5.205
			c0.239,2.634,0.678,5.252,1.113,7.865c0.535,3.152,1.146,6.289,1.721,9.434l-2.99-0.016c-0.038-0.691-0.144-1.387-0.112-2.076
			c0.129-3.078,0.391-6.158,0.407-9.236c0.007-1.614-0.396-3.23-0.613-4.846c-0.432,0.985-0.527,1.979-0.638,2.975
			C74.88,209.971,74.397,214.366,73.922,218.753 M79.699,203.585c0.503-0.83,1.021-1.648,1.505-2.492
			c3.295-5.749,6.594-11.503,9.871-17.269c0.391-0.684,0.976-1.437,0.941-2.138c-0.038-0.938-0.594-1.857-0.925-2.785
			c-0.599,0.438-1.377,0.756-1.772,1.334c-1.304,1.925-2.528,3.91-3.676,5.937c-1.94,3.446-3.838,6.913-5.671,10.417
			C78.815,198.81,79.672,201.204,79.699,203.585 M92.004,178.13c2.432,7.779,7.787,12.977,13.341,18.027
			c-0.806-1.647-1.718-3.211-2.638-4.767c-2.271-3.833-3.69-7.993-4.869-12.255c-0.107-0.386-0.618-0.913-0.971-0.937
			C95.273,178.092,93.665,178.138,92.004,178.13 M75.844,181.106c-1.569-1.07-4.263-0.616-5.321,0.982
			c-2.286,3.454-2.731,7.379-2.621,11.453C69.773,188.884,71.423,184.116,75.844,181.106 M83.879,176.533
			c-0.134-0.047-0.266-0.091-0.404-0.133c-0.163,0.345-0.369,0.676-0.491,1.038c-1.358,4.154-2.895,8.27-3.991,12.492
			c-0.499,1.905-0.099,4.041-0.11,6.073c0.066-0.005,0.127-0.009,0.188-0.013C80.679,189.509,82.282,183.021,83.879,176.533
			 M84.582,175.509c2.938,0.545,4.787-0.154,5.954-2.308c0.185-0.343,0.328-1.062,0.18-1.17c-0.364-0.255-0.975-0.45-1.375-0.325
			C87.303,172.339,85.054,172.762,84.582,175.509 M73.474,169.08c-1.097,2.36,0.712,5.817,2.883,6.181
			c0.261,0.049,0.846-0.312,0.846-0.488c0.01-0.795,0.134-1.803-0.285-2.344C75.978,171.228,74.737,170.271,73.474,169.08
			 M82.845,169.931c-4.802,2.042-5.181,2.49-4.596,5.347C81.664,174.425,83.202,172.675,82.845,169.931 M81.007,144.3
			c-2.357,1.168-3.826,4.092-0.86,5.846C82.888,148.302,83.022,147.418,81.007,144.3 M74.613,195.486
			c0.201-0.006,0.395-0.015,0.597-0.028c0.062-1.463,0.386-2.98,0.117-4.385c-0.319-1.675-1.119-3.262-1.764-4.861
			c-0.168-0.432-0.534-0.776-0.808-1.16c-0.163,0.484-0.562,1.021-0.462,1.441C73.009,189.506,73.824,192.493,74.613,195.486
			 M63.206,148.158c0.361,1.321,0.846,2.188,2.062,2.351c1.076,0.141,2.07-0.897,2.072-2.047c0.005-1.166-1.787-3.723-2.199-3.341
			C64.279,145.903,63.829,147.119,63.206,148.158 M61.33,154.294c0.026,1.504,0.333,2.794,2.008,3.324
			c0.836,0.26,1.648,0.616,2.478,0.914c0.819,0.299,0.958-0.134,0.886-0.826C66.416,155.052,64.116,154.099,61.33,154.294
			 M77.612,166.569c1.421-2.628,0.863-3.541-3.366-5.603C73.012,162.735,74.028,164.612,77.612,166.569 M74.991,152.046
			c-0.549,1.322-0.498,2.532,0.402,3.538c0.544,0.608,1.284,1.054,1.981,1.5c0.329,0.212,0.868,0.45,1.129,0.315
			c0.282-0.15,0.479-0.701,0.491-1.088C79.059,154.62,77.186,152.604,74.991,152.046 M94.233,163.4
			c-1.22,0.33-2.161,0.688-3.125,0.823c-2.142,0.299-2.81,0.992-2.903,3.241C92.105,167.323,93.552,166.454,94.233,163.4
			 M77.112,170.788c1.766-2.547-0.048-3.766-3.338-5.412C72.449,167.304,73.004,168.218,77.112,170.788 M79.794,157.529
			c2.789-0.179,5.506-2.991,4.927-5.28C82.371,153.36,79.479,153.821,79.794,157.529 M79.395,153.581
			c0.905-3.363-1.721-5.27-3.875-5.516C74.835,150.796,75.348,151.542,79.395,153.581 M69.533,176.021
			c0.779-2.298-2.621-4.705-4.909-4.206C64.64,175.116,66.682,175.983,69.533,176.021 M78.007,161.966
			c1.393-2.242-0.026-4.358-3.412-5.271C73.644,158.859,74.229,159.776,78.007,161.966 M83.703,161.188
			c-3.676,1.13-5.158,2.011-4.593,5.202C82.526,165.36,84.059,163.61,83.703,161.188 M97.405,155.374
			c-0.419-0.003-1.001-0.182-1.253,0.029c-1.114,0.921-2.834,0.563-3.74,1.875c-0.407,0.579-0.925,1.086-1.392,1.623
			c0.124,0.166,0.251,0.332,0.378,0.498c1.019-0.206,2.027-0.52,3.051-0.595C96.195,158.67,97.453,157.376,97.405,155.374
			 M67.667,158.489c1.086-1.148,1.879-2.184,2.868-2.971c1.068-0.85,0.879-1.91,0.841-2.968c-0.023-0.767-0.479-0.942-1.106-0.512
			C68.326,153.384,66.761,155.353,67.667,158.489 M96.585,149.22c-0.071-0.538-0.132-1.076-0.228-1.608
			c-0.228-1.134-0.783-1.361-1.603-0.577c-0.664,0.645-1.452,1.322-1.737,2.145c-0.228,0.648,0.18,1.548,0.417,2.303
			c0.067,0.213,0.524,0.451,0.778,0.428C95.39,151.802,96.574,150.417,96.585,149.22 M88.3,152.47
			c-1.998,2.209-0.908,4.281,1.931,6.209C91.503,156.694,91.099,155.356,88.3,152.47 M71.948,156.432
			c-0.903,0.614-2.188,1.157-2.966,2.109c-0.773,0.951-1.114,2.302-0.562,3.667C71.768,160.205,72.887,158.983,71.948,156.432
			 M66.955,153.865c1.148-0.898,2.322-1.577,3.142-2.55c0.539-0.637,0.742-1.695,0.783-2.578c0.017-0.629-0.524-1.221-1.358-0.746
			C67.379,149.21,66.466,151.237,66.955,153.865 M83.113,165.981c-3.919,1.014-4.938,1.691-4.482,4.87
			C82.956,168.96,83.712,168.136,83.113,165.981 M88.5,162.997c1.337-1.454,0.922-4.845-1.771-6.324
			C85.137,158.567,85.577,160.176,88.5,162.997 M86.942,167.146c1.347-3.135,0.283-6.145-2.229-6.527
			C84.136,163.187,84.515,165.496,86.942,167.146 M86.396,171.272c3.055,0.732,5.97-0.943,6.004-3.355
			C89.92,167.562,87.124,169.091,86.396,171.272 M65.754,153.812c0.283-2.384-2.082-4.058-4.866-3.551
			C60.791,153.213,62.108,153.706,65.754,153.812 M95.718,159.755c-3.012-0.379-5.343,0.913-6.155,3.346
			C93.04,162.94,95.68,162.458,95.718,159.755 M80.295,153.749c1.809-1.889,5.439-1.475,5.049-5.208
			C82.117,148.869,80.351,150.564,80.295,153.749 M79.433,161.724c0.096,0.12,0.194,0.242,0.295,0.371
			c1.202-0.68,2.499-1.256,3.591-2.096c0.557-0.429,0.867-1.294,1.074-2.029c0.198-0.688-0.168-1.283-0.985-0.846
			c-1.241,0.658-2.537,1.312-3.541,2.252C79.405,159.813,79.56,160.919,79.433,161.724 M91.95,155.077
			c1.152-2.271,0.402-4.103-1.107-5.736c-0.218-0.238-0.846-0.396-1.073-0.256c-0.824,0.502-1.037,2.365-0.419,3.085
			C90.179,153.131,91.043,154.067,91.95,155.077 M69.361,166.845c2.898-1.926,3.807-3.879,2.982-6.343
			C69.828,161.86,68.654,163.868,69.361,166.845 M67.808,166.924c-0.892-3.349-1.96-4.146-4.67-3.544
			C62.731,165.481,64.035,166.669,67.808,166.924 M93.178,155.007c3.33,0.43,5.784-0.841,5.789-3.002
			C95.651,151.542,94.108,152.343,93.178,155.007 M63.857,167.644c-0.067,2.15,0.206,3.033,4.734,3.633
			C69.142,169.299,67.99,168.331,63.857,167.644 M62.335,158.897c-0.15,2.133,1.948,3.71,4.615,3.471
			C67.25,159.898,65.321,158.446,62.335,158.897 M70.168,170.644c3.673-1.502,2.537-1.709,1.981-4.912
			C70.729,167.077,68.805,168.138,70.168,170.644 M78.537,181.782l-0.033,6.037c0.379-0.562,0.522-1.12,0.702-1.664
			c0.206-0.598,0.45-1.176,0.683-1.768C80.508,182.747,80.078,181.925,78.537,181.782 M83.497,169.259
			c0.228,0.248,0.522,0.585,0.834,0.886c0.295,0.292,0.618,0.552,0.963,0.842c1.059-1.974,0.712-3.796-0.645-4.557
			C84.301,167.29,83.942,168.171,83.497,169.259 M70.556,175.45c0.139,0.111,0.282,0.225,0.417,0.338
			c0.64-0.602,1.708-1.148,1.799-1.828c0.105-0.771-0.656-1.666-1.034-2.509c-0.176,0.048-0.353,0.103-0.525,0.155
			C70.993,172.882,70.774,174.165,70.556,175.45 M84.163,171.39c-0.309,0.596-0.455,1.347-0.91,1.689
			c-1.488,1.129-0.613,1.699,0.589,2.55C84.098,174.112,85.727,173.019,84.163,171.39 M70.657,177.208
			c-0.18,0.033-0.361,0.062-0.544,0.096c0.249,1.123,0.498,2.248,0.745,3.373C71.891,179.344,71.036,178.317,70.657,177.208"/>
		<path clip-path="url(#SVGID_4_)" fill-rule="evenodd" clip-rule="evenodd" d="M79.301,218.78
			c-0.575-3.145-1.186-6.281-1.721-9.434c-0.436-2.613-0.874-5.231-1.113-7.865c-0.156-1.721,0.066-3.467,0.093-5.205
			c0.084-6.07,0.146-12.143,0.226-18.219c0.015-0.513,0.11-1.018,0.522-1.562c0.098,0.28,0.266,0.551,0.272,0.833
			c0.065,1.887,0.094,3.778,0.145,5.665c0.101,4.258,0.139,8.525,0.335,12.785c0.132,2.746,0.362,5.512,0.793,8.226
			c0.753,4.794,1.694,9.562,2.552,14.339c0.031,0.146-0.002,0.299-0.007,0.449L79.301,218.78z"/>
		<path clip-path="url(#SVGID_4_)" fill-rule="evenodd" clip-rule="evenodd" d="M84.682,218.808
			c-0.635-1.385-1.126-2.866-1.942-4.14c-1.61-2.509-2.377-5.267-2.794-8.154c-0.074-0.552-0.005-1.132,0.357-1.764
			c0.521,1.032,1.039,2.062,1.562,3.093c1.541,3.061,3.089,6.109,4.603,9.182c0.278,0.562,0.412,1.197,0.613,1.797L84.682,218.808z"
			/>
		<path clip-path="url(#SVGID_4_)" fill-rule="evenodd" clip-rule="evenodd" d="M73.922,218.753
			c0.475-4.387,0.958-8.782,1.433-13.172c0.11-0.995,0.204-1.989,0.638-2.975c0.218,1.615,0.62,3.231,0.613,4.849
			c-0.017,3.075-0.278,6.155-0.407,9.233c-0.031,0.689,0.074,1.385,0.112,2.076L73.922,218.753z"/>
		<path clip-path="url(#SVGID_4_)" fill-rule="evenodd" clip-rule="evenodd" d="M79.699,203.585
			c-0.026-2.381-0.884-4.775,0.273-6.996c1.833-3.504,3.73-6.971,5.671-10.417c1.147-2.026,2.372-4.012,3.676-5.937
			c0.396-0.578,1.174-0.896,1.775-1.334c0.328,0.928,0.884,1.848,0.922,2.785c0.034,0.701-0.551,1.454-0.941,2.138
			c-3.277,5.766-6.576,11.52-9.871,17.269C80.719,201.937,80.202,202.755,79.699,203.585"/>
		<path clip-path="url(#SVGID_4_)" fill-rule="evenodd" clip-rule="evenodd" d="M92.004,178.13c1.66,0.008,3.269-0.038,4.863,0.069
			c0.353,0.023,0.863,0.551,0.971,0.937c1.179,4.262,2.598,8.422,4.869,12.255c0.92,1.556,1.832,3.119,2.638,4.767
			C99.792,191.106,94.436,185.909,92.004,178.13"/>
		<path clip-path="url(#SVGID_4_)" fill-rule="evenodd" clip-rule="evenodd" d="M75.844,181.106
			c-4.421,3.01-6.071,7.777-7.942,12.436c-0.11-4.074,0.335-7.999,2.621-11.453C71.582,180.49,74.275,180.036,75.844,181.106"/>
		<path clip-path="url(#SVGID_4_)" fill-rule="evenodd" clip-rule="evenodd" d="M83.879,176.533
			c-1.598,6.487-3.2,12.976-4.809,19.458c-0.062,0.004-0.122,0.008-0.188,0.013c0.012-2.032-0.384-4.168,0.11-6.073
			c1.097-4.223,2.633-8.338,3.991-12.488c0.122-0.366,0.328-0.697,0.491-1.042C83.614,176.442,83.746,176.486,83.879,176.533"/>
		<path clip-path="url(#SVGID_4_)" fill-rule="evenodd" clip-rule="evenodd" d="M84.582,175.509c0.473-2.747,2.722-3.17,4.759-3.803
			c0.4-0.125,1.011,0.07,1.375,0.325c0.148,0.107,0.005,0.827-0.18,1.17C89.369,175.354,87.514,176.054,84.582,175.509"/>
		<path clip-path="url(#SVGID_4_)" fill-rule="evenodd" clip-rule="evenodd" d="M73.474,169.08c1.263,1.19,2.504,2.147,3.443,3.349
			c0.419,0.541,0.295,1.549,0.285,2.344c0,0.177-0.585,0.537-0.846,0.488C74.186,174.897,72.377,171.44,73.474,169.08"/>
		<path clip-path="url(#SVGID_4_)" fill-rule="evenodd" clip-rule="evenodd" d="M82.845,169.931
			c0.356,2.744-1.182,4.494-4.596,5.347C77.665,172.421,78.043,171.973,82.845,169.931"/>
		<path clip-path="url(#SVGID_4_)" fill-rule="evenodd" clip-rule="evenodd" d="M81.007,144.3c2.018,3.118,1.881,4.002-0.86,5.846
			C77.181,148.392,78.65,145.468,81.007,144.3"/>
		<path clip-path="url(#SVGID_4_)" fill-rule="evenodd" clip-rule="evenodd" d="M74.613,195.486
			c-0.789-2.993-1.604-5.98-2.319-8.993c-0.101-0.42,0.299-0.957,0.462-1.441c0.273,0.384,0.64,0.729,0.808,1.16
			c0.645,1.6,1.444,3.187,1.764,4.861c0.269,1.404-0.056,2.922-0.117,4.391C75.007,195.472,74.814,195.48,74.613,195.486"/>
		<path clip-path="url(#SVGID_4_)" fill-rule="evenodd" clip-rule="evenodd" d="M63.206,148.158
			c0.623-1.039,1.083-2.255,1.936-3.037c0.412-0.382,2.204,2.175,2.199,3.341c-0.002,1.149-0.996,2.188-2.072,2.048
			C64.051,150.346,63.567,149.479,63.206,148.158"/>
		<path clip-path="url(#SVGID_4_)" fill-rule="evenodd" clip-rule="evenodd" d="M61.33,154.294c2.786-0.195,5.086,0.758,5.371,3.412
			c0.072,0.692-0.066,1.125-0.886,0.826c-0.829-0.298-1.642-0.654-2.478-0.914C61.663,157.088,61.356,155.798,61.33,154.294"/>
		<path clip-path="url(#SVGID_4_)" fill-rule="evenodd" clip-rule="evenodd" d="M77.612,166.569c-3.584-1.957-4.6-3.834-3.366-5.603
			C78.475,163.028,79.033,163.941,77.612,166.569"/>
		<path clip-path="url(#SVGID_4_)" fill-rule="evenodd" clip-rule="evenodd" d="M74.991,152.046
			c2.195,0.559,4.068,2.574,4.004,4.266c-0.012,0.387-0.209,0.938-0.491,1.09c-0.261,0.133-0.8-0.105-1.129-0.317
			c-0.697-0.446-1.438-0.892-1.981-1.5C74.493,154.578,74.442,153.368,74.991,152.046"/>
		<path clip-path="url(#SVGID_4_)" fill-rule="evenodd" clip-rule="evenodd" d="M94.233,163.4c-0.681,3.054-2.128,3.923-6.028,4.064
			c0.094-2.249,0.762-2.942,2.899-3.241C92.072,164.089,93.013,163.73,94.233,163.4"/>
		<path clip-path="url(#SVGID_4_)" fill-rule="evenodd" clip-rule="evenodd" d="M77.112,170.788
			c-4.107-2.57-4.663-3.484-3.338-5.412C77.064,167.022,78.877,168.241,77.112,170.788"/>
		<path clip-path="url(#SVGID_4_)" fill-rule="evenodd" clip-rule="evenodd" d="M79.794,157.529
			c-0.315-3.708,2.576-4.169,4.927-5.28C85.3,154.538,82.583,157.351,79.794,157.529"/>
		<path clip-path="url(#SVGID_4_)" fill-rule="evenodd" clip-rule="evenodd" d="M79.395,153.581
			c-4.047-2.039-4.56-2.785-3.875-5.516C77.674,148.312,80.3,150.218,79.395,153.581"/>
		<path clip-path="url(#SVGID_4_)" fill-rule="evenodd" clip-rule="evenodd" d="M69.533,176.021
			c-2.851-0.037-4.893-0.904-4.909-4.206C66.912,171.315,70.312,173.723,69.533,176.021"/>
		<path clip-path="url(#SVGID_4_)" fill-rule="evenodd" clip-rule="evenodd" d="M78.007,161.966
			c-3.778-2.189-4.363-3.106-3.412-5.271C77.981,157.607,79.4,159.724,78.007,161.966"/>
		<path clip-path="url(#SVGID_4_)" fill-rule="evenodd" clip-rule="evenodd" d="M83.703,161.188
			c0.356,2.423-1.177,4.173-4.593,5.202C78.544,163.198,80.022,162.317,83.703,161.188"/>
		<path clip-path="url(#SVGID_4_)" fill-rule="evenodd" clip-rule="evenodd" d="M97.405,155.374c0.048,2.002-1.21,3.296-2.956,3.431
			c-1.023,0.075-2.032,0.389-3.051,0.595c-0.127-0.166-0.254-0.332-0.378-0.498c0.467-0.537,0.984-1.044,1.392-1.623
			c0.906-1.308,2.626-0.954,3.74-1.875C96.404,155.192,96.986,155.371,97.405,155.374"/>
		<path clip-path="url(#SVGID_4_)" fill-rule="evenodd" clip-rule="evenodd" d="M67.667,158.489
			c-0.905-3.137,0.659-5.105,2.611-6.45c0.618-0.431,1.074-0.255,1.098,0.512c0.038,1.058,0.228,2.118-0.841,2.966
			C69.545,156.306,68.752,157.341,67.667,158.489"/>
		<path clip-path="url(#SVGID_4_)" fill-rule="evenodd" clip-rule="evenodd" d="M96.585,149.22
			c-0.012,1.197-1.195,2.582-2.372,2.689c-0.254,0.023-0.711-0.215-0.778-0.428c-0.237-0.755-0.645-1.654-0.417-2.303
			c0.285-0.822,1.073-1.5,1.737-2.145c0.819-0.784,1.375-0.557,1.603,0.577C96.454,148.144,96.514,148.682,96.585,149.22"/>
		<path clip-path="url(#SVGID_4_)" fill-rule="evenodd" clip-rule="evenodd" d="M88.3,152.47c2.799,2.887,3.203,4.225,1.931,6.209
			C87.392,156.751,86.302,154.679,88.3,152.47"/>
		<path clip-path="url(#SVGID_4_)" fill-rule="evenodd" clip-rule="evenodd" d="M71.948,156.432c0.939,2.552-0.18,3.773-3.528,5.776
			c-0.552-1.365-0.211-2.716,0.562-3.667C69.76,157.589,71.044,157.046,71.948,156.432"/>
		<path clip-path="url(#SVGID_4_)" fill-rule="evenodd" clip-rule="evenodd" d="M66.959,153.865
			c-0.493-2.628,0.42-4.655,2.562-5.874c0.834-0.475,1.375,0.117,1.358,0.746c-0.041,0.883-0.244,1.941-0.778,2.578
			C69.277,152.288,68.103,152.967,66.959,153.865"/>
		<path clip-path="url(#SVGID_4_)" fill-rule="evenodd" clip-rule="evenodd" d="M83.113,165.981c0.6,2.154-0.155,2.979-4.482,4.87
			C78.175,167.673,79.194,166.995,83.113,165.981"/>
		<path clip-path="url(#SVGID_4_)" fill-rule="evenodd" clip-rule="evenodd" d="M88.5,162.997c-2.923-2.821-3.362-4.426-1.771-6.324
			C89.421,158.152,89.836,161.543,88.5,162.997"/>
		<path clip-path="url(#SVGID_4_)" fill-rule="evenodd" clip-rule="evenodd" d="M86.942,167.146
			c-2.427-1.649-2.806-3.959-2.229-6.527C87.225,161.001,88.289,164.011,86.942,167.146"/>
		<path clip-path="url(#SVGID_4_)" fill-rule="evenodd" clip-rule="evenodd" d="M86.396,171.272
			c0.724-2.182,3.524-3.711,6.004-3.355C92.366,170.329,89.451,172.005,86.396,171.272"/>
		<path clip-path="url(#SVGID_4_)" fill-rule="evenodd" clip-rule="evenodd" d="M65.754,153.812c-3.646-0.106-4.959-0.6-4.866-3.551
			C63.672,149.755,66.038,151.429,65.754,153.812"/>
		<path clip-path="url(#SVGID_4_)" fill-rule="evenodd" clip-rule="evenodd" d="M95.718,159.755
			c-0.038,2.703-2.679,3.186-6.155,3.346C90.375,160.668,92.707,159.376,95.718,159.755"/>
		<path clip-path="url(#SVGID_4_)" fill-rule="evenodd" clip-rule="evenodd" d="M80.295,153.749c0.056-3.185,1.821-4.88,5.049-5.208
			C85.735,152.274,82.104,151.86,80.295,153.749"/>
		<path clip-path="url(#SVGID_4_)" fill-rule="evenodd" clip-rule="evenodd" d="M79.433,161.724c0.127-0.805-0.028-1.91,0.429-2.348
			c1.009-0.939,2.305-1.594,3.546-2.252c0.817-0.438,1.184,0.157,0.985,0.846c-0.207,0.735-0.518,1.601-1.074,2.029
			c-1.092,0.84-2.389,1.416-3.591,2.096C79.627,161.966,79.529,161.844,79.433,161.724"/>
		<path clip-path="url(#SVGID_4_)" fill-rule="evenodd" clip-rule="evenodd" d="M91.95,155.077c-0.906-1.01-1.771-1.946-2.6-2.907
			c-0.618-0.72-0.405-2.583,0.419-3.085c0.228-0.141,0.855,0.018,1.073,0.256C92.352,150.975,93.102,152.806,91.95,155.077"/>
		<path clip-path="url(#SVGID_4_)" fill-rule="evenodd" clip-rule="evenodd" d="M69.361,166.845
			c-0.707-2.977,0.467-4.984,2.982-6.343C73.167,162.966,72.259,164.919,69.361,166.845"/>
		<path clip-path="url(#SVGID_4_)" fill-rule="evenodd" clip-rule="evenodd" d="M67.808,166.924
			c-3.773-0.255-5.077-1.442-4.67-3.544C65.848,162.778,66.917,163.575,67.808,166.924"/>
		<path clip-path="url(#SVGID_4_)" fill-rule="evenodd" clip-rule="evenodd" d="M93.178,155.007c0.93-2.664,2.473-3.465,5.789-3.002
			C98.962,154.166,96.508,155.437,93.178,155.007"/>
		<path clip-path="url(#SVGID_4_)" fill-rule="evenodd" clip-rule="evenodd" d="M63.857,167.644
			c4.133,0.688,5.285,1.655,4.734,3.633C64.063,170.677,63.79,169.794,63.857,167.644"/>
		<path clip-path="url(#SVGID_4_)" fill-rule="evenodd" clip-rule="evenodd" d="M62.335,158.897
			c2.985-0.451,4.914,1.001,4.615,3.471C64.284,162.607,62.185,161.03,62.335,158.897"/>
		<path clip-path="url(#SVGID_4_)" fill-rule="evenodd" clip-rule="evenodd" d="M70.168,170.644
			c-1.363-2.506,0.561-3.566,1.981-4.912C72.706,168.935,73.841,169.142,70.168,170.644"/>
		<path clip-path="url(#SVGID_4_)" fill-rule="evenodd" clip-rule="evenodd" d="M78.537,181.782
			c1.543,0.143,1.972,0.965,1.352,2.605c-0.232,0.592-0.477,1.17-0.683,1.768c-0.18,0.544-0.323,1.102-0.702,1.664L78.537,181.782z"
			/>
		<path clip-path="url(#SVGID_4_)" fill-rule="evenodd" clip-rule="evenodd" d="M83.501,169.259c0.44-1.088,0.8-1.969,1.147-2.829
			c1.356,0.761,1.703,2.583,0.645,4.557c-0.345-0.29-0.668-0.55-0.963-0.842C84.019,169.844,83.724,169.507,83.501,169.259"/>
		<path clip-path="url(#SVGID_4_)" fill-rule="evenodd" clip-rule="evenodd" d="M70.556,175.45c0.218-1.285,0.437-2.568,0.656-3.844
			c0.173-0.053,0.35-0.107,0.525-0.155c0.378,0.843,1.14,1.737,1.034,2.509c-0.091,0.68-1.159,1.227-1.799,1.828
			C70.838,175.675,70.695,175.562,70.556,175.45"/>
		<path clip-path="url(#SVGID_4_)" fill-rule="evenodd" clip-rule="evenodd" d="M84.163,171.39c1.564,1.629-0.064,2.723-0.321,4.241
			c-1.207-0.853-2.077-1.423-0.589-2.552C83.708,172.736,83.854,171.985,84.163,171.39"/>
		<path clip-path="url(#SVGID_4_)" fill-rule="evenodd" clip-rule="evenodd" d="M70.657,177.208
			c0.379,1.109,1.234,2.136,0.201,3.469c-0.247-1.125-0.496-2.25-0.745-3.373C70.295,177.27,70.477,177.241,70.657,177.208"/>
	</g>
</g>
<g>
	<defs>
		
			<rect id="SVGID_5_" x="31.055" y="43.138" transform="matrix(-1 -0.0052 0.0052 -1 161.0976 160.001)" width="99.403" height="73.306"/>
	</defs>
	<clipPath id="SVGID_6_">
		<use xlink:href="#SVGID_5_"  overflow="visible"/>
	</clipPath>
	<g clip-path="url(#SVGID_6_)">
		<defs>
			
				<rect id="SVGID_7_" x="31.055" y="43.138" transform="matrix(-1 -0.0052 0.0052 -1 161.0976 160.001)" width="99.403" height="73.306"/>
		</defs>
		<clipPath id="SVGID_8_">
			<use xlink:href="#SVGID_7_"  overflow="visible"/>
		</clipPath>
		<path clip-path="url(#SVGID_8_)" fill="#FFFFFF" d="M130.557,61.05l-0.025,4.224c-0.387,0.276-0.917,0.467-1.148,0.839
			c-3.723,6.004-7.413,12.033-11.099,18.052c-0.227,0.372-0.396,0.773-0.585,1.155c0.174,0.116,0.342,0.228,0.518,0.341
			c3.736-4.722,7.469-9.449,11.221-14.159c0.277-0.347,0.711-0.572,1.068-0.856l-0.025,4.99c-0.286,0.188-0.682,0.303-0.846,0.568
			c-1.721,2.72-3.407,5.459-5.082,8.214c-0.24,0.4-0.346,0.885-0.514,1.332c0.148,0.067,0.291,0.13,0.438,0.195
			c0.535-0.668,1.027-1.382,1.611-2.003c1.436-1.512,2.916-2.982,4.372-4.47l-0.038,7.293c-1.106,0.245-2.196,0.607-3.319,0.721
			c-5.63,0.568-11.271,1.057-16.913,1.601c-2.28,0.226-4.586,0.411-6.837,0.837c-4.131,0.785-8.237,1.704-12.335,2.632
			c-2.874,0.657-5.768,1.275-8.558,2.192c-3.559,1.165-7.038,2.581-10.526,3.96c-3.021,1.199-5.974,2.549-8.999,3.732
			c-4.716,1.839-9.378,3.867-14.211,5.295c-3.732,1.102-7.699,1.411-11.558,2.087c-0.096,0.019-0.168,0.165-0.307,0.309
			c0.168,1.494,1.284,2.062,2.537,1.809c3.728-0.74,7.522-1.363,11.082-2.619c4.876-1.713,9.576-3.942,14.326-5.997
			c5.481-2.375,10.862-4.997,16.437-7.134c3.534-1.353,7.304-2.148,11.023-2.947c3.333-0.713,6.736-1.167,10.123-1.592
			c4.291-0.54,8.587-1.088,12.899-1.355c5.031-0.309,10.08-0.32,15.119-0.462v0.387c-1.418,0.206-2.826,0.456-4.253,0.614
			c-4.978,0.549-9.979,0.969-14.939,1.624c-4.396,0.576-8.781,1.277-13.118,2.15c-3.518,0.708-6.972,1.723-10.438,2.669
			c-2.184,0.598-4.384,1.194-6.496,2.006c-3.319,1.272-6.571,2.721-9.841,4.113c-2.873,1.218-5.688,2.608-8.616,3.656
			c-4.296,1.539-8.633,2.972-13.025,4.19c-2.738,0.757-5.612,1.011-8.415,1.55c-0.328,0.064-0.584,0.495-0.879,0.753
			c0.29,0.275,0.542,0.733,0.871,0.791c1.043,0.179,2.155,0.426,3.172,0.256c2.234-0.378,4.485-0.831,6.631-1.55
			c4.636-1.552,9.238-3.219,13.791-4.997c2.242-0.879,4.325-2.174,6.53-3.172c3.218-1.462,6.441-2.937,9.744-4.208
			c2.634-1.015,5.368-1.778,8.085-2.554c2.474-0.71,4.961-1.403,7.485-1.915c3.021-0.61,6.075-1.071,9.129-1.5
			c3.647-0.515,7.3-1.096,10.972-1.347c4.523-0.312,9.066-0.312,13.594-0.448v0.383c-1.287,0.229-2.566,0.509-3.863,0.676
			c-4.27,0.536-8.561,0.944-12.818,1.578c-3.862,0.572-7.686,1.39-11.536,2.069C101.111,97.8,100,97.75,98.97,98.026
			c-2.979,0.809-5.928,1.732-8.89,2.604c-0.972,0.286-1.986,0.453-2.911,0.835c-2.814,1.166-5.6,2.404-8.389,3.62
			c-2.87,1.252-5.685,2.609-8.595,3.729c-4.077,1.564-8.158,3.197-12.361,4.337c-3.588,0.978-7.358,1.255-11.031,1.946
			c-0.505,0.095-0.896,0.762-1.342,1.163l-14.586-0.076l0.117-22.643c0.245,0.166,0.568,0.284,0.728,0.515
			c2.02,2.895,4.01,5.81,6.021,8.71c0.879,1.269,1.792,2.512,2.693,3.765c0.193-0.112,0.387-0.235,0.581-0.351
			c-0.24-0.515-0.425-1.068-0.736-1.537c-1.212-1.841-2.533-3.614-3.681-5.487c-1.915-3.12-3.724-6.303-5.583-9.453l0.051-9.981
			c0.143,0.246,0.32,0.481,0.416,0.745c1.132,2.942,1.83,6.154,3.467,8.778c3.117,5.003,6.773,9.676,10.215,14.479
			c0.366,0.515,0.812,0.977,1.224,1.463c0.16-0.102,0.32-0.205,0.484-0.299c-0.248-0.501-0.433-1.039-0.749-1.483
			c-1.204-1.684-2.465-3.323-3.673-5.009c-5.247-7.358-9.315-15.216-10.417-24.352c-0.143-1.197-0.602-2.354-0.917-3.532
			l0.143-27.632l91.344,0.476c-1.346,0.871-2.541,2.261-4.025,1.308c-1.494,0.924-2.734,1.692-3.893,2.405
			c0.076,1.121,0.182,2.242,0.215,3.37c0.034,1.197-0.008,2.404-0.016,3.908c-3.152-0.017-6.135,0.02-9.113-0.067
			c-1.38-0.04-2.234,0.787-1.691,1.781c1.194,2.176-0.484,2.998-1.473,4.218c-0.362,0.439-0.723,0.883-1.043,1.348
			c-2.284,3.32-4.619,6.571-7.913,9.022c-3.059,2.278-6.025,4.668-8.999,7.049c-0.312,0.252-0.4,0.782-0.589,1.186
			c0.164,0.083,0.333,0.172,0.501,0.261c1.716-1.33,3.353-2.777,5.158-3.961c5.57-3.644,10.438-7.973,14.288-13.439
			c1.914-2.723,4.451-4.59,8.069-5.339c-1.418,1.63-2.869,2.886-3.812,4.447c-4.35,7.228-10.076,13.084-17.014,17.836
			c-0.82,0.56-1.384,1.504-2.065,2.274c0.164,0.136,0.324,0.28,0.484,0.417c2.802-2.163,5.73-4.18,8.368-6.529
			c3.168-2.825,6.185-5.833,9.071-8.945c2.221-2.389,4.098-5.099,6.223-7.587c1.666-1.959,3.795-2.87,5.268-2.716
			c-1.713,1.973-3.947,3.917-5.386,6.333c-4.548,7.659-10.282,14.233-17.06,19.95c-0.366,0.305-0.48,0.907-0.703,1.372
			c0.16,0.107,0.324,0.212,0.483,0.314c1.174-1.088,2.289-2.243,3.525-3.255c6.568-5.38,12.197-11.552,16.774-18.759
			c2.1-3.315,5.032-6.044,9.546-7.022c-0.412,0.648-0.585,1.039-0.854,1.336c-1.514,1.66-3.243,3.159-4.518,4.979
			c-1.695,2.421-2.916,5.17-4.557,7.636c-4.098,6.151-9.116,11.515-14.485,16.57c-0.652,0.618-1.111,1.446-1.653,2.179
			c0.13,0.119,0.269,0.247,0.404,0.364c0.341-0.223,0.732-0.401,1.018-0.682c1.826-1.79,3.643-3.595,5.44-5.41
			c2.907-2.943,6.071-5.682,8.616-8.909c3.584-4.537,6.555-9.567,10.102-14.138c1.3-1.672,3.512-2.642,5.309-3.932l-0.013,1.918
			c-0.327,0.116-0.804,0.134-0.968,0.368c-1.182,1.704-2.498,3.361-3.411,5.21c-4.22,8.562-9.655,16.234-16.324,23.053
			c-0.395,0.411-0.542,1.062-0.807,1.604c0.593,0.121,0.85,0.05,1.005-0.11c1.544-1.643,3.008-3.366,4.62-4.937
			c5.213-5.084,9.777-10.646,13.231-17.094C128.6,63.27,129.668,62.211,130.557,61.05 M32.429,69.473
			c0.06,0.198,0.114,0.389,0.168,0.587c2.689-0.242,3.374,1.645,4.047,3.534c0.214,0.595,0.378,1.213,0.564,1.826
			c1.022,3.471,1.809,7.028,3.109,10.394c2.642,6.822,7.788,11.909,12.647,17.211c-0.055-0.727-0.211-1.442-0.615-1.966
			c-1.035-1.341-2.255-2.546-3.272-3.9C44.82,91.5,41.16,85.579,39.838,78.43c-0.56-3.036-1.616-6.002-2.726-8.888
			c-0.282-0.74-1.603-1.418-2.495-1.477C33.927,68.02,33.162,68.966,32.429,69.473 M80.862,64.326
			c-1.287-0.755-2.233-0.701-3.635,0.26c-2.49,1.714-4.939,3.503-7.522,5.066c-1.409,0.856-3.059,1.323-4.603,1.96
			c2.751,0.909,4.666-0.857,6.803-1.738c1.522-0.631,2.801-1.841,4.228-2.722c1.371-0.842,2.797-1.595,4.198-2.388
			c0.102,0.181,0.202,0.359,0.303,0.539c-3.101,4.074-8.338,5.097-12.024,8.404c1.397-0.287,2.659-0.821,3.829-1.515
			c2.726-1.615,5.465-3.225,8.094-4.988c2.508-1.682,4.119-4.615,7.392-5.265c0.5-0.099,0.929-0.551,1.393-0.844
			c-0.126-0.17-0.256-0.347-0.383-0.52c-0.673-0.004-1.477-0.252-1.986,0.03C84.947,61.708,83.037,62.977,80.862,64.326
			 M58.913,100.038c0.11-0.076,0.215-0.145,0.324-0.215c-0.08-0.333-0.059-0.74-0.252-0.976c-1.33-1.588-2.651-3.189-4.068-4.697
			c-4.796-5.128-7.737-11.171-9.344-17.975c-0.518-2.179-1.578-4.245-2.604-6.258c-0.256-0.514-1.447-0.995-1.977-0.814
			c-0.677,0.233-1.127,1.153-1.834,1.963c2.865,0.551,3.008,0.639,3.904,2.877c0.404,1.001,0.681,2.053,1.047,3.071
			c1.065,2.985,1.704,6.235,3.328,8.884c2.386,3.882,5.436,7.361,8.284,10.948C56.65,98.017,57.84,98.979,58.913,100.038
			 M62.607,97.229c0.164-0.101,0.328-0.198,0.497-0.303c-0.152-0.397-0.206-0.884-0.467-1.191c-0.934-1.102-1.952-2.132-2.907-3.214
			c-3.711-4.227-6.606-8.883-8.002-14.424c-0.615-2.436-1.553-4.815-2.609-7.1c-0.27-0.591-1.527-0.976-2.331-0.98
			c-0.476-0.002-0.943,0.946-1.414,1.468c0.059,0.168,0.126,0.33,0.194,0.494c1.981-0.745,2.696,0.528,3.197,1.86
			c0.909,2.428,1.742,4.897,2.461,7.388c1.498,5.144,4.977,8.959,8.414,12.808C60.609,95.117,61.619,96.167,62.607,97.229
			 M96.626,59.03c-2.322-0.959-3.963,0.013-5.204,1.059c-1.801,1.519-3.05,3.7-4.868,5.176c-3.647,2.977-7.534,5.668-11.308,8.488
			c-0.438,0.333-0.783,0.787-1.166,1.18c0.711,0.286,1.115,0.28,1.414,0.101c2.079-1.26,4.148-2.533,6.197-3.848
			c1.582-1.016,3.332-1.889,4.636-3.204C89.465,64.822,92.125,61.166,96.626,59.03 M103.303,57.695
			c-0.071-0.219-0.147-0.436-0.223-0.65c-0.652,0.046-1.33-0.006-1.952,0.158c-2.613,0.669-4.536,2.32-6.05,4.481
			c-2.465,3.51-5.292,6.649-8.895,9.055c-1.956,1.311-3.845,2.729-5.717,4.157c-0.223,0.17-0.156,0.721-0.223,1.098
			c0.312-0.113,0.665-0.166,0.925-0.345c1.965-1.332,3.934-2.65,5.848-4.057c1.805-1.326,3.639-2.641,5.297-4.138
			C95.953,64.171,98.166,59.351,103.303,57.695 M52.132,72.948c1.077,1.279,2.2,2.192,2.768,3.368
			c1.019,2.091,1.733,4.342,2.529,6.538c1.712,4.737,5.449,7.889,8.839,11.313c0.719,0.729,1.535,1.355,2.306,2.032
			c0.189-0.197,0.37-0.396,0.555-0.599c-0.998-1.027-1.986-2.064-2.996-3.082c-2.79-2.821-5.57-5.664-7.076-9.424
			c-1.178-2.934-2.104-5.972-3.345-8.875c-0.391-0.93-1.372-1.693-2.259-2.272C53.255,71.822,52.346,72.775,52.132,72.948
			 M73.845,95.368c0.256-0.195,0.522-0.394,0.782-0.584c-0.665-0.804-1.233-1.714-2.015-2.378
			c-3.509-2.989-6.887-6.016-8.532-10.555c-0.896-2.476-2.112-4.845-3.332-7.18c-0.253-0.484-1.334-0.986-1.771-0.816
			c-0.53,0.212-0.779,1.127-1.153,1.735c0.27-0.044,0.534-0.097,0.804-0.143c0.749,0.766,1.733,1.414,2.217,2.322
			c1.401,2.682,2.188,5.793,3.997,8.132C67.483,89.33,70.807,92.242,73.845,95.368 M78.215,93.342
			c0.207-0.225,0.417-0.448,0.619-0.675c-0.623-0.554-1.254-1.108-1.881-1.662c-2.537-2.229-5.289-4.25-6.715-7.497
			c-0.942-2.144-1.973-4.253-3.113-6.294c-0.307-0.56-1.111-1.031-1.754-1.142c-0.357-0.062-0.858,0.696-1.296,1.081
			c2.276,0.349,2.702,2.028,3.488,3.376c1.544,2.638,2.89,5.45,4.796,7.798C73.958,90.287,76.238,91.692,78.215,93.342
			 M81.838,91.667c0.227-0.25,0.45-0.504,0.677-0.757c-0.509-0.473-0.956-1.052-1.536-1.414c-2.773-1.706-5.095-3.787-6.433-6.864
			c-0.577-1.326-1.3-2.606-2.112-3.808c-0.291-0.425-1.022-0.728-1.565-0.749c-0.307-0.012-0.635,0.667-0.623,0.65
			c1.001,1.098,1.852,1.833,2.461,2.731c1.162,1.714,1.96,3.731,3.332,5.234C77.749,88.554,79.886,90.031,81.838,91.667
			 M75.881,81.212c3.134,0.665,3.454,3.532,4.855,5.407c1.54,2.048,3.445,3.34,5.797,4.199c-0.239-0.718-0.736-1.119-1.211-1.55
			c-1.469-1.315-3.071-2.514-4.346-4.003c-1.127-1.321-1.826-3.012-2.823-4.458C77.454,79.791,76.68,79.879,75.881,81.212
			 M73.987,65.64c-0.071-0.252-0.147-0.505-0.219-0.759c-0.959,0.168-1.969,0.193-2.865,0.532c-2.769,1.054-4.985,3.389-8.183,3.5
			c-0.245,0.008-0.472,0.478-0.707,0.728c0.354,0.175,0.761,0.551,1.043,0.478c0.955-0.246,1.884-0.625,2.797-1.007
			C68.569,67.969,71.278,66.797,73.987,65.64 M87.905,89.77c0.164-0.136,0.328-0.281,0.492-0.418
			c-1.253-1.702-2.512-3.4-3.765-5.106c-0.189-0.254-0.282-0.643-0.526-0.765c-0.357-0.179-0.812-0.238-1.22-0.225
			c-0.151,0.008-0.455,0.473-0.409,0.534c0.219,0.307,0.548,0.526,0.8,0.814c0.698,0.78,1.368,1.59,2.066,2.371
			C86.188,87.917,87.05,88.84,87.905,89.77 M91.994,89.724c0.081-0.119,0.156-0.233,0.236-0.35c-1.069-1.296-2.112-2.61-3.223-3.868
			c-0.219-0.245-0.694-0.248-1.056-0.362c0.06,0.365,0.008,0.823,0.207,1.091c0.635,0.846,1.304,1.683,2.07,2.413
			C90.715,89.112,91.396,89.371,91.994,89.724 M94.098,89.566c0.143-0.139,0.291-0.278,0.434-0.415
			c-0.497-1.475-1.481-2.482-2.882-3.081c-0.168,0.157-0.333,0.321-0.497,0.477C92.133,87.555,93.118,88.562,94.098,89.566"/>
		<path clip-path="url(#SVGID_8_)" fill-rule="evenodd" clip-rule="evenodd" fill="#FFFFFF" d="M105.705,116.573l-12.668-0.064
			c0.219-0.385,0.345-0.968,0.673-1.122c1.477-0.682,3.029-1.203,4.527-1.861c2.873-1.264,5.721-2.589,8.595-3.866
			c1.203-0.537,2.407-1.076,3.648-1.513c3.702-1.302,7.4-2.613,11.137-3.801c2.095-0.663,4.282-1.026,6.386-1.672
			c0.542-0.167,0.925-0.88,1.38-1.344c-0.109-0.187-0.219-0.373-0.324-0.557c-0.992,0.092-2.032,0.033-2.961,0.307
			c-4.885,1.455-9.791,2.832-14.583,4.552c-3.5,1.258-6.803,3.069-10.24,4.516c-4.148,1.747-8.36,3.35-12.512,5.081
			c-0.35,0.145-0.48,0.824-0.711,1.253l-14.203-0.073c0.286-0.373,0.487-0.92,0.867-1.099c3.395-1.562,6.798-3.106,10.235-4.578
			c5.049-2.162,10.038-4.497,15.208-6.308c4.25-1.479,8.684-2.549,13.114-3.357c5.65-1.038,11.389-1.622,17.086-2.404l-0.093,18.04
			l-18.419-0.097c0.278-0.383,0.476-0.932,0.854-1.124c1.279-0.654,2.621-1.175,3.93-1.762c2.685-1.205,5.41-2.331,8.006-3.694
			c0.863-0.454,1.397-1.544,2.083-2.341c-0.164-0.186-0.323-0.373-0.492-0.557c-0.829,0.41-1.641,0.845-2.482,1.222
			c-2.069,0.915-4.128,1.834-6.218,2.7c-3.332,1.382-6.673,2.746-10.03,4.06C106.71,115.42,105.596,115.208,105.705,116.573"/>
		<path clip-path="url(#SVGID_8_)" fill-rule="evenodd" clip-rule="evenodd" d="M130.59,54.529c-1.797,1.29-4.009,2.254-5.309,3.935
			c-3.547,4.567-6.518,9.597-10.102,14.134c-2.545,3.227-5.709,5.97-8.616,8.906c-1.797,1.818-3.614,3.625-5.44,5.413
			c-0.286,0.28-0.677,0.458-1.018,0.682c-0.135-0.118-0.273-0.246-0.404-0.364c0.542-0.733,1.001-1.561,1.653-2.179
			c5.369-5.055,10.387-10.418,14.485-16.57c1.641-2.465,2.861-5.214,4.557-7.636c1.274-1.82,3.004-3.319,4.518-4.979
			c0.27-0.297,0.442-0.684,0.854-1.336c-4.514,0.978-7.446,3.707-9.546,7.018c-4.573,7.211-10.206,13.381-16.774,18.764
			c-1.237,1.012-2.352,2.167-3.525,3.256c-0.16-0.107-0.324-0.208-0.483-0.315c0.223-0.46,0.336-1.066,0.703-1.372
			c6.777-5.72,12.511-12.287,17.063-19.955c1.435-2.413,3.669-4.356,5.382-6.329c-1.473-0.154-3.602,0.757-5.268,2.716
			c-2.125,2.488-4.001,5.198-6.223,7.591c-2.886,3.107-5.903,6.118-9.071,8.94c-2.638,2.348-5.566,4.367-8.368,6.529
			c-0.16-0.137-0.32-0.28-0.484-0.417c0.682-0.77,1.245-1.712,2.065-2.274c6.938-4.752,12.664-10.606,17.014-17.834
			c0.943-1.565,2.394-2.823,3.812-4.449c-3.619,0.749-6.155,2.617-8.069,5.341c-3.85,5.463-8.717,9.799-14.284,13.438
			c-1.809,1.184-3.445,2.631-5.162,3.961c-0.168-0.086-0.337-0.175-0.501-0.263c0.189-0.402,0.278-0.932,0.589-1.184
			c2.974-2.381,5.94-4.771,8.999-7.049c3.294-2.453,5.629-5.705,7.913-9.022c0.32-0.465,0.682-0.909,1.043-1.348
			c0.989-1.216,2.667-2.045,1.473-4.218c-0.543-0.995,0.311-1.826,1.691-1.781c2.979,0.086,5.961,0.05,9.113,0.067
			c0.008-1.504,0.05-2.707,0.016-3.908c-0.033-1.127-0.139-2.249-0.215-3.372c1.162-0.711,2.398-1.479,3.893-2.403
			c1.484,0.953,2.68-0.438,4.025-1.308l0.767,0.004c2.423,1.039,4.851,2.074,7.274,3.109L130.59,54.529z M117.801,52.526
			c0.5-0.438,0.934-0.635,0.941-0.852c0.047-0.909-0.008-1.815-0.108-2.716c-0.017-0.111-0.552-0.166-0.842-0.244
			c-0.185,0.761-0.454,1.512-0.518,2.282C117.24,51.426,117.564,51.883,117.801,52.526"/>
		<path clip-path="url(#SVGID_8_)" fill-rule="evenodd" clip-rule="evenodd" fill="#FFFFFF" d="M67.71,116.376l-10.745-0.058
			c0.24-0.367,0.408-0.951,0.74-1.068c1.835-0.646,3.758-1.047,5.554-1.778c4.354-1.767,8.667-3.64,12.971-5.535
			c3.921-1.72,7.708-3.813,11.737-5.218c4.367-1.519,8.911-2.626,13.447-3.553c5.595-1.141,11.254-2.065,16.916-2.791
			c3.984-0.512,8.032-0.537,12.045-0.783l-0.008,1.537c-6.298,0.15-12.377,1.63-18.528,2.792
			c-6.155,1.159-12.108,2.821-17.864,5.222c-4.262,1.779-8.447,3.761-12.735,5.471c-3.992,1.592-8.085,2.919-12.108,4.438
			C68.573,115.265,68.182,115.923,67.71,116.376"/>
		<path clip-path="url(#SVGID_8_)" fill-rule="evenodd" clip-rule="evenodd" d="M130.404,89.835
			c-5.039,0.143-10.088,0.153-15.119,0.462c-4.312,0.267-8.608,0.815-12.899,1.355c-3.387,0.425-6.79,0.879-10.123,1.592
			c-3.719,0.799-7.489,1.594-11.023,2.947c-5.574,2.137-10.955,4.758-16.437,7.134c-4.75,2.055-9.45,4.284-14.321,6.001
			c-3.564,1.251-7.358,1.875-11.086,2.615c-1.253,0.253-2.369-0.315-2.537-1.809c0.139-0.144,0.211-0.295,0.307-0.308
			c3.858-0.677,7.826-0.986,11.558-2.088c4.833-1.428,9.495-3.456,14.211-5.295c3.025-1.183,5.979-2.533,8.999-3.732
			c3.488-1.38,6.967-2.791,10.526-3.96c2.79-0.917,5.684-1.536,8.558-2.188c4.098-0.936,8.204-1.851,12.335-2.636
			c2.251-0.426,4.557-0.612,6.837-0.833c5.642-0.549,11.283-1.038,16.913-1.605c1.123-0.114,2.213-0.476,3.319-0.721L130.404,89.835
			z"/>
		<path clip-path="url(#SVGID_8_)" fill-rule="evenodd" clip-rule="evenodd" d="M130.389,92.906
			c-4.527,0.137-9.07,0.137-13.594,0.448c-3.672,0.25-7.325,0.832-10.972,1.347c-3.054,0.429-6.108,0.89-9.129,1.5
			c-2.524,0.512-5.011,1.199-7.485,1.915c-2.717,0.776-5.452,1.539-8.085,2.554c-3.303,1.272-6.525,2.747-9.744,4.208
			c-2.205,0.998-4.288,2.292-6.53,3.172c-4.552,1.778-9.155,3.442-13.791,4.997c-2.146,0.719-4.397,1.172-6.631,1.545
			c-1.018,0.175-2.129-0.073-3.172-0.251c-0.328-0.061-0.581-0.515-0.871-0.791c0.294-0.259,0.551-0.692,0.879-0.758
			c2.802-0.534,5.676-0.789,8.415-1.545c4.393-1.218,8.729-2.651,13.025-4.19c2.928-1.048,5.743-2.438,8.616-3.656
			c3.27-1.392,6.521-2.84,9.841-4.113c2.112-0.812,4.312-1.409,6.496-2.006c3.466-0.946,6.92-1.962,10.438-2.669
			c4.337-0.874,8.721-1.574,13.118-2.15c4.959-0.649,9.961-1.075,14.939-1.626c1.427-0.156,2.835-0.406,4.253-0.612L130.389,92.906z
			"/>
		<path clip-path="url(#SVGID_8_)" fill-rule="evenodd" clip-rule="evenodd" d="M130.375,95.593
			c-4.013,0.246-8.061,0.271-12.045,0.783c-5.662,0.726-11.321,1.65-16.916,2.791c-4.536,0.927-9.08,2.037-13.447,3.553
			c-4.03,1.405-7.816,3.498-11.737,5.223c-4.304,1.89-8.616,3.763-12.971,5.53c-1.796,0.73-3.719,1.132-5.554,1.778
			c-0.332,0.117-0.5,0.702-0.74,1.068l-11.515-0.059c0.446-0.401,0.837-1.068,1.342-1.163c3.672-0.69,7.442-0.972,11.031-1.946
			c4.203-1.14,8.284-2.773,12.361-4.337c2.911-1.118,5.726-2.48,8.595-3.729c2.789-1.216,5.574-2.455,8.389-3.62
			c0.925-0.382,1.939-0.549,2.911-0.835c2.962-0.872,5.911-1.796,8.89-2.604c1.031-0.276,2.141-0.226,3.202-0.415
			c3.85-0.679,7.673-1.495,11.536-2.069c4.258-0.637,8.549-1.037,12.818-1.583c1.297-0.162,2.576-0.442,3.863-0.671L130.375,95.593z
			"/>
		<path clip-path="url(#SVGID_8_)" fill-rule="evenodd" clip-rule="evenodd" d="M67.71,116.376c0.472-0.453,0.863-1.112,1.422-1.324
			c4.022-1.519,8.116-2.846,12.108-4.438c4.288-1.71,8.473-3.692,12.735-5.471c5.756-2.4,11.709-4.062,17.864-5.222
			c6.151-1.161,12.23-2.642,18.528-2.792l-0.008,1.532c-5.697,0.782-11.436,1.367-17.086,2.404
			c-4.43,0.808-8.864,1.878-13.114,3.357c-5.17,1.811-10.16,4.146-15.208,6.308c-3.437,1.471-6.84,3.016-10.235,4.578
			c-0.379,0.179-0.581,0.726-0.867,1.099L67.71,116.376z"/>
		<path clip-path="url(#SVGID_8_)" fill-rule="evenodd" clip-rule="evenodd" d="M88.052,116.48c0.231-0.429,0.361-1.108,0.711-1.253
			c4.152-1.731,8.363-3.334,12.512-5.081c3.437-1.447,6.74-3.258,10.24-4.516c4.792-1.72,9.698-3.097,14.583-4.552
			c0.929-0.273,1.969-0.215,2.961-0.307c0.105,0.184,0.215,0.37,0.324,0.557c-0.455,0.464-0.838,1.177-1.38,1.344
			c-2.104,0.646-4.291,1.01-6.386,1.672c-3.736,1.188-7.435,2.499-11.137,3.801c-1.241,0.437-2.445,0.976-3.648,1.513
			c-2.874,1.277-5.722,2.602-8.595,3.866c-1.498,0.659-3.051,1.18-4.527,1.861c-0.328,0.154-0.455,0.737-0.673,1.122L88.052,116.48z
			"/>
		<path clip-path="url(#SVGID_8_)" fill-rule="evenodd" clip-rule="evenodd" d="M130.557,61.05
			c-0.889,1.161-1.957,2.219-2.634,3.491c-3.454,6.448-8.019,12.01-13.231,17.094c-1.611,1.571-3.076,3.294-4.62,4.937
			c-0.155,0.161-0.412,0.231-1.005,0.11c0.265-0.542,0.412-1.193,0.807-1.604c6.669-6.819,12.104-14.491,16.324-23.053
			c0.913-1.849,2.229-3.506,3.411-5.21c0.164-0.233,0.641-0.252,0.968-0.368L130.557,61.05z"/>
		<path clip-path="url(#SVGID_8_)" fill-rule="evenodd" clip-rule="evenodd" d="M31.104,70.512c0.315,1.178,0.774,2.333,0.917,3.53
			c1.102,9.143,5.17,16.997,10.417,24.354c1.203,1.686,2.469,3.325,3.673,5.009c0.315,0.444,0.5,0.982,0.749,1.479
			c-0.164,0.098-0.324,0.201-0.484,0.303c-0.412-0.486-0.858-0.948-1.224-1.463c-3.441-4.802-7.098-9.475-10.215-14.479
			c-1.637-2.624-2.335-5.835-3.467-8.778c-0.096-0.263-0.273-0.499-0.416-0.745L31.104,70.512z"/>
		<path clip-path="url(#SVGID_8_)" fill-rule="evenodd" clip-rule="evenodd" d="M105.705,116.573
			c-0.109-1.364,1.005-1.152,1.792-1.464c3.357-1.314,6.698-2.677,10.03-4.06c2.09-0.866,4.148-1.785,6.218-2.7
			c0.842-0.377,1.653-0.812,2.482-1.222c0.169,0.185,0.328,0.372,0.492,0.557c-0.686,0.796-1.22,1.887-2.083,2.341
			c-2.596,1.363-5.321,2.489-8.006,3.694c-1.309,0.587-2.65,1.108-3.93,1.762c-0.378,0.192-0.576,0.741-0.854,1.124L105.705,116.573
			z"/>
		<path clip-path="url(#SVGID_8_)" fill-rule="evenodd" clip-rule="evenodd" d="M130.506,70.646
			c-0.357,0.284-0.791,0.509-1.068,0.856c-3.752,4.71-7.484,9.437-11.221,14.157c-0.176-0.112-0.344-0.223-0.518-0.339
			c0.189-0.38,0.358-0.783,0.585-1.152c3.686-6.026,7.376-12.051,11.099-18.055c0.231-0.373,0.762-0.563,1.148-0.839L130.506,70.646
			z"/>
		<path clip-path="url(#SVGID_8_)" fill-rule="evenodd" clip-rule="evenodd" d="M31.003,89.705c1.86,3.15,3.669,6.333,5.583,9.453
			c1.148,1.873,2.469,3.648,3.681,5.487c0.312,0.468,0.497,1.021,0.736,1.537c-0.194,0.116-0.387,0.239-0.581,0.351
			c-0.9-1.253-1.813-2.497-2.693-3.765c-2.011-2.898-4.001-5.816-6.021-8.708c-0.16-0.233-0.483-0.352-0.728-0.52L31.003,89.705z"/>
		<path clip-path="url(#SVGID_8_)" fill-rule="evenodd" clip-rule="evenodd" d="M130.46,79.473c-1.456,1.487-2.937,2.958-4.372,4.47
			c-0.584,0.621-1.076,1.334-1.611,2.003c-0.146-0.065-0.289-0.128-0.438-0.195c0.168-0.447,0.273-0.928,0.514-1.332
			c1.675-2.751,3.361-5.495,5.082-8.214c0.164-0.265,0.56-0.38,0.846-0.568L130.46,79.473z"/>
		<path clip-path="url(#SVGID_8_)" fill-rule="evenodd" clip-rule="evenodd" fill="#FFFFFF" d="M130.633,46.468
			c-2.424-1.035-4.852-2.072-7.274-3.109l7.291,0.038L130.633,46.468z"/>
		<path clip-path="url(#SVGID_8_)" fill-rule="evenodd" clip-rule="evenodd" d="M32.429,69.473c0.733-0.502,1.498-1.453,2.188-1.407
			c0.892,0.059,2.213,0.736,2.495,1.477c1.11,2.886,2.167,5.852,2.726,8.884c1.321,7.153,4.977,13.075,9.239,18.732
			c1.018,1.354,2.238,2.556,3.272,3.904c0.404,0.52,0.56,1.235,0.615,1.967c-4.859-5.307-10.005-10.394-12.647-17.214
			c-1.3-3.367-2.087-6.926-3.109-10.396c-0.186-0.614-0.35-1.23-0.564-1.83c-0.673-1.885-1.358-3.772-4.047-3.53
			C32.543,69.862,32.489,69.668,32.429,69.473"/>
		<path clip-path="url(#SVGID_8_)" fill-rule="evenodd" clip-rule="evenodd" d="M80.862,64.321c2.175-1.344,4.085-2.611,6.088-3.715
			c0.509-0.282,1.312-0.039,1.986-0.034c0.126,0.176,0.256,0.349,0.383,0.523c-0.463,0.292-0.892,0.745-1.393,0.844
			c-3.273,0.65-4.884,3.584-7.392,5.265c-2.629,1.763-5.368,3.373-8.094,4.988c-1.17,0.694-2.432,1.229-3.829,1.515
			c3.686-3.307,8.923-4.33,12.024-8.404c-0.101-0.179-0.202-0.357-0.303-0.539c-1.401,0.791-2.827,1.543-4.198,2.388
			c-1.427,0.881-2.706,2.095-4.228,2.722c-2.137,0.881-4.052,2.646-6.803,1.742c1.544-0.642,3.193-1.108,4.603-1.964
			c2.583-1.563,5.032-3.352,7.522-5.066C78.628,63.625,79.575,63.57,80.862,64.321"/>
		<path clip-path="url(#SVGID_8_)" fill-rule="evenodd" clip-rule="evenodd" d="M58.913,100.038
			c-1.073-1.056-2.263-2.021-3.193-3.191c-2.848-3.582-5.898-7.066-8.284-10.953c-1.624-2.642-2.263-5.894-3.328-8.879
			c-0.366-1.018-0.644-2.067-1.047-3.071c-0.896-2.238-1.039-2.327-3.904-2.877c0.707-0.81,1.157-1.729,1.834-1.96
			c0.53-0.179,1.721,0.302,1.977,0.812c1.027,2.011,2.087,4.079,2.604,6.258c1.607,6.807,4.548,12.846,9.344,17.975
			c1.417,1.508,2.738,3.109,4.068,4.697c0.193,0.236,0.172,0.643,0.252,0.976C59.128,99.893,59.023,99.964,58.913,100.038"/>
		<path clip-path="url(#SVGID_8_)" fill-rule="evenodd" clip-rule="evenodd" d="M62.607,97.229
			c-0.988-1.062-1.999-2.108-2.966-3.194c-3.437-3.852-6.917-7.665-8.414-12.808c-0.719-2.491-1.552-4.96-2.461-7.388
			c-0.493-1.334-1.216-2.606-3.197-1.86c-0.068-0.159-0.135-0.33-0.194-0.494c0.471-0.522,0.942-1.466,1.414-1.468
			c0.803,0.004,2.061,0.389,2.331,0.98c1.056,2.285,1.994,4.662,2.609,7.1c1.396,5.542,4.291,10.2,8.002,14.424
			c0.955,1.082,1.973,2.112,2.907,3.214c0.261,0.307,0.315,0.793,0.467,1.191C62.936,97.032,62.771,97.129,62.607,97.229"/>
		<path clip-path="url(#SVGID_8_)" fill-rule="evenodd" clip-rule="evenodd" d="M96.626,59.03
			c-4.501,2.136-7.161,5.792-10.299,8.955c-1.304,1.313-3.054,2.184-4.636,3.202c-2.049,1.314-4.119,2.587-6.197,3.848
			c-0.299,0.179-0.703,0.185-1.414-0.101c0.383-0.394,0.728-0.85,1.162-1.18c3.778-2.82,7.665-5.511,11.312-8.486
			c1.818-1.479,3.067-3.66,4.868-5.179C92.667,59.043,94.304,58.071,96.626,59.03"/>
		<path clip-path="url(#SVGID_8_)" fill-rule="evenodd" clip-rule="evenodd" d="M103.303,57.695
			c-5.137,1.656-7.35,6.477-10.989,9.759c-1.658,1.497-3.492,2.812-5.297,4.138c-1.915,1.407-3.883,2.722-5.848,4.057
			c-0.26,0.179-0.614,0.232-0.925,0.345c0.067-0.377,0-0.928,0.223-1.098c1.873-1.428,3.761-2.846,5.717-4.157
			c3.602-2.409,6.429-5.545,8.895-9.058c1.514-2.158,3.437-3.81,6.05-4.479c0.622-0.164,1.3-0.112,1.952-0.158
			C103.155,57.259,103.231,57.476,103.303,57.695"/>
		<path clip-path="url(#SVGID_8_)" fill-rule="evenodd" clip-rule="evenodd" d="M52.132,72.944c0.214-0.168,1.123-1.122,1.321-0.998
			c0.888,0.579,1.868,1.342,2.259,2.272c1.241,2.903,2.167,5.941,3.345,8.875c1.506,3.761,4.287,6.604,7.076,9.422
			c1.01,1.02,1.998,2.057,2.996,3.084c-0.185,0.202-0.366,0.401-0.555,0.599c-0.771-0.677-1.586-1.303-2.306-2.032
			c-3.391-3.42-7.127-6.571-8.839-11.313c-0.795-2.2-1.51-4.447-2.529-6.538C54.332,75.138,53.208,74.227,52.132,72.944"/>
		<path clip-path="url(#SVGID_8_)" fill-rule="evenodd" clip-rule="evenodd" d="M73.845,95.368
			c-3.038-3.125-6.361-6.038-9.003-9.466c-1.809-2.339-2.596-5.45-3.997-8.132c-0.484-0.909-1.468-1.557-2.217-2.327
			c-0.27,0.053-0.534,0.103-0.804,0.152c0.375-0.608,0.623-1.527,1.153-1.74c0.437-0.172,1.518,0.332,1.771,0.816
			c1.219,2.335,2.436,4.708,3.332,7.18c1.646,4.539,5.023,7.568,8.532,10.555c0.782,0.664,1.35,1.574,2.015,2.373
			C74.367,94.979,74.101,95.172,73.845,95.368"/>
		<path clip-path="url(#SVGID_8_)" fill-rule="evenodd" clip-rule="evenodd" d="M78.215,93.342
			c-1.977-1.649-4.257-3.055-5.856-5.015c-1.906-2.348-3.252-5.16-4.796-7.798c-0.786-1.344-1.211-3.027-3.488-3.376
			c0.438-0.385,0.939-1.143,1.296-1.081c0.643,0.111,1.447,0.583,1.754,1.142c1.14,2.045,2.171,4.15,3.113,6.294
			c1.426,3.248,4.178,5.268,6.715,7.497c0.627,0.553,1.258,1.108,1.881,1.662C78.628,92.894,78.422,93.117,78.215,93.342"/>
		<path clip-path="url(#SVGID_8_)" fill-rule="evenodd" clip-rule="evenodd" d="M81.842,91.667
			c-1.952-1.641-4.093-3.113-5.802-4.976c-1.372-1.505-2.17-3.52-3.332-5.234c-0.61-0.898-1.46-1.637-2.461-2.731
			c-0.012,0.017,0.316-0.662,0.623-0.654c0.543,0.025,1.275,0.328,1.565,0.753c0.812,1.202,1.535,2.482,2.112,3.808
			c1.337,3.077,3.66,5.16,6.433,6.864c0.58,0.362,1.026,0.94,1.536,1.414C82.288,91.163,82.065,91.417,81.842,91.667"/>
		<path clip-path="url(#SVGID_8_)" fill-rule="evenodd" clip-rule="evenodd" d="M75.881,81.212c0.799-1.333,1.573-1.422,2.272-0.406
			c0.997,1.445,1.695,3.136,2.823,4.458c1.271,1.489,2.877,2.688,4.346,4.003c0.475,0.432,0.972,0.833,1.211,1.55
			c-2.352-0.859-4.257-2.15-5.797-4.199C79.335,84.744,79.015,81.877,75.881,81.212"/>
		<path clip-path="url(#SVGID_8_)" fill-rule="evenodd" clip-rule="evenodd" d="M73.987,65.64c-2.709,1.157-5.418,2.329-8.132,3.471
			c-0.913,0.383-1.843,0.762-2.797,1.007c-0.282,0.078-0.69-0.302-1.043-0.473c0.235-0.254,0.462-0.724,0.707-0.732
			c3.197-0.111,5.414-2.446,8.183-3.498c0.896-0.341,1.906-0.366,2.865-0.534C73.84,65.135,73.916,65.388,73.987,65.64"/>
		<path clip-path="url(#SVGID_8_)" fill-rule="evenodd" clip-rule="evenodd" d="M87.905,89.774c-0.854-0.935-1.717-1.858-2.562-2.8
			c-0.698-0.781-1.368-1.591-2.066-2.375c-0.252-0.284-0.581-0.503-0.8-0.807c-0.046-0.059,0.257-0.53,0.409-0.537
			c0.408-0.013,0.863,0.042,1.22,0.225c0.244,0.122,0.336,0.511,0.526,0.765c1.253,1.706,2.512,3.404,3.765,5.106
			C88.233,89.488,88.069,89.633,87.905,89.774"/>
		<path clip-path="url(#SVGID_8_)" fill-rule="evenodd" clip-rule="evenodd" d="M91.994,89.724
			c-0.597-0.354-1.279-0.612-1.767-1.076c-0.766-0.729-1.435-1.567-2.07-2.413c-0.198-0.269-0.143-0.726-0.207-1.091
			c0.362,0.114,0.837,0.117,1.056,0.359c1.111,1.26,2.154,2.574,3.223,3.871C92.149,89.491,92.074,89.605,91.994,89.724"/>
		<path clip-path="url(#SVGID_8_)" fill-rule="evenodd" clip-rule="evenodd" d="M94.098,89.566c-0.98-1.004-1.965-2.011-2.945-3.019
			c0.164-0.156,0.328-0.32,0.497-0.477c1.401,0.599,2.386,1.606,2.882,3.081C94.388,89.288,94.241,89.427,94.098,89.566"/>
		<path clip-path="url(#SVGID_8_)" fill-rule="evenodd" clip-rule="evenodd" fill="#FFFFFF" d="M117.801,52.526
			c-0.236-0.644-0.561-1.1-0.526-1.529c0.063-0.77,0.333-1.521,0.518-2.282c0.29,0.078,0.825,0.132,0.842,0.244
			c0.101,0.9,0.155,1.807,0.108,2.716C118.734,51.891,118.301,52.089,117.801,52.526"/>
	</g>
</g>
<g>
	<defs>
		
			<rect id="SVGID_9_" x="161.248" y="139.459" transform="matrix(-1 -0.0052 0.0052 -1 415.8221 362.939)" width="94.273" height="82.935"/>
	</defs>
	<clipPath id="SVGID_10_">
		<use xlink:href="#SVGID_9_"  overflow="visible"/>
	</clipPath>
	<g clip-path="url(#SVGID_10_)">
		<defs>
			
				<rect id="SVGID_11_" x="76.907" y="123.933" transform="matrix(-1 -0.0052 0.0052 -1 329.5304 347.3844)" width="176.622" height="98.659"/>
		</defs>
		<clipPath id="SVGID_12_">
			<use xlink:href="#SVGID_11_"  overflow="visible"/>
		</clipPath>
		<g clip-path="url(#SVGID_12_)">
			<defs>
				
					<rect id="SVGID_13_" x="76.907" y="123.933" transform="matrix(-1 -0.0052 0.0052 -1 329.5304 347.3844)" width="176.622" height="98.659"/>
			</defs>
			<clipPath id="SVGID_14_">
				<use xlink:href="#SVGID_13_"  overflow="visible"/>
			</clipPath>
			<path clip-path="url(#SVGID_14_)" fill-rule="evenodd" clip-rule="evenodd" d="M238.613,188.403
				c0.244-0.691,0.492-1.387,0.768-2.15c0.701,0.359,0.629,1.246,1.219,1.631c0.23,0.15,0.457,0.348,0.709,0.185
				c0.254-0.161,0.242-0.44,0.145-0.722c-0.244-0.75-0.707-1.318-1.365-1.72c-0.465-0.272-0.807-0.593-0.596-1.161
				c0.164-0.419,0.32-1.252,0.74-1.027c0.631,0.35,1.355,0.871,1.609,1.662c0.502,1.614,0.639,1.742,1.648,0.404
				c0.988-1.314,2.389-1.075,3.684-1.555c-1.158-0.393-2.33-0.625-3.418-0.051c-1.465,0.774-1.893-0.494-2.514-1.213
				c-0.43-0.506,0.205-0.579,0.543-0.605c1.23-0.096,2.432-0.468,3.715-0.196c-0.652,0.175-1.277,0.343-1.904,0.507
				c-0.373,0.105-0.854,0.223-0.701,0.692c0.211,0.665,0.885,0.405,1.217,0.226c1.119-0.594,2.234-0.939,3.523-0.796
				c1.883,0.206,3.752,2.065,3.99,3.921c0.246,1.916,0.408,3.848,1.096,5.712c0.314,0.854,0.117,1.893,0.213,2.845
				c0.029,0.23,0.291,0.43,0.445,0.645l-0.049,9.018c-0.992,1.248-1.143,2.836-1.621,4.279c-0.318,0.99-0.629,1.691-1.824,1.524
				c-0.455-0.059-0.914,0.105-1.146,0.468c-0.848,1.293-2.131,0.744-3.24,0.781c-0.758,0.039-0.512-0.576-0.258-0.881
				c0.471-0.58,0.998-1.127,1.816-1.241c0.686-0.101,0.926-0.599,0.711-1.172c-0.27-0.735-0.84-0.452-1.34-0.197
				c-1.08,0.55-1.73,1.575-2.504,2.437c-1.02,1.133-3.117,1.27-4.002,0.037c-0.518-0.721-1.068-1.445-1.334-2.425
				c1.396,0.106,2.219,1.085,3.203,1.723c0.584,0.376,0.764,0.502,1.227-0.333c0.732-1.322,1.881-2.424,2.898-3.576
				c0.361-0.406,0.918-0.805,0.467-1.309c-0.395-0.434-0.986,0.065-1.258,0.35c-0.857,0.932-2.141,1.467-2.625,2.73
				c-0.291,0.76-0.646,0.744-1.328,0.406c-1.051-0.527-1.502-1.93-3.037-1.841c-0.355,0.025-0.428-1.472-0.139-2.051
				c0.312-0.646,0.996,0.009,1.471,0.226c0.645,0.298,0.637,1.085,1.049,1.571c0.303,0.37,0.609,0.79,1.17,0.716
				c0.352-0.039,0.592-0.293,0.617-0.645c0.047-0.546,0-1.268-0.566-1.369c-1.592-0.295-1.92-2.522-3.801-2.34
				c-0.383,0.037-0.273-0.613-0.346-0.964c-0.139-0.657,0.123-1.396-0.469-2.097c-0.768,1.078-0.334,2.186-0.299,3.223
				c0.033,0.898,0.369,1.795-0.479,2.543c-0.201,0.186-0.344,0.619-0.283,0.896c0.525,2.641-1.369,4.701-1.654,7.16
				c-0.205,1.748-2.17,3.082-3.883,2.883c-0.418-0.049-0.83,0.066-1.043,0.332c-1.17,1.428-2.688,0.961-4.184,0.957
				c-0.012-0.711,0.434-0.979,0.91-1.197c0.984-0.463,0.592-1.247,0.234-1.746c-0.461-0.652-0.906-0.104-1.25,0.326
				c-0.652,0.822-1.791,1.072-2.254,2.188c-0.213,0.496-0.865,0.173-1.27-0.355c-0.734-0.969-1.898-1.502-2.732-2.415
				c-0.469-0.518-1.299-0.933-1.988-0.976c-1.943-0.127-1.486-1.336-1.322-2.745c0.885,0.909,1.607,1.7,2.396,2.427
				c0.396,0.377,0.932,1.006,1.475,0.43c0.402-0.436-0.01-0.997-0.424-1.387c-1.279-1.205-2.318-2.684-4.078-3.348
				c-0.488-0.184-0.576-0.88-0.617-1.414c-0.08-1.16-0.133-2.329-0.211-3.729c1.146,1.172,1.418,2.621,2.344,3.656
				c0.477,0.532,0.867,1.347,1.598,0.852c0.861-0.59,0.068-1.152-0.348-1.701c-0.666-0.896-1.238-1.861-1.865-2.785
				c-0.266-0.395-0.512-1.016-0.873-1.102c-2.609-0.645-1.475-2.512-1.395-4.029c0.021-0.473,0.072-0.941,0.121-1.572
				c1.086,0.682,1.125,1.783,1.529,2.646c0.246,0.527,0.346,1.127,0.74,1.592c0.34,0.408,0.529,1.291,1.275,0.711
				c0.555-0.428,0.883-1.148,0.195-1.797c-1.332-1.255-2.109-2.935-3.285-4.307c-0.529-0.639-0.803-1.324-0.461-2.059
				c0.4-0.863,0.402-1.746,0.289-2.809c1.598,0.579,1.793,1.904,2.193,3.063c0.162,0.443,0.107,1.017,0.734,1.103
				c0.361,0.047,0.598-0.242,0.725-0.538c0.197-0.435,0.377-0.843-0.025-1.327c-1.121-1.328-1.344-3.269-2.996-4.269
				c-0.514-0.306-0.207-0.982-0.096-1.499c0.195-0.925,0.088-1.909,0.539-2.932c0.984,0.803,1.809,1.492,1.977,2.72
				c0.062,0.437,0.199,1.091,0.836,0.957c0.639-0.139,0.732-0.786,0.615-1.319c-0.232-1.047-0.6-2.054-1.545-2.711
				c-0.664-0.467-1.586-0.75-1.182-2.039c-1.734,2.332-2.461,4.873-2.654,7.439c-0.572,7.16-1.174,14.363,1.035,21.395
				c0.539,1.734,0.773,3.56,1.568,5.213c0.135,0.283,0.354,0.689-0.004,0.835c-0.645,0.272-1.418,0.337-2.037,0.04
				c-0.643-0.303,0.051-0.558,0.232-0.8c0.189-0.263,0.129-0.493-0.043-0.719c-0.201-0.261-0.453-0.235-0.713-0.095
				c-0.568,0.299-1.357,0.461-1.658,0.932c-0.547,0.873-1.285,0.676-2.059,0.82c-1.732,0.33-2.166-1.021-2.912-2.01l-0.037,0.037
				c0.9-0.564,1.305-1.148,0.137-1.872c-0.316-0.191-0.518-0.569-0.84-0.728c-4.609-2.252-4.809-6.417-4.678-10.723
				c0.014-0.416,0.055-0.832,0.092-1.402c1.02,0.604,0.891,1.84,1.664,2.391c0.336,0.238,0.434,1.059,1.037,0.656
				c0.572-0.382,0.531-0.977,0.098-1.537c-0.838-1.096-1.473-2.438-2.52-3.258c-1.041-0.816-1.164-1.675-1.098-2.763
				c0.055-0.91,0.121-1.819,0.191-2.841c1.264,0.451,1.061,1.686,1.533,2.479c0.328,0.543,0.373,1.283,1.16,1.387
				c0.41,0.047,0.732-0.223,0.918-0.565c0.416-0.772-0.025-1.294-0.547-1.825c-1.002-1.016-1.461-2.457-2.693-3.312
				c-0.555-0.39-0.088-0.993-0.012-1.485c0.045-0.371,0.184-0.724,0.281-1.083c0.148-0.522-0.141-1.399,0.648-1.429
				c0.77-0.025,1.102,0.725,1.262,1.449c0.053,0.264,0.07,0.562,0.219,0.768c0.299,0.457,0.15,1.604,1.006,1.222
				c0.66-0.294,1-1.249,0.586-2.12c-0.473-0.992-1.432-1.579-2.203-2.271c-0.656-0.584-1.281-0.943-0.676-1.842
				c0.492-0.743,0.553-2.108,1.855-1.857c0.988,0.197,1.33,1.121,1.33,2.121c-0.006,0.131,0.133,0.262,0.264,0.488
				c0.688-0.563,1.188-1.074,0.883-2.031c-0.365-1.166-1.08-1.801-2.326-1.673c-0.117-0.729,0.467-0.874,0.758-1.22
				c0.582-0.705,1.246-0.419,1.873-0.08c0.621,0.332,0.592,0.875,0.268,1.375c-0.383,0.602-0.078,1.131,0.303,1.423
				c0.535,0.407,0.695-0.326,0.918-0.587c1.34-1.586,3.098-1.948,5.029-1.79c0.562,0.048,1.08,0.101,1.426-0.436
				c0.127-0.196,0.09-0.452-0.152-0.524c-0.477-0.137-0.777-0.584-1.461-0.33c-1.182,0.441-2.502,0.402-3.65,1.055
				c-0.23,0.132-0.881,0.376-0.922-0.135c-0.047-0.53-0.566-1.207,0.047-1.635c0.656-0.467,0.68-0.002,0.551,0.523
				c-0.033,0.131,0.061,0.287,0.15,0.669c1.141-1.562,2.668-1.702,4.191-1.344c1.535,0.354,2.688-1.136,4.229-0.648
				c0.521,0.167,1.152-0.073,1.652,0.386c0.236,0.219,0.598,0.401,0.881,0.141c1.625-1.58,3.832-0.789,5.711-1.361
				c0.922-0.281,2.158-0.402,2.908,0.709c0.025,0.043,0.092,0.093,0.125,0.086c3.227-0.232,4.123,2.477,5.625,4.433
				c0.068,0.093,0.268,0.095,0.451,0.149c0.215-0.932-0.43-1.396-0.896-1.943c-0.357-0.428-0.678-0.943-0.277-1.441
				c0.4-0.49,1.035-0.324,1.479-0.049c1.416,0.867,2.906,1.857,3.469,3.375c0.262,0.689-0.201,1.988-0.518,2.945
				c-0.568,1.714-1.113,3.489-1.525,5.184c-0.568,2.293-0.094,4.837,0.158,7.281c0.809-0.852,0.672-1.878,0.754-2.825
				c0.125-1.495,0.146-3,0.18-4.501c0.018-0.779,0.139-1.488,0.822-1.976c-0.16,1.865,1.252,2.903,2.086,4.53
				C241.346,191.019,240.775,189.96,238.613,188.403 M226.24,197.194c0.057,4.096,0.381,8.073,2.389,11.721
				c0.451,0.82,1.023,1.475,1.941,1.456c0.846-0.017,1.365-0.651,1.766-1.437c2.428-4.775,2.738-9.861,2.176-15.049
				c-0.287-2.573-1.156-4.988-2.766-7.087c-1.223-1.595-2.682-1.506-3.6,0.275C226.514,190.274,226.477,193.775,226.24,197.194
				 M251.58,199.86c0.234-2.986-0.227-7.321-1.145-9.502c-0.307-0.73-0.551-1.904-1.488-1.828c-0.895,0.066-1.129,1.201-1.297,2
				c-0.582,2.685-0.744,5.418-0.602,8.156c0.125,2.352,0.404,4.694,1.473,6.863c0.254,0.514,0.521,1.028,1.102,1.025
				c0.684-0.003,0.891-0.595,1.129-1.18C251.48,203.608,251.441,201.724,251.58,199.86 M218.09,198.097
				c0.383-0.168,0.656-0.49,0.672-0.844c0.123-2.484,2.082-3.272,3.863-4.135c0.863-0.42,1.424-0.898,0.99-1.787
				c-0.445-0.901-1.229-0.35-1.803-0.046c-1.635,0.864-2.627,2.403-3.797,3.761C217.098,196.121,216.992,197.106,218.09,198.097
				 M223.459,187.253c0.113,0.017,0.328,0.103,0.529,0.078c0.969-0.105,0.67-0.938,0.805-1.498c0.102-0.42-0.076-0.793-0.605-0.618
				c-2.428,0.786-4.959,1.435-6.066,4.155c-0.287,0.697-0.395,1.496,0.365,1.825c0.793,0.349,0.846-0.562,1.121-1.026
				C220.477,188.7,221.193,187.043,223.459,187.253 M218.117,204.839c0.639-0.098,0.861-0.512,0.934-1.015
				c0.324-2.155,1.826-3.438,3.496-4.501c0.719-0.461,1.164-0.955,0.707-1.622c-0.424-0.625-1.031-0.024-1.537,0.22
				c-2.213,1.082-2.865,3.473-4.301,5.209C216.926,203.726,217.178,204.586,218.117,204.839 M209.812,200.985
				c0-0.852-0.102-1.271-0.371-1.359c-0.484-0.155-0.748,0.266-1.115,0.449c-2.18,1.076-2.717,3.333-3.752,5.203
				c-0.326,0.582-0.08,1.361,0.758,1.464c0.773,0.097,0.996-0.517,0.986-1.161c-0.016-1.877,0.928-2.998,2.678-3.508
				C209.574,201.896,209.975,201.637,209.812,200.985 M219.484,211.294c0.992-2.23,1.693-4.465,4.113-5.393
				c0.525-0.203,0.619-1.096,0.324-1.586c-0.402-0.676-0.963-0.086-1.371,0.148c-1.67,0.938-2.869,2.322-3.594,4.092
				C218.607,209.42,218.529,210.318,219.484,211.294 M210.986,182.619c-2.188,0.565-4.246,1.681-5.736,3.651
				c-0.379,0.494-0.285,1.203,0.346,1.521c0.699,0.354,1.023-0.244,1.086-0.766c0.076-0.695,0.598-0.993,1.006-1.35
				c0.975-0.855,2.176-1.221,3.473-1.303c0.725-0.049,1.029-0.482,0.93-1.199C212.023,182.603,211.639,182.524,210.986,182.619
				 M225.951,181.267c0.033-0.652-0.484-0.561-0.889-0.615c-1.977-0.267-5.221,1.644-6.012,3.549
				c-0.271,0.625-0.148,1.24,0.463,1.521c0.674,0.312,0.98-0.27,1.156-0.776c0.713-2.056,2.039-3.191,4.291-3.075
				C225.395,181.889,225.848,181.87,225.951,181.267 M209.98,187.589c-1.664,0.072-5.482,3.221-5.895,4.929
				c-0.109,0.456-0.135,0.901,0.352,1.085c0.684,0.254,1.057-0.289,1.168-0.785c0.508-2.26,2.01-3.25,4.189-3.439
				c0.453-0.041,0.846-0.197,0.969-0.689C210.902,188.121,211.16,187.45,209.98,187.589 M209.023,193.782
				c-0.105,0.046-0.273,0.078-0.406,0.158c-1.688,1.064-3.012,2.492-4.098,4.143c-0.316,0.479-0.723,0.951-0.662,1.6
				c0.045,0.411,0.195,0.746,0.645,0.793c0.365,0.039,0.619-0.202,0.674-0.543c0.352-2.381,2.082-3.584,3.975-4.617
				c0.545-0.294,0.607-0.697,0.529-1.192C209.631,193.784,209.352,193.747,209.023,193.782 M206.281,211.161
				c-0.025,0.579-0.035,1.128,0.627,1.172c0.656,0.036,0.795-0.509,0.75-1.005c-0.082-0.896,0.373-1.47,0.904-2.125
				c0.467-0.573,1.033-0.905,1.641-1.228c0.568-0.314,0.744-0.799,0.506-1.354c-0.334-0.76-0.812-0.208-1.191-0.022
				C207.607,207.555,206.609,209.169,206.281,211.161 M225.246,210.683c-0.201-0.6-0.725-1.068-1.469-0.504
				c-1.402,1.068-2.383,2.547-3.291,4.027c-0.275,0.453,0.016,1.109,0.584,1.327c0.643,0.239,0.809-0.273,0.953-0.766
				c0.434-1.419,1.092-2.674,2.639-3.177C224.986,211.486,225.219,211.284,225.246,210.683 M241.604,194.866
				c0.119-0.076,0.305-0.131,0.389-0.247c0.807-1.292,2.031-2.076,3.307-2.848c0.461-0.28,0.682-0.924,0.416-1.431
				c-0.277-0.531-0.879-0.33-1.279-0.113c-1.543,0.841-2.557,2.164-3.23,3.762C241.057,194.327,241.057,194.739,241.604,194.866
				 M244.945,199.619c-1.785,0.058-3.428,1.483-3.617,3.183c-0.047,0.409-0.104,0.918,0.391,1.088
				c0.42,0.146,0.467-0.33,0.623-0.574c0.701-1.094,1.492-2.041,2.902-2.223c0.498-0.069,0.699-0.422,0.631-0.938
				C245.791,199.577,245.42,199.513,244.945,199.619 M208.916,216.4c0.117-0.056,0.246-0.068,0.312-0.138
				c0.957-1.241,1.92-2.472,3.045-3.577c0.307-0.3,0.023-0.823-0.186-1.193c-0.131-0.22-0.41-0.265-0.527-0.056
				c-0.846,1.484-2.398,2.359-3.271,3.799C207.926,215.831,208.334,216.215,208.916,216.4 M245.16,195.792
				c0.176-0.996-0.328-0.966-1.107-0.664c-1.203,0.455-1.721,1.536-2.377,2.496c-0.244,0.366-0.352,0.865,0.064,1.162
				c0.535,0.385,0.949-0.039,1.182-0.443c0.4-0.697,0.922-1.162,1.699-1.338C245.299,196.862,245.193,196.341,245.16,195.792
				 M226.715,177.787c-1.742,0.038-3.328,0.544-4.947,0.919c-0.664,0.158-1.041,0.715-0.812,1.342
				c0.322,0.836,0.857,0.171,1.297,0.012c0.199-0.074,0.467-0.11,0.584-0.258c0.998-1.264,2.471-1.01,3.795-1.23
				c0.473-0.073,1.287,0.419,1.297-0.391C227.945,177.364,227.105,177.894,226.715,177.787 M245.543,186.351
				c-1.803,0.131-3.004,1.211-4.023,2.552c-0.213,0.286-0.756,0.677-0.227,1.077c0.434,0.334,0.828-0.092,1.09-0.384
				c0.943-1.041,1.863-2.052,3.449-1.992c0.451,0.016,0.629-0.396,0.564-0.805C246.326,186.292,245.934,186.296,245.543,186.351
				 M201.877,205.095c-0.123,0.098-0.244,0.203-0.371,0.295c0.879,1.232,1.725,2.486,2.637,3.693
				c0.312,0.411,0.785,0.959,1.318,0.47c0.561-0.522,0.16-1.065-0.316-1.491C204.057,207.077,202.973,206.083,201.877,205.095
				 M240.607,202.154c0.729-1.606-0.492-4.003-2.072-4.351c-0.127-0.021-0.326,0.014-0.418,0.102
				c-0.232,0.229-0.109,0.506,0.033,0.72C238.947,199.786,239.76,200.93,240.607,202.154 M238.213,193.029
				c0.09,1.679,1.002,2.674,1.67,3.762c0.217,0.349,0.629,0.649,1.078,0.304c0.367-0.279,0.258-0.746,0.068-1.02
				C240.301,195.013,239.738,193.786,238.213,193.029 M219.959,181.567c-0.023-0.913-1.477-2.054-2.42-1.906
				c-0.295,0.045-0.547,0.189-0.553,0.469c-0.01,0.162,0.18,0.438,0.328,0.472c0.768,0.17,1.143,0.692,1.391,1.382
				c0.131,0.352,0.312,0.748,0.799,0.525C219.883,182.337,219.998,181.974,219.959,181.567"/>
			<path clip-path="url(#SVGID_14_)" fill-rule="evenodd" clip-rule="evenodd" d="M77.165,129.634
				c1.878-0.368,2.824,0.715,3.51,2.232c0.234,0.514,0.513,1.008,0.778,1.515l0.007-0.011c-0.984-0.104-1.059-1.019-1.37-1.647
				c-0.527-1.058-1.186-1.702-2.486-1.371c0.177,0.486,0.35,0.958,0.526,1.443c-0.414,0.212-0.371-0.198-0.522-0.308
				c-0.184-0.137-0.093-0.532-0.445-0.566L77.165,129.634z"/>
			<path clip-path="url(#SVGID_14_)" fill-rule="evenodd" clip-rule="evenodd" d="M176.125,210.163
				c0.059,1.359,0.463,2.598,1.283,3.709c-4.055,1.182-6.887,0.334-8.211-2.699c0.734,0.701,1.23,1.174,1.746,1.664
				c0.289-0.988-0.383-2.058-1.74-2.842c-1.547-0.891-2.295-2.309-2.002-3.84c0.688,0.256,0.477,1.029,0.85,1.445
				c0.25,0.27,0.412,0.715,0.879,0.516c0.451-0.196,0.367-0.661,0.232-0.98c-0.256-0.574-0.623-1.098-0.943-1.647
				c0.432-0.078,0.969,0.312,1.25-0.356c0.574-1.367,1.082-2.768,2.387-3.701c0.328-0.234,0.285-0.906,0-1.35
				c-0.156-0.232-0.359-0.078-0.555,0.006c-1.582,0.697-3.266,3.711-3.031,5.457c-0.281-0.318-0.504-0.747-0.854-0.917
				c-1.658-0.837-1.51-2.117-0.963-3.539c0.43,0.081,0.311,0.479,0.4,0.729c0.141,0.417,0.012,1.154,0.707,0.971
				c0.502-0.136,0.264-0.756,0.133-1.13c-0.322-0.901-0.605-1.851-1.105-2.652c-0.836-1.329-0.451-2.615-0.283-4.003
				c0.572,0.229,0.57,0.609,0.623,0.976c0.051,0.378-0.123,1.011,0.582,0.858c0.529-0.109,0.518-0.678,0.412-1.08
				c-0.15-0.615-0.379-1.225-0.656-1.795c-0.729-1.521-0.746-1.514,0.09-3.287c0.416,0.954,1.348,1.595,0.578,2.754
				c-0.205,0.304-0.096,0.881,0.424,1.069c0.422,0.159,0.738-0.116,0.947-0.417c0.492-0.701,0.943-1.43,1.396-2.154
				c0.193-0.322,0.4-0.704,0.838-0.605c0.387,0.091,0.244,0.534,0.318,0.825c0.137,0.563,0.279,1.134,0.451,1.856
				c0.535-2.649,0.535-2.678,3.094-2.672c4.297,0.007,8.59,0.053,12.885,0.096c0.732,0.004,1.391,0.035,1.557-0.938
				c1.053-6.011,2.328-11.99,2.457-18.12c0.08-3.979-2.578-5.938-5.74-6.625c-3.914-0.847-7.764-0.214-11.42,1.427
				c-0.785,0.352-2.008,0.647-0.25,1.494c0.633,0.307,0.578,0.983,0.377,1.575c-0.17,0.514-0.539,0.83-1.082,0.783
				c-0.686-0.064-1.014-0.524-1.131-1.168c-0.057-0.301,0.184-0.635-0.336-1.125c-2.404,3.624-0.973,7.584-1.373,11.307
				c-0.424-3.926-1.031-7.842,0.252-11.751c0.236-0.709,0.564-1.237,1.258-1.552c2.234-1.012,4.645-1.567,6.904-2.462
				c5.705-2.243,11.447-1.159,17.098-0.328c3.184,0.469,6.539,0.903,9.488,2.579c1.365,0.778,2.594,2.867,2.326,4.4
				c-0.039,0.189-0.127,0.471-0.266,0.528c-1.781,0.711-1.576,2.173-1.469,3.646c0.193,2.465-0.504,3.225-3.018,3.518
				c-1.059,0.13-2.119,0.09-3.174,0.402c-3.867,1.131-4.451,4.549-5.398,7.66c-0.416,1.36-0.354,2.863-0.561,4.297
				c-0.391,2.67-1.32,3.488-4.008,3.6c-0.863,0.031-1.73-0.031-2.576,0.089c-1.029,0.146-1.838,0.449-1.426,1.882
				c0.367,1.285-0.529,2.039-1.68,2.218c-3.639,0.565-7.273,0.353-10.904-0.048c-0.879-0.098-0.912-0.953-1.58-1.57
				c-0.371,1.059-0.166,1.996,0.008,2.873c0.627,3.095,1.713,6.066,2.666,9.077c0.131,0.444,0.342,0.909,0.855,1.104
				L176.125,210.163z M167.605,198.9c0.062,0.415-0.1,0.908,0.371,1.149c0.139,0.075,0.48,0,0.562-0.121
				c0.977-1.385,1.811-2.869,2.934-4.154c0.15-0.174,0.189-0.535-0.049-0.74c-0.084-0.076-0.352-0.087-0.418-0.018
				C169.848,196.288,168.084,197.038,167.605,198.9 M169.875,208.8c-0.027,0.563,0.002,1.039,0.457,1.232
				c0.373,0.16,0.602-0.174,0.674-0.492c0.289-1.32,0.729-2.539,1.77-3.502c0.312-0.289,0.133-0.826-0.066-1.21
				c-0.109-0.212-0.418-0.228-0.547-0.042C171.27,206.095,170.117,207.26,169.875,208.8 M172.865,213.747
				c0.572-0.078,2.086-3.664,1.785-4.16c-0.193-0.31-0.422-0.298-0.645-0.093c-1.014,0.911-1.754,1.987-1.859,3.39
				C172.107,213.343,172.359,213.696,172.865,213.747"/>
			<path clip-path="url(#SVGID_14_)" fill-rule="evenodd" clip-rule="evenodd" d="M217.605,173.716
				c-0.445-0.922-0.229-2.301-1.496-2.6c-1.332-0.322-0.941,1.293-1.684,1.822c-0.334-0.494-0.193-0.98-0.193-1.425
				c0.043-5.419,0.076-10.839,0.148-16.254c0.012-0.866,0.012-1.165-1.111-0.968c-1.881,0.344-3.846,0.359-5.764,0.355
				c-1.906-0.004-3.672,0.589-5.49,0.959c-0.99,0.202-1.607,0.787-1.73,1.841c-0.166,1.491-0.346,2.979-0.562,4.47
				c-0.088,0.68-0.105,1.459-1.213,1.227c-0.891-0.185-1.072-0.635-0.936-1.493c0.172-1.159,0.201-2.346,0.246-3.523
				c0.043-0.955,0.195-1.965-1.018-2.438c-0.365-0.143-0.451-0.62-0.402-0.988c0.168-1.258-0.039-2.442-0.518-3.605
				c-0.211-0.51-0.018-0.942,0.416-1.264c0.27-0.205,0.602-0.301,0.887-0.074c0.467,0.377,0.273,0.893,0.168,1.346
				c-0.395,1.841-0.42,1.795,1.484,1.311c3.611-0.906,7.096-2.338,10.859-2.58c1.725-0.107,3.459-0.6,5.158,0.404
				c0.662,0.391,1.225-0.196,1.25-0.989c0.014-0.698,0.035-1.409-0.102-2.083c-0.518-2.623,0.838-4.346,2.709-5.924
				c0.244,0.6,0.699,1.25,0.418,1.7c-1.01,1.63,0.105,1.691,1.217,1.861c0.707,0.108,1.5,0.564,0.869,1.22
				c-1.49,1.557-1.346,3.453-1.367,5.27c-0.047,4.123,0.102,8.258,0.16,12.389c0.021,1.395,0.121,2.797,0.021,4.184
				c-0.199,2.772,0.912,4.979,2.742,6.923c0.434,0.461,1.086,1.017,0.402,1.542c-0.65,0.51-1.525,0.459-2.076-0.423
				c-0.451-0.722-0.918-1.438-1.354-2.167C218.779,172.166,218.555,172.157,217.605,173.716"/>
			<path clip-path="url(#SVGID_14_)" fill-rule="evenodd" clip-rule="evenodd" d="M181.178,214.247
				c-0.631-0.648-1.75-0.412-0.916-1.5c0.398-0.525,0.143-0.988-0.396-1.328c-1.604-1.014-2.486-2.756-3.955-3.914
				c-0.475-0.367-0.295-0.846-0.168-1.33c0.9,0.111,0.885,1.045,1.424,1.43c0.318,0.238,0.629,0.719,1.084,0.299
				c0.324-0.299,0.189-0.818-0.055-1.024c-0.939-0.793-1.178-2.177-2.666-2.563c-1.213-0.314-0.967-1.789-0.99-2.757
				c-0.033-0.866,0.914-0.481,1.418-0.485c2.674-0.023,5.355,0.045,8.043,0.023c0.736-0.006,1.141,0.211,1.443,0.926
				c0.791,1.87,1.896,3.533,3.307,5.042c2.074,2.222,5.537,1.821,6.832-0.913c0.156-0.341,0.217-0.734,0.426-1.039
				c0.43-0.646,1.121-0.718,1.346,0.006c0.342,1.104,1.701,2.284-0.07,3.483c-0.609,0.417-0.363,1.389-0.236,2.136
				c0.121,0.717,0.244,1.449-0.863,1.455c-0.146,0-0.352,0.078-0.424,0.188c-1.178,1.693-2.898,1.715-4.684,1.523
				c-0.361-0.041-0.658,0.136-0.836,0.389c-0.578,0.838-1.119,1.039-1.844,0.117c-0.227-0.299-0.773-0.249-1,0.102
				c-0.871,1.359-2.256,1.006-3.496,1.07c-1.369,0.076-1.818-0.664-1.408-2.023c0.355-1.199,0.963-2.24,1.766-3.184
				c0.211-0.257,0.5-0.516,0.268-0.834c-0.324-0.438-0.658-0.093-0.953,0.118C182.133,210.659,180.908,211.81,181.178,214.247
				 M178.92,209.289c0.023,0.333,0.16,0.931,0.846,1.073c0.457,0.099,0.689-0.314,0.646-0.72c-0.211-1.907,0.855-2.965,2.432-3.665
				c0.594-0.258,0.631-0.67,0.416-1.164c-0.227-0.539-0.609-0.656-1.164-0.414C180.98,204.884,178.943,207.796,178.92,209.289
				 M185.23,213.446c-0.484,0.25-1.414,0.175-1.508,1.163c-0.051,0.585,0.473,0.626,0.914,0.629c0.957,0.017,1.244-0.771,1.49-1.437
				C186.248,213.466,185.73,213.417,185.23,213.446"/>
			<path clip-path="url(#SVGID_14_)" fill-rule="evenodd" clip-rule="evenodd" d="M221.205,152.885c0.146,0,0.262,0.494,0.602,0.608
				c0.627,0.21,1.453,0.904,1.594-0.521c0.047-0.455,0.332-0.852,0.877-0.674c0.701,0.238,1.465,0.469,1.66,1.332
				c0.143,0.609-0.201,0.801-0.77,0.934c-1.057,0.24-0.668,0.984-0.285,1.456c0.854,1.074,1.135,1.858-0.641,2.075
				c-0.812,0.098-0.666,0.736-0.619,1.244c0.381,3.622,0.549,7.255,0.561,10.898c0.004,1.098,1.09,1.957,0.662,3.168
				c-0.135,0.408-0.15,0.888-0.574,1.074c-0.551,0.24-0.912-0.208-1.225-0.553c-0.391-0.427-0.717-0.922-1.072-1.378
				c-1.158-1.462-1.137-2.091,0.287-3.334c0.613-0.545,0.938-1.149,0.945-1.939c0.035-2.894,0.09-5.786,0.062-8.675
				c-0.01-1.305-0.467-2.4-1.902-2.817c-1.375-0.397-0.953-1.595-1.035-2.545C220.309,152.905,220.621,152.849,221.205,152.885"/>
			<path clip-path="url(#SVGID_14_)" fill-rule="evenodd" clip-rule="evenodd" d="M232.088,177.922
				c-0.354-1.485,0.834-1.976,1.221-2.847c0.398-0.892,1.211-1.592,1.754-2.441c0.424-0.668,1.422-1.334,0.178-2.225
				c-0.334-0.241-0.166-0.803,0.072-1.189c0.174-0.297,0.428-0.479,0.785-0.43c0.572,0.069,0.463,0.611,0.668,0.944
				c1.01,1.601,0.324,2.69-0.818,3.897c-0.635,0.663-1.363,1.301-1.857,2.156C233.656,176.538,232.896,177.091,232.088,177.922"/>
			<path clip-path="url(#SVGID_14_)" fill-rule="evenodd" clip-rule="evenodd" d="M91.688,139.391
				c-0.163-1.529,0.18-1.883,1.304-1.389c2.058,0.901,3.46,2.718,3.412,4.651c-0.003,0.359,0.136,0.875-0.298,0.986
				c-0.345,0.088-0.896,0.016-1.133-0.221c-0.781-0.789-1.783-1.23-2.633-1.871C91.609,141.006,91.801,139.862,91.688,139.391
				 M95.819,143.093c-0.656-1.435-0.484-2.938-2.01-3.427c-0.312-0.097-0.336-1.058-0.87-0.351c-0.292,0.385-0.549,0.828-0.17,1.441
				C93.437,141.831,94.398,142.446,95.819,143.093"/>
			<path clip-path="url(#SVGID_14_)" fill-rule="evenodd" clip-rule="evenodd" d="M183.861,169.067
				c0.211-0.771,0.523-1.666,1.742-1.685c1.242-0.02,1.654,0.94,1.754,1.863c0.115,1.038-0.639,1.74-1.658,1.74
				C184.686,170.987,183.85,170.501,183.861,169.067"/>
			<path clip-path="url(#SVGID_14_)" fill-rule="evenodd" clip-rule="evenodd" d="M168.947,191.433
				c-0.24-0.916-0.234-1.773-0.98-2.408c-0.506-0.444-0.295-0.922,0.24-1.126c0.828-0.315,1.086-0.961,1.268-2.219
				c0.219,1.083,1.291,1.512,0.289,2.339c-0.383,0.313-0.762,0.862-0.328,1.215c0.502,0.391,0.83-0.258,1.094-0.611
				c0.189-0.243,0.219-0.607,0.678-0.729C172.031,190.082,169.887,190.364,168.947,191.433"/>
			<path clip-path="url(#SVGID_14_)" fill-rule="evenodd" clip-rule="evenodd" d="M92.601,131.693c0.941,0.9,1.804,1.847,2.799,2.63
				c0.9,0.701,1.09,1.697,1.224,2.632c0.168,1.194-0.699,1.659-1.802,1.127c-1.741-0.846-2.995-3.103-2.849-5.038
				C92.012,132.499,92.179,132.06,92.601,131.693 M93.102,132.903c-0.434,0.135-0.647,0.193-0.635,0.749
				c0.062,1.91,1.799,2.688,2.633,4.063c0.072,0.125,0.623,0.067,0.874-0.059c0.271-0.126,0.094-0.465,0.101-0.72
				c0.089-1.866-1.636-2.545-2.465-3.797C93.506,133.003,93.246,132.966,93.102,132.903"/>
			<path clip-path="url(#SVGID_14_)" fill-rule="evenodd" clip-rule="evenodd" d="M90.603,149.931
				c-0.06-0.518,0.076-1.18,0.589-1.442c0.707-0.359,0.674,0.652,1.124,0.842c1.644,0.683,2.461,1.925,2.847,3.651
				c0.137,0.602-0.062,0.984-0.146,1.462c-0.3-0.19-0.58-0.439-0.918-0.563c-1.047-0.399-1.804-1.183-2.621-1.885
				C90.88,151.481,90.569,150.823,90.603,149.931 M91.355,149.418c-0.663,2.173,1.119,2.703,2.154,3.656
				c0.223,0.2,0.745,0.848,1.184,0.259c0.285-0.396,0.134-1.016-0.237-1.311C93.414,151.212,92.668,150.045,91.355,149.418"/>
			<path clip-path="url(#SVGID_14_)" fill-rule="evenodd" clip-rule="evenodd" d="M93.615,156.747
				c-0.854,0.016-1.515-0.008-1.813-0.957c-0.123-0.383-0.69-0.82-1.098-0.472c-0.357,0.301-0.223,0.86,0.148,1.281
				c0.659,0.778,2.115,1.229,3.536,1.006l-0.019,3.513c-0.065-0.018-0.14-0.035-0.221-0.057c0.702-2.365-1.229-2.825-2.667-3.477
				c-1.351-0.613-1.308-1.656-1.212-2.781c0.076-0.812,0.702-1.008,1.2-0.562C92.266,154.944,93.379,155.396,93.615,156.747"/>
			<path clip-path="url(#SVGID_14_)" fill-rule="evenodd" clip-rule="evenodd" d="M91.767,143.417
				c3.438,1.655,4.006,2.88,3.968,5.534c-0.005,0.511-0.105,0.815-0.73,0.687c-2.394-0.497-4.479-4.035-3.721-6.355
				c0.064-0.191-0.104-0.629,0.383-0.387c0.221,0.111,0.244,0.328,0.135,0.553c-0.903,2.234,0.699,4.769,3.711,5.732
				c-0.18-1.54-0.3-2.896-1.816-3.879C93.013,144.858,91.973,144.466,91.767,143.417"/>
			<path clip-path="url(#SVGID_14_)" fill-rule="evenodd" clip-rule="evenodd" d="M180.93,167.452
				c0.795,0.363,1.385,0.942,1.334,1.906c-0.055,0.95-0.602,1.457-1.586,1.402c-1.064-0.064-1.391-0.795-1.271-1.668
				C179.512,168.292,179.898,167.576,180.93,167.452"/>
			<path clip-path="url(#SVGID_14_)" fill-rule="evenodd" clip-rule="evenodd" d="M111.883,145.159
				c-0.35,0.641-0.965,0.79-1.452,0.95c-0.615,0.193-1.435,0.415-1.914-0.267c-0.511-0.729,0.051-1.244,0.542-1.775
				c2.036-2.209,2.415-2.389,5.609-2.242c-0.969,0.697-1.889,0.863-2.71,0.819c-1.487-0.088-1.897,1.146-2.695,1.887
				c-0.506,0.464,0.285,0.488,0.412,0.769c0.23,0.525,0.93,0.46,1.169,0.099C111.184,144.881,111.428,144.963,111.883,145.159"/>
			<path clip-path="url(#SVGID_14_)" fill-rule="evenodd" clip-rule="evenodd" d="M100.733,149.611
				c-0.862,0.655-1.716,1.311-2.583,1.954c-0.122,0.094-0.307,0.107-0.424,0.202c-0.928,0.743-1.423,1.965-0.918,2.802
				c0.657,1.092,1.002-0.928,1.919-0.48c-0.188,1.211-1.428,1.335-2.142,1.236c-0.567-0.08-0.719-1.221-0.407-1.969
				C97.024,151.322,98.562,150.07,100.733,149.611"/>
			<path clip-path="url(#SVGID_14_)" fill-rule="evenodd" clip-rule="evenodd" d="M86.374,160.805
				c-0.646-1.794-2.544-1.83-3.378-3.115c-0.285,0.313-1.459-0.888-1.057,0.612c0.115,0.403-0.189,0.295-0.309,0.229
				c-0.443-0.243-0.405-0.688-0.415-1.117c-0.007-0.462,0.161-0.63,0.64-0.682C83.585,156.538,86.164,158.696,86.374,160.805"/>
			<path clip-path="url(#SVGID_14_)" fill-rule="evenodd" clip-rule="evenodd" d="M103.797,155.116
				c-1.843-1.173-1.546-2.498-0.973-3.896c0.122-0.308-0.094-0.81,0.513-0.793c0.594,0.019,0.438,0.543,0.518,0.839
				C104.211,152.509,103.493,153.701,103.797,155.116"/>
			<path clip-path="url(#SVGID_14_)" fill-rule="evenodd" clip-rule="evenodd" d="M110.108,140.536
				c0.415-2.307,2.288-3.899,4.304-3.883c0.328,0.003,0.629,0.273,0.572,0.39c-0.178,0.368-0.102,0.935-0.797,0.991
				C112.514,138.153,111.006,138.667,110.108,140.536"/>
			<path clip-path="url(#SVGID_14_)" fill-rule="evenodd" clip-rule="evenodd" d="M103.208,142.998
				c-0.189,1.477,1.225,1.728,1.843,2.536c1.042,1.371,1.335,3.007,0.455,4.673c-0.055-1.099,0.067-2.044-0.182-2.882
				c-0.262-0.864-0.88-1.624-1.313-2.388c-0.857,0.036-0.251,0.858-0.941,1.138C103.459,144.992,102.664,144.042,103.208,142.998"/>
			<path clip-path="url(#SVGID_14_)" fill-rule="evenodd" clip-rule="evenodd" d="M178.408,169.12
				c-0.057,0.76-0.252,1.437-1.029,1.453c-0.918,0.021-1.203-0.691-1.236-1.504c-0.043-0.762,0.496-1.025,1.109-1.051
				C178.014,167.986,178.396,168.442,178.408,169.12"/>
			<path clip-path="url(#SVGID_14_)" fill-rule="evenodd" clip-rule="evenodd" d="M97.649,195.979
				c-1.006-1.595-0.584-6.183,0.736-7.943C97.213,190.569,98.054,193.286,97.649,195.979"/>
			<path clip-path="url(#SVGID_14_)" fill-rule="evenodd" clip-rule="evenodd" d="M80.379,153.106
				c-0.16-1.015-0.417-1.799,1.246-1.289c1.143,0.354,2.188,0.787,3.188,1.402c0.285,0.172,0.64,0.372,0.552,0.705
				c-0.14,0.527,0.605,0.99,0.101,1.442c-0.189,0.171-0.679,0.126-0.628-0.383c0.021-0.251,0.232-0.485,0.237-0.728
				c0.012-0.432-0.427-0.539-0.666-0.793c-0.854-0.913-2.229-0.238-3.139-1.158C80.909,151.935,81.113,153.051,80.379,153.106"/>
			<path clip-path="url(#SVGID_14_)" fill-rule="evenodd" clip-rule="evenodd" d="M84.647,150.422
				c-0.666-1.302-1.536-1.954-2.703-2.426c0.551-0.44,1.057,0.438,1.479-0.183c-0.834-0.896-2.403-0.438-2.997-1.611
				C82.958,146.294,85.044,148.04,84.647,150.422"/>
			<path clip-path="url(#SVGID_14_)" fill-rule="evenodd" clip-rule="evenodd" d="M103.196,132.442l-0.005,1.436
				c-3.721,0.424-4.564,1.131-5.269,4.398C96.753,136.483,98.651,134.358,103.196,132.442"/>
			<path clip-path="url(#SVGID_14_)" fill-rule="evenodd" clip-rule="evenodd" d="M106.797,151.302
				c-0.094-2.01,0.773-3.364,2.762-3.893c0.254-0.064,0.561-0.076,0.74-0.235c0.468-0.411,1.112-1.097,1.445-0.276
				c0.345,0.869-0.822,0.763-1.296,0.893C108.589,148.306,106.956,148.948,106.797,151.302"/>
			<path clip-path="url(#SVGID_14_)" fill-rule="evenodd" clip-rule="evenodd" d="M96.506,160.823
				c-1.596-1.486,0.396-4.768,3.707-5.883c-0.267,0.932-0.961,1.451-1.57,1.79C96.396,157.994,96.051,158.53,96.506,160.823"/>
			<path clip-path="url(#SVGID_14_)" fill-rule="evenodd" clip-rule="evenodd" d="M96.935,148.854
				c-0.048-2.369,2.389-4.871,4.977-5.122C99.808,145.146,97.599,146.248,96.935,148.854"/>
			<path clip-path="url(#SVGID_14_)" fill-rule="evenodd" clip-rule="evenodd" d="M82.138,138.827
				c-2.628-0.975-2.628-0.975-4.603-3.884c1.241-0.397,1.938-0.052,1.914,1.359c-0.551,0.103-0.594-0.452-0.941-0.644
				c0.139,1.133,1.071,1.548,1.893,2.105c0.563,0.383,1.553,0.095,1.737,1.07V138.827z"/>
			<path clip-path="url(#SVGID_14_)" fill-rule="evenodd" clip-rule="evenodd" d="M81.388,123.959
				c-0.086,0.527,0.173,1.134-0.285,1.565c-0.714,0.698-0.318,1.369-0.007,2.032c0.259,0.541,0.474,1.172,1.332,0.924
				c1.09-0.305,0.234-1.016,0.333-1.571c0.546,0.263,0.958,0.584,0.795,1.199c-0.165,0.583-0.778,0.778-1.25,0.84
				c-0.636,0.071-1.246-0.247-1.548-0.888C80.04,126.569,80.557,125.242,81.388,123.959"/>
			<path clip-path="url(#SVGID_14_)" fill-rule="evenodd" clip-rule="evenodd" d="M85.339,144.04
				c-0.341-3.116,0.567-4.887,3.378-6.532C86.767,139.257,85.42,141.302,85.339,144.04"/>
			<path clip-path="url(#SVGID_14_)" fill-rule="evenodd" clip-rule="evenodd" d="M101.033,141.155
				c-0.273,1.132-1.179,1.777-1.943,2.529c-0.496,0.475-1.234,0.979-1.734,0.531c-0.623-0.545-0.319-1.411,0.127-2.348
				c0.396,2.136,0.412,2.148,1.799,0.971c0.616-0.524,1.184-1.099,1.775-1.65L101.033,141.155z"/>
			<path clip-path="url(#SVGID_14_)" fill-rule="evenodd" clip-rule="evenodd" d="M97.385,179.645
				c-0.017-2.532,0.643-4.914,1.589-7.232C98.445,174.825,97.916,177.235,97.385,179.645"/>
			<path clip-path="url(#SVGID_14_)" fill-rule="evenodd" clip-rule="evenodd" d="M89.294,143.293
				c-1.128,1.927-3.205,3.313-3.004,5.882C85.643,146.39,87.649,144.901,89.294,143.293"/>
			<path clip-path="url(#SVGID_14_)" fill-rule="evenodd" clip-rule="evenodd" d="M101.056,141.188
				c-0.381-0.852,1.279-1.709,0.354-2.168c-0.699-0.346-1.246,1.176-2.108,1.568c-0.307,0.14-0.518,0.518-0.757,0.769
				c0.148-1.032,1.893-2.798,2.895-2.872c0.565-0.037,0.834-0.012,0.594,0.787c-0.223,0.727-0.455,1.365-1.006,1.879
				C101.033,141.155,101.056,141.188,101.056,141.188"/>
			<path clip-path="url(#SVGID_14_)" fill-rule="evenodd" clip-rule="evenodd" d="M217.666,215.424
				c0.43,0.146,0.842,0.248,1.225,0.423c0.457,0.213,1.068,0.229,1.262,0.83c0.029,0.074-0.15,0.31-0.254,0.322
				c-0.619,0.072-1.303,0.25-1.832-0.191C217.738,216.53,217.35,216.142,217.666,215.424"/>
			<path clip-path="url(#SVGID_14_)" fill-rule="evenodd" clip-rule="evenodd" d="M84.247,136.715
				c0.879,0.333,0.33,1.048,0.918,1.329c0.481-0.717,0.979-1.455,1.72-2.566c-0.378,1.787-1.207,2.812-2.226,3.932
				C84.515,138.481,84.393,137.683,84.247,136.715"/>
			<path clip-path="url(#SVGID_14_)" fill-rule="evenodd" clip-rule="evenodd" d="M78.777,140.712
				c1.569-0.537,3.078,0.037,3.991,1.367C81.237,142.196,80.284,140.665,78.777,140.712"/>
			<path clip-path="url(#SVGID_14_)" fill-rule="evenodd" clip-rule="evenodd" d="M88.075,161.184
				c-0.771-2.081-0.421-3.417,1.198-4.493C87.91,157.963,88.343,159.646,88.075,161.184"/>
			<path clip-path="url(#SVGID_14_)" fill-rule="evenodd" clip-rule="evenodd" d="M81.453,133.381
				c0.034,0.69,0.712,0.769,1.342,1.196c-1.523,0.535-2.565-0.673-3.79-0.52c-0.237,0.023-0.232-0.322-0.199-0.523
				c0.043-0.256,0.271-0.383,0.473-0.297c0.467,0.191,0.996,0.198,1.401,0.598c0.78,0.77,0.57-0.223,0.78-0.465L81.453,133.381z"/>
			<path clip-path="url(#SVGID_14_)" fill-rule="evenodd" clip-rule="evenodd" d="M206.562,215.071
				c-0.861-0.51-1.682-1.107-2.594-1.506c-0.822-0.354-0.852-0.79-0.404-1.711c0.891,1.296,2.426,1.764,2.965,3.252
				C206.525,215.108,206.562,215.071,206.562,215.071"/>
			<path clip-path="url(#SVGID_14_)" fill-rule="evenodd" clip-rule="evenodd" d="M101.677,131.294
				c-0.628,1.123-1.445,1.555-2.192,2.092c-0.496,0.359-0.784-0.021-1.136-0.154c-0.3-0.109-0.326-0.484-0.173-0.667
				c0.484-0.542,0.503,0.334,0.74,0.296C99.897,132.701,100.421,131.704,101.677,131.294"/>
			<path clip-path="url(#SVGID_14_)" fill-rule="evenodd" clip-rule="evenodd" d="M176.143,210.198
				c0.656-0.504,0.92,0.006,1.189,0.465c0.559,0.951,0.682,2.081,1.287,3.025c-1.568-0.68-1.334-2.571-2.488-3.518
				C176.125,210.163,176.143,210.198,176.143,210.198"/>
			<path clip-path="url(#SVGID_14_)" fill-rule="evenodd" clip-rule="evenodd" d="M87.196,155.843
				c0.29-0.869-0.295-1.976,1.287-1.786c0.685,0.085,0.879-1.012,0.941-1.769C89.627,153.958,89.627,153.958,87.196,155.843"/>
			<path clip-path="url(#SVGID_14_)" fill-rule="evenodd" clip-rule="evenodd" d="M80.246,143.543
				c0.714,0.146,1.274,0.231,1.815,0.374c0.295,0.082,0.568,0.392,0.844,0.383c0.602-0.025,0.091-0.427,0.158-0.641
				c0.005-0.023,0.35-0.016,0.383,0.055c0.24,0.463,0.561,0.936,0.338,1.482c-0.119,0.297-0.551,0.33-0.656,0.16
				c-0.333-0.501-0.733-0.865-1.272-1.098C81.342,144.035,80.653,144.292,80.246,143.543"/>
			<path clip-path="url(#SVGID_14_)" fill-rule="evenodd" clip-rule="evenodd" d="M107.538,157.351
				c-1.814,0.255-2.82,1.615-4.006,2.756C104.104,158.165,105.474,157.214,107.538,157.351"/>
			<path clip-path="url(#SVGID_14_)" fill-rule="evenodd" clip-rule="evenodd" d="M82.138,138.835
				c0.335-0.633,0.335-0.633-0.112-1.863c0.925,0.711,1.085,1.635,1.476,2.394c0.067,0.116-0.105,0.354-0.168,0.532
				c-0.177-0.076-0.388-0.129-0.534-0.248c-0.271-0.227-0.216-0.729-0.661-0.822V138.835z"/>
			<path clip-path="url(#SVGID_14_)" fill-rule="evenodd" clip-rule="evenodd" d="M102.446,156.937
				c0.923,0.988,0.647,2.596-0.694,4.342C101.76,159.784,103.405,158.56,102.446,156.937"/>
		</g>
	</g>
</g>
<g>
	<path fill-rule="evenodd" clip-rule="evenodd" d="M175.562,64.788c-0.362-0.017-0.905-0.206-0.977,0.374
		c-0.093,0.73,0.543,0.652,0.931,0.775c0.26,0.083,0.543,0.083,0.816,0.104c14.845,1.198,29.695,1.918,44.59,1.666
		c8.32-0.588,16.645-1.178,24.975-1.76c0.385-0.026,0.932-0.239,1.213,0.026c0.128-0.337,0.422-0.604,0.891-0.604
		c0.036,0,0.065,0.009,0.1,0.013c0.032-0.113,0.084-0.216,0.152-0.31c-0.093-0.33-0.044-0.699,0.188-0.958
		c-0.096-0.331-0.041-0.712,0.175-0.979c-0.174-0.155-0.253-0.417-0.257-0.689c-0.012-0.646,0.094-1.297,0.064-1.942
		c-0.003-0.112-0.015-0.22-0.021-0.331c-0.757-1.167-1.682-1.932-2.932-2.41c-1.367,0.245-2.421-0.373-3.586-1.081
		c-9.115-5.569-18.012-11.642-27.27-16.874c-0.384-0.217-0.793-0.54-1.02-0.94c-1.134-2.029-3.402-2.7-4.93-1.056
		c-2.396,2.566-5.326,4.059-8.072,5.868c-6.713,4.427-13.561,8.551-20.337,12.831c-1.168,0.733-2.167,1.458-3.628,0.601
		c-1.174-0.69-2.281,0.182-2.788,1.605c-0.386,1.047,0.364,2.048,0.97,2.134c2.386,0.339,5.246,1.424,7.107,0.311
		c3.916-2.35,7.253-6.033,10.98-8.89c0.831-0.645-1.01-1.526,0.338-1.423c1.085,0.081,1.865-0.594,2.674-1.278
		c2.584-2.208,5.156-4.42,7.759-6.592c0.524-0.434,1.14-0.711,1.713-1.062c-0.095,0.897-0.8,1.154-1.273,1.602
		c-2.36,2.227-4.762,4.39-7.144,6.591c-0.832,0.777-0.838,1.095-0.295,1.095c1.355,0,2.788,0.576,3.938-1.095
		c1.636-2.361,3.426-4.575,5.203-6.792c0.41-0.514,0.857-1.648,1.418-1.186c0.338,0.283-0.52,1.255-0.917,1.841
		c-1.374,2.024-2.808,3.998-4.19,6.025c-0.281,0.412-1.082,1.11-0.025,1.389c1.174,0.312,2.425,0.725,3.149-1.286
		c0.944-2.626,2.169-5.102,3.294-7.631c0.086-0.201,0.313-0.311,0.475-0.469c-0.028,0.241-0.02,0.491-0.094,0.706
		c-0.82,2.411-1.658,4.812-2.479,7.227c-0.172,0.509-0.689,1.063-0.214,1.582c0.462,0.502,1.125,0.47,1.727,0.363
		c0.661-0.12,0.598-0.798,0.694-1.361c0.43-2.617,0.873-5.228,1.328-7.836c0.039-0.238,0.176-0.65,0.258-0.65
		c0.412,0.023,0.301,0.469,0.277,0.739c-0.216,2.456-0.471,4.911-0.689,7.372c-0.062,0.693-0.527,1.621,0.6,1.783
		c1.132,0.161,1.271-0.643,1.219-1.686c-0.131-2.469-0.264-4.937-0.362-7.41c-0.013-0.319-0.175-0.775,0.237-0.983
		c0.091,0.294,0.233,0.581,0.27,0.886c0.352,2.638,0.664,5.281,1.011,7.917c0.253,1.912,1.55,1.492,2.448,1.225
		c1.189-0.343,0.214-1.281,0.041-1.84c-0.734-2.447-1.605-4.839-2.343-7.284c-0.171-0.559-0.765-1.338-0.249-1.74
		c0.273-0.213,0.697,0.793,0.928,1.362c1.161,2.873,2.312,5.749,3.482,8.62c0.712,1.75,2.25,1.242,2.996,0.762
		c0.953-0.608-0.292-1.445-0.662-2.04c-1.603-2.564-3.303-5.041-4.937-7.569c-0.217-0.342-0.313-0.799-0.468-1.202
		c0.585-0.236,0.754,0.412,1.006,0.743c2.191,2.914,4.351,5.862,6.527,8.802c0.59,0.8,1.213,1.553,2.226,1.355
		c0.476-0.089,1.114-0.084,1.271-0.692c0.143-0.538-0.436-0.802-0.758-1.126c-2.186-2.177-4.389-4.33-6.545-6.545
		c-0.404-0.42-1.097-0.661-1.038-1.559c0.462,0.304,0.974,0.537,1.389,0.917c5.332,4.869,10.739,9.604,15.909,14.692
		c3.006,2.954,5.943,5.146,10.008,3.685c0.664-0.244,1.42-0.138,2.133-0.155c0.418-0.004,1.057-0.184,1.109,0.467
		c0.07,0.854-0.666,0.677-1.1,0.744c-4.791,0.754-9.613,1.042-14.436,1.283c-18.66,0.915-37.299,0.306-55.923-1.25
		c-0.543-0.052-1.522-0.475-1.569,0.292"/>
	<path fill-rule="evenodd" clip-rule="evenodd" d="M247.965,68.783c-0.379-0.024-0.631-0.39-0.777-0.88
		c-0.234,0.604-0.809,0.394-1.166,0.472c-2.674,0.561-5.354,1.102-8.041,1.484c-16.168,2.355-32.35,2.007-48.531,0.206
		c-4.547-0.511-9.088-1.129-13.637-1.672c-0.475-0.062-1.215-0.403-1.25,0.928c-0.053,1.484,0.726,1.086,1.172,1.189
		c1.634,0.402,3.27,0.805,4.914,1.044c22.207,3.15,44.41,2.936,66.6-0.975c0.35-0.069,0.697-0.023,0.824-0.848
		c0.018-0.118,0.039-0.214,0.059-0.324C248.056,69.22,248,69.011,247.965,68.783z"/>
	<path fill-rule="evenodd" clip-rule="evenodd" d="M210.979,109.783c-11.42,0.34-22.807-1.325-34.19-3.102
		c-0.384-0.061-0.776-0.094-1.146-0.279c-0.498-0.259-1.378,0.064-1.311-1.584c0.067-1.81,0.892-0.909,1.392-0.817
		c20.203,3.12,40.425,4.907,60.668,1.795c3.174-0.49,6.338-1.32,9.51-1.968c0.449-0.091,1.158-1.134,1.271,0.525
		c0.141,2.034-0.727,1.623-1.193,1.732c-10.055,2.198-20.133,3.563-30.232,3.698C214.162,109.795,212.565,109.783,210.979,109.783"
		/>
	<path fill-rule="evenodd" clip-rule="evenodd" d="M211.146,81.539c-11.632,0.534-23.235-1.429-34.836-3.547
		c-0.221-0.047-0.445-0.047-0.656-0.18c-0.408-0.229-1.088-0.015-1.061-1.481c0.023-2.119,0.74-1.261,1.166-1.205
		c5.202,0.682,10.406,1.348,15.606,2.141c14.634,2.209,29.263,2.256,43.892,0.02c3.506-0.549,7.004-1.396,10.504-2.033
		c0.492-0.108,1.334-1.34,1.426,0.591c0.117,2.464-0.877,1.77-1.377,1.884C234.279,80.304,222.719,82.011,211.146,81.539"/>
	<path fill-rule="evenodd" clip-rule="evenodd" d="M211.707,88.193c-11.917,0.215-23.355-1.264-34.788-2.845
		c-0.22-0.035-0.442-0.017-0.651-0.139c-0.605-0.325-1.701,0.139-1.648-1.413c0.071-1.973,1.07-0.812,1.648-0.729
		c22.891,3.135,45.778,4.654,68.676,0.256c0.76-0.146,2.035-2.044,2.236,0.355c0.125,1.564-1.434,1.379-2.252,1.518
		C233.721,87.066,222.5,88.446,211.707,88.193"/>
	<path fill-rule="evenodd" clip-rule="evenodd" d="M210.926,94.926c-11.438,0.524-23.046-0.939-34.639-2.639
		c-0.605-0.083-1.702,0.346-1.66-1.23c0.039-1.818,1.082-0.894,1.66-0.813c15.216,2.004,30.445,3.077,45.689,2.635
		c7.959-0.229,15.883-1.355,23.812-2.626c0.521-0.096,1.471-1.152,1.533,0.54c0.084,2.05-1,1.219-1.539,1.317
		C234.248,94.164,222.694,95.368,210.926,94.926"/>
	<path fill-rule="evenodd" clip-rule="evenodd" d="M211.016,102.945c-11.688,0.594-23.338-1.368-34.986-3.336
		c-0.539-0.098-1.484,0.438-1.426-1.662c0.053-1.694,0.927-0.872,1.426-0.798c15.216,2.274,30.439,3.961,45.688,3.311
		c8.063-0.352,16.095-1.709,24.136-3.264c0.508-0.087,1.432-1.459,1.469,0.858c0.043,2.027-0.955,1.318-1.48,1.427
		C234.248,101.779,222.654,103.488,211.016,102.945"/>
	<path fill-rule="evenodd" clip-rule="evenodd" d="M211.297,116.215c-11.357,0.307-22.691-0.78-34.023-2.723
		c-0.541-0.096-1.381-0.034-1.35-1.385c0.043-1.681,0.896-0.871,1.357-0.804c14.838,2.146,29.688,3.11,44.559,2.677
		c8.131-0.225,16.219-1.408,24.312-2.833c0.492-0.077,1.336-1.019,1.393,0.65c0.082,2.017-0.891,1.291-1.4,1.378
		C234.551,115.297,222.938,116.582,211.297,116.215"/>
	<path fill-rule="evenodd" clip-rule="evenodd" d="M187.943,61.894c-1.045-0.27-2.234,0.472-3.246-0.421
		c0.82-0.832,1.615-1.708,2.468-2.49c2.072-1.915,4.165-3.791,6.252-5.68c0.307-0.27,0.585-0.607,0.936-0.787
		c1.308-0.672,2.845-0.732,3.874,0.142c0.459,0.387-0.969,1.698-1.566,2.555c-0.938,1.35-2.057,2.521-2.958,3.908
		C192.227,61.409,190.558,62.923,187.943,61.894"/>
	<path fill-rule="evenodd" clip-rule="evenodd" d="M197.016,62.473c-0.963-0.102-2.505,0.584-2.875-0.363
		c-0.457-1.148,0.975-2.055,1.604-3.04c1.152-1.812,2.429-3.513,3.653-5.258c0.39-0.55,0.799-1.138,1.475-1.07
		c0.913,0.092,2.159-0.101,2.642,0.511c0.568,0.718-0.408,1.808-0.749,2.724c-0.45,1.18-1.03,2.298-1.407,3.51
		C200.605,61.923,199.443,63.397,197.016,62.473"/>
	<path fill-rule="evenodd" clip-rule="evenodd" d="M224.314,62.496c-2.018,0.792-3.135-0.488-3.805-2.852
		c-0.373-1.347-1.049-2.57-1.502-3.889c-0.276-0.803-1.268-1.86-0.249-2.472c0.936-0.567,2.347-0.903,3.207,0.286
		c1.775,2.464,3.411,5.082,5.083,7.648c0.584,0.888,0.283,1.279-0.578,1.279C225.816,62.496,225.157,62.496,224.314,62.496"/>
	<path fill-rule="evenodd" clip-rule="evenodd" d="M232.457,62.073c-1.516,0.618-2.717-0.288-3.791-1.952
		c-1.164-1.796-2.541-3.396-3.746-5.158c-0.408-0.59-1.585-1.215-0.811-2.062c0.691-0.75,1.859-1.214,2.869-0.233
		c1.1,1.065,2.191,2.146,3.281,3.224c1.557,1.538,3.117,3.058,4.66,4.612c0.311,0.313,0.547,0.737,0.822,1.105
		c-0.4,0.108-0.803,0.252-1.209,0.307C233.936,62,233.33,62.014,232.457,62.073"/>
	<path fill-rule="evenodd" clip-rule="evenodd" d="M216.377,62.645c-1.986,0.675-2.635-0.769-2.687-3.124
		c-0.017-1.158-0.301-2.307-0.329-3.472c-0.033-0.955-0.779-2.3,0.746-2.649c1.311-0.302,2.479-0.401,2.932,1.644
		c0.335,1.492,0.916,2.909,1.395,4.357C219.516,62.62,219.52,62.62,216.377,62.645"/>
	<path fill-rule="evenodd" clip-rule="evenodd" d="M204.624,62.63c-2.894-0.01-2.894-0.01-1.817-2.932
		c0.615-1.66,1.359-3.267,1.805-4.984c0.494-1.888,1.614-2.015,2.819-1.647c1.329,0.409,0.501,1.738,0.456,2.613
		c-0.065,1.345-0.443,2.667-0.553,4.018C207.161,61.917,206.499,63.302,204.624,62.63"/>
	<path fill-rule="evenodd" clip-rule="evenodd" d="M212.248,58.739c0.025,0.586-0.014,1.19,0.09,1.754
		c0.408,2.25-0.773,2.151-2.091,2.215c-1.544,0.068-1.694-0.783-1.483-2.275c0.285-1.987,0.445-3.994,0.654-5.996
		c0.084-0.826,0.398-1.26,1.164-1.266c0.801-0.003,1.258,0.343,1.346,1.299c0.12,1.421,0.242,2.842,0.364,4.268
		C212.273,58.739,212.262,58.739,212.248,58.739"/>
</g>
<line fill-rule="evenodd" clip-rule="evenodd" fill="none" stroke="#751114" stroke-miterlimit="10" x1="30.865" y1="133.425" x2="255.738" y2="133.425"/>
<line fill-rule="evenodd" clip-rule="evenodd" fill="none" stroke="#751114" stroke-miterlimit="10" x1="146.302" y1="36.888" x2="146.302" y2="218.929"/>
</svg>
