<?xml version="1.0" encoding="utf-8"?>
<!-- Generator: Adobe Illustrator 16.0.0, SVG Export Plug-In . SVG Version: 6.00 Build 0)  -->
<!DOCTYPE svg PUBLIC "-//W3C//DTD SVG 1.1//EN" "http://www.w3.org/Graphics/SVG/1.1/DTD/svg11.dtd">
<svg version="1.1" id="Layer_1" xmlns="http://www.w3.org/2000/svg" xmlns:xlink="http://www.w3.org/1999/xlink" x="0px" y="0px"
	 width="72px" height="72px" viewBox="0 0 72 72" enable-background="new 0 0 72 72" xml:space="preserve">
<path fill="#FFFFFF" d="M12.234,36.132c0.012-13.303,10.82-24.101,24.107-24.086c13.316,0.016,24.07,10.793,24.06,24.114
	c-0.01,13.307-10.819,24.088-24.115,24.051C22.992,60.175,12.221,49.392,12.234,36.132z M36.426,32.449
	c-4.041-0.285-7.237-2.14-9.9-5.13c-1.074,2.441-0.672,4.547,1.209,6.4c-0.053,0.039-0.104,0.078-0.156,0.117
	c-0.566-0.156-1.132-0.313-1.756-0.486c0.195,2.412,1.476,3.912,3.608,4.785c-0.021,0.042-0.043,0.083-0.063,0.124
	c-0.545,0-1.09,0-1.816,0c0.249,0.489,0.387,0.882,0.623,1.202c0.707,0.956,1.672,1.571,2.791,1.955
	c0.281,0.098,0.561,0.204,0.877,0.319c-2.016,1.479-4.27,1.888-6.641,1.94c0.101,0.142,0.188,0.223,0.289,0.277
	c3.924,2.107,8.032,2.51,12.126,0.769c5.452-2.319,7.988-6.787,8.485-12.537c0.047-0.544,0.188-0.979,0.568-1.353
	c0.251-0.244,0.501-0.49,0.737-0.748c0.325-0.355,0.636-0.723,0.952-1.085c-0.027-0.041-0.055-0.082-0.082-0.123
	c-0.655,0.187-1.311,0.374-1.967,0.561c-0.014-0.048-0.027-0.097-0.041-0.145c0.525-0.751,1.051-1.503,1.576-2.253
	c-0.925,0.219-1.729,0.502-2.521,0.81c-0.33,0.128-0.586,0.065-0.867-0.137c-0.828-0.593-1.685-1.085-2.748-1.194
	c-2.615-0.27-5.082,1.724-5.277,4.347C36.393,31.384,36.426,31.906,36.426,32.449z"/>
</svg>
